<svg width="41" height="41" viewBox="0 0 41 41" fill="none" xmlns="http://www.w3.org/2000/svg">
<mask id="mask0_1588_15773" style="mask-type:alpha" maskUnits="userSpaceOnUse" x="0" y="0" width="41" height="41">
<rect x="0.673828" y="0.576172" width="40" height="40" fill="#D9D9D9"/>
</mask>
<g mask="url(#mask0_1588_15773)">
</g>
<g clip-path="url(#clip0_1588_15773)">
<path d="M32.384 32.7661C27.7935 36.5135 13.4598 36.5135 8.96296 32.7661C4.37243 29.0187 4.84084 12.9987 8.96296 8.78293C13.0851 4.56715 28.2619 4.56715 32.384 8.78293C36.5061 12.9987 36.9746 29.0188 32.384 32.7661Z" fill="#E1FABB"/>
<g opacity="0.2">
<path d="M20.7672 26.2077C16.6451 29.4867 12.0545 31.173 7.74508 31.2667C4.55979 25.833 5.21561 12.6236 8.96298 8.78252C12.3356 5.31622 22.9219 4.6604 29.0114 6.81513C30.5103 12.9983 27.4188 20.8677 20.7672 26.2077Z" fill="white"/>
</g>
<path d="M18.5191 28.9247C17.8633 28.9247 17.2075 28.6436 16.8328 28.0815L11.5865 21.3363C10.837 20.3994 11.0244 19.0879 11.9612 18.3384C12.8981 17.5889 14.2096 17.7763 14.9591 18.7131L18.5191 23.3036L26.3886 13.0921C27.1381 12.1553 28.4496 11.9679 29.3865 12.7173C30.3233 13.4668 30.5107 14.7784 29.7612 15.7152L20.2054 28.0815C19.737 28.5499 19.1749 28.9247 18.5191 28.9247Z" fill="#69CF00"/>
</g>
<defs>
<clipPath id="clip0_1588_15773">
<rect width="30" height="30" fill="white" transform="translate(5.67383 5.57617)"/>
</clipPath>
</defs>
</svg>
