<svg width="32" height="32" viewBox="0 0 32 32" fill="none" xmlns="http://www.w3.org/2000/svg">
<path fill-rule="evenodd" clip-rule="evenodd" d="M16 32C24.8366 32 32 24.8366 32 16C32 7.16344 24.8366 0 16 0C7.16344 0 0 7.16344 0 16C0 24.8366 7.16344 32 16 32ZM9.33316 6.02237C11.3065 4.70379 13.6266 4 16 4C19.1815 4.00344 22.2318 5.26883 24.4815 7.51852C26.7312 9.76821 27.9966 12.8185 28 16C28 18.3734 27.2962 20.6935 25.9776 22.6668C24.6591 24.6402 22.7849 26.1783 20.5922 27.0866C18.3995 27.9948 15.9867 28.2324 13.6589 27.7694C11.3311 27.3064 9.19295 26.1635 7.51472 24.4853C5.83649 22.8071 4.6936 20.6689 4.23058 18.3411C3.76755 16.0133 4.00519 13.6005 4.91345 11.4078C5.8217 9.21509 7.35977 7.34094 9.33316 6.02237ZM21.426 11H24.647C23.3223 8.71747 21.1515 7.04893 18.605 6.356C19.7556 7.76609 20.705 9.32899 21.426 11ZM20.024 19C20.3314 18.0293 20.4918 17.0181 20.5 16C20.4918 14.9819 20.3314 13.9707 20.024 13H11.976C11.6687 13.9707 11.5082 14.9819 11.5 16C11.5082 17.0181 11.6687 18.0293 11.976 19H20.024ZM16 25.588C17.2882 24.2208 18.3732 22.6757 19.222 21H12.778C13.6262 22.676 14.7114 24.2212 16 25.588ZM16 6.412C14.7118 7.77916 13.6268 9.32427 12.778 11H19.222C18.3738 9.32396 17.2886 7.77877 16 6.412ZM10.574 11C11.2966 9.3287 12.2477 7.76578 13.4 6.356C10.8517 7.04775 8.67885 8.71643 7.353 11H10.574ZM9.9 13H6.461C5.84634 14.9528 5.84634 17.0472 6.461 19H9.9C9.64076 18.0209 9.50636 17.0129 9.5 16C9.50636 14.9871 9.64076 13.9791 9.9 13ZM10.574 21H7.353C8.67885 23.2836 10.8517 24.9522 13.4 25.644C12.2477 24.2342 11.2966 22.6713 10.574 21ZM21.426 21C20.705 22.671 19.7556 24.2339 18.605 25.644C21.1515 24.9511 23.3223 23.2825 24.647 21H21.426ZM22.1 19H25.537C26.1517 17.0472 26.1517 14.9528 25.537 13H22.1C22.3592 13.9791 22.4936 14.9871 22.5 16C22.4936 17.0129 22.3592 18.0209 22.1 19Z" fill="#69CF00"/>
</svg>
