<svg width="33" height="32" viewBox="0 0 33 32" fill="none" xmlns="http://www.w3.org/2000/svg">
<path fill-rule="evenodd" clip-rule="evenodd" d="M32.2812 16C32.2812 24.8366 25.1178 32 16.2812 32C7.44469 32 0.28125 24.8366 0.28125 16C0.28125 7.16344 7.44469 0 16.2812 0C25.1178 0 32.2812 7.16344 32.2812 16ZM10.9956 14.5343C9.39281 15.2341 7.74597 15.9532 6.24008 16.7826L6.23998 16.7828C5.45365 17.3585 6.49884 17.7657 7.47929 18.1476C7.63516 18.2084 7.7894 18.2685 7.93438 18.3285C8.05502 18.3656 8.17771 18.4047 8.30203 18.4443C9.39248 18.7917 10.6084 19.1791 11.667 18.5963C13.4061 17.5974 15.0472 16.4424 16.6871 15.2883C17.2244 14.9102 17.7616 14.5322 18.302 14.1598C18.3273 14.1436 18.3559 14.1251 18.3871 14.1048C18.8475 13.8064 19.8828 13.1353 19.4999 14.06C18.5942 15.0504 17.6242 15.9272 16.6489 16.8087C15.9916 17.4027 15.3319 17.999 14.6879 18.6336C14.127 19.0894 13.5445 20.0059 14.1726 20.644C15.6192 21.6567 17.0884 22.6449 18.5567 23.6324C19.0345 23.9538 19.5123 24.2752 19.9891 24.5972C20.7973 25.2425 22.0603 24.7206 22.2379 23.7123C22.317 23.2485 22.3963 22.7847 22.4756 22.3208C22.914 19.7577 23.3525 17.1938 23.7399 14.6223C23.7926 14.219 23.8523 13.8156 23.912 13.4121C24.0567 12.434 24.2016 11.4547 24.2469 10.4714C24.1302 9.49009 22.9404 9.70585 22.2782 9.92651C18.8748 11.2216 15.5053 12.6126 12.1492 14.0282C11.769 14.1967 11.3836 14.3649 10.9956 14.5343Z" fill="#69CF00"/>
</svg>
