<svg width="41" height="41" viewBox="0 0 41 41" fill="none" xmlns="http://www.w3.org/2000/svg">
<mask id="mask0_1588_15514" style="mask-type:alpha" maskUnits="userSpaceOnUse" x="0" y="0" width="41" height="41">
<rect x="0.244141" y="0.576172" width="40" height="40" fill="#D9D9D9"/>
</mask>
<g mask="url(#mask0_1588_15514)">
</g>
<g clip-path="url(#clip0_1588_15514)">
<path fill-rule="evenodd" clip-rule="evenodd" d="M20.247 31.1588C14.4098 31.1588 9.66113 26.4101 9.66113 20.573C9.66113 14.7409 14.4098 9.99219 20.247 9.99219C26.0791 9.99219 30.8278 14.7409 30.8278 20.573C30.8278 26.4101 26.0791 31.1588 20.247 31.1588Z" fill="#69CF00"/>
<path fill-rule="evenodd" clip-rule="evenodd" d="M12.1719 13.7388C12.4959 13.3591 12.8401 13.0098 13.2046 12.6807C13.9337 13.2427 14.931 14.0071 15.0778 14.1134C18.3583 16.3815 22.7881 16.2448 25.9218 13.7337C25.9522 13.7084 26.6104 13.0857 27.1571 12.5693C27.5419 12.8984 27.8962 13.2578 28.2304 13.6375C27.7646 14.078 27.3394 14.4779 27.2736 14.5336C23.507 17.8901 17.8825 18.1078 13.883 15.0854C13.6704 14.9285 12.8958 14.3159 12.1719 13.7388Z" fill="#E1FABB"/>
<path fill-rule="evenodd" clip-rule="evenodd" d="M13.2046 28.4704C12.8351 28.1413 12.4908 27.787 12.1719 27.4073C12.8958 26.8301 13.6704 26.2226 13.883 26.0657C17.8825 23.0383 23.507 23.256 27.2736 26.6124C27.3394 26.6681 27.7646 27.0731 28.2304 27.5085C27.9013 27.8882 27.5419 28.2477 27.1622 28.5767C26.6154 28.0654 25.9522 27.4427 25.9218 27.4174C22.7881 24.9013 18.3583 24.7646 15.0778 27.0326C14.931 27.139 13.9286 27.9034 13.2046 28.4704Z" fill="#E1FABB"/>
<path fill-rule="evenodd" clip-rule="evenodd" d="M17.7154 30.85C17.0978 30.6981 16.5054 30.4956 15.9334 30.2374C14.7437 27.3619 14.0146 23.6409 14.0146 20.5729C14.0146 17.505 14.7437 13.7891 15.9334 10.9085C16.5054 10.6553 17.0978 10.4478 17.7154 10.2959C16.3991 13.0297 15.503 17.4139 15.503 20.5729C15.503 23.737 16.3991 28.1162 17.7154 30.85ZM22.7729 10.2959C23.3905 10.4478 23.9829 10.6553 24.5549 10.9085C25.7446 13.7891 26.4737 17.505 26.4737 20.5729C26.4737 23.6409 25.7446 27.3619 24.5549 30.2374C23.9829 30.4956 23.3905 30.6981 22.7729 30.85C24.0942 28.1162 24.9853 23.737 24.9853 20.5729C24.9853 17.4139 24.0942 13.0297 22.7729 10.2959Z" fill="#E1FABB"/>
<path fill-rule="evenodd" clip-rule="evenodd" d="M20.2471 31.1591C19.994 31.1591 19.7459 31.149 19.5029 31.1287V10.0178C20.0041 9.98235 20.4851 9.98235 20.9913 10.0178V31.1287C20.7433 31.149 20.4952 31.1591 20.2471 31.1591Z" fill="#E1FABB"/>
<path fill-rule="evenodd" clip-rule="evenodd" d="M9.69131 21.3224C9.65587 20.8161 9.65587 20.3402 9.68625 19.834H30.8023C30.8377 20.3402 30.8377 20.8161 30.8023 21.3224H9.69131Z" fill="#E1FABB"/>
<path fill-rule="evenodd" clip-rule="evenodd" d="M25.9169 34.7739H14.5716C14.2932 34.7739 14.0401 34.6372 13.9034 34.3892C13.6199 33.8779 13.954 33.2248 14.5716 33.2248H25.9169C26.2004 33.2248 26.4484 33.3615 26.5851 33.6095C26.8686 34.1209 26.5345 34.7739 25.9169 34.7739ZM11.4581 32.9767C11.1797 32.9767 10.9266 32.8299 10.7848 32.5869L5.11473 22.7604C4.97297 22.5174 4.96285 22.2339 5.10966 21.9909C5.41342 21.4897 6.14243 21.4543 6.45125 21.9909L12.1264 31.8123C12.42 32.3287 12.0505 32.9767 11.4581 32.9767ZM29.0354 32.9767C28.4431 32.9767 28.0685 32.3287 28.3621 31.8123L34.0372 21.9909C34.179 21.7479 34.4169 21.596 34.7004 21.6011C35.2877 21.6112 35.6826 22.2289 35.3738 22.7604L29.7037 32.5869C29.567 32.8299 29.3088 32.9767 29.0354 32.9767ZM34.7055 19.5508C34.4321 19.5508 34.1739 19.4039 34.0372 19.166L28.3621 9.33954C28.2254 9.09653 28.2153 8.81303 28.3621 8.57003C28.6608 8.06377 29.3949 8.02833 29.7037 8.56496L35.3738 18.3914C35.6725 18.9028 35.2978 19.5508 34.7055 19.5508ZM5.78299 19.5508C5.19066 19.5508 4.81603 18.9028 5.11473 18.3914L10.7848 8.56496C10.9266 8.32196 11.1696 8.17008 11.4531 8.17515C12.0353 8.18527 12.4352 8.80291 12.1264 9.33954L6.45125 19.166C6.31456 19.4039 6.05636 19.5508 5.78299 19.5508ZM25.9169 7.92708H14.5716C14.2932 7.92708 14.0401 7.79039 13.9034 7.54232C13.6199 7.031 13.954 6.37793 14.5716 6.37793H25.9169C26.2004 6.37793 26.4484 6.51462 26.5851 6.76269C26.8686 7.27401 26.5345 7.92708 25.9169 7.92708Z" fill="#FFE500"/>
<path fill-rule="evenodd" clip-rule="evenodd" d="M12.4963 5.49707C11.58 5.49707 10.8408 6.24127 10.8408 7.15253C10.8408 8.0638 11.58 8.808 12.4963 8.808C13.4075 8.808 14.1517 8.0638 14.1517 7.15253C14.1517 6.24127 13.4075 5.49707 12.4963 5.49707Z" fill="black"/>
<path fill-rule="evenodd" clip-rule="evenodd" d="M12.496 9.65319C11.1139 9.65319 9.99512 8.5293 9.99512 7.15228C9.99512 5.77526 11.1139 4.65137 12.496 4.65137C13.8731 4.65137 14.9919 5.77526 14.9919 7.15228C14.9919 8.5293 13.8731 9.65319 12.496 9.65319Z" fill="#E1FABB"/>
<path fill-rule="evenodd" clip-rule="evenodd" d="M27.9924 5.49707C27.0811 5.49707 26.3369 6.24127 26.3369 7.15253C26.3369 8.0638 27.0811 8.808 27.9924 8.808C28.9087 8.808 29.6478 8.0638 29.6478 7.15253C29.6478 6.24127 28.9087 5.49707 27.9924 5.49707Z" fill="black"/>
<path fill-rule="evenodd" clip-rule="evenodd" d="M27.9919 9.65319C26.6149 9.65319 25.4961 8.5293 25.4961 7.15228C25.4961 5.77526 26.6149 4.65137 27.9919 4.65137C29.374 4.65137 30.4929 5.77526 30.4929 7.15228C30.4929 8.5293 29.374 9.65319 27.9919 9.65319Z" fill="#E1FABB"/>
<path fill-rule="evenodd" clip-rule="evenodd" d="M35.7434 18.9229C34.8321 18.9229 34.0879 19.662 34.0879 20.5783C34.0879 21.4896 34.8321 22.2338 35.7434 22.2338C36.6597 22.2338 37.3988 21.4896 37.3988 20.5783C37.3988 19.662 36.6597 18.9229 35.7434 18.9229Z" fill="black"/>
<path fill-rule="evenodd" clip-rule="evenodd" d="M35.7429 23.0739C34.3659 23.0739 33.2471 21.9551 33.2471 20.5781C33.2471 19.196 34.3659 18.0771 35.7429 18.0771C37.1199 18.0771 38.2438 19.196 38.2438 20.5781C38.2438 21.9551 37.1199 23.0739 35.7429 23.0739Z" fill="#E1FABB"/>
<path fill-rule="evenodd" clip-rule="evenodd" d="M27.9924 32.3438C27.0811 32.3438 26.3369 33.0879 26.3369 33.9992C26.3369 34.9105 27.0811 35.6547 27.9924 35.6547C28.9087 35.6547 29.6478 34.9105 29.6478 33.9992C29.6478 33.0879 28.9087 32.3438 27.9924 32.3438Z" fill="black"/>
<path fill-rule="evenodd" clip-rule="evenodd" d="M27.9919 36.4997C26.6149 36.4997 25.4961 35.3758 25.4961 33.9988C25.4961 32.6218 26.6149 31.5029 27.9919 31.5029C29.374 31.5029 30.4929 32.6218 30.4929 33.9988C30.4929 35.3758 29.374 36.4997 27.9919 36.4997Z" fill="#E1FABB"/>
<path fill-rule="evenodd" clip-rule="evenodd" d="M12.4963 32.3438C11.58 32.3438 10.8408 33.0879 10.8408 33.9992C10.8408 34.9105 11.58 35.6547 12.4963 35.6547C13.4075 35.6547 14.1517 34.9105 14.1517 33.9992C14.1517 33.0879 13.4075 32.3438 12.4963 32.3438Z" fill="black"/>
<path fill-rule="evenodd" clip-rule="evenodd" d="M12.496 36.4997C11.1139 36.4997 9.99512 35.3758 9.99512 33.9988C9.99512 32.6218 11.1139 31.5029 12.496 31.5029C13.8731 31.5029 14.9919 32.6218 14.9919 33.9988C14.9919 35.3758 13.8731 36.4997 12.496 36.4997Z" fill="#E1FABB"/>
<path fill-rule="evenodd" clip-rule="evenodd" d="M4.74531 18.9229C3.83404 18.9229 3.08984 19.662 3.08984 20.5783C3.08984 21.4896 3.83404 22.2338 4.74531 22.2338C5.65657 22.2338 6.40077 21.4896 6.40077 20.5783C6.40077 19.662 5.65657 18.9229 4.74531 18.9229Z" fill="black"/>
<path fill-rule="evenodd" clip-rule="evenodd" d="M4.74505 23.0739C3.36803 23.0739 2.24414 21.9551 2.24414 20.5781C2.24414 19.196 3.36803 18.0771 4.74505 18.0771C6.12208 18.0771 7.24091 19.196 7.24091 20.5781C7.24091 21.9551 6.12208 23.0739 4.74505 23.0739Z" fill="#E1FABB"/>
</g>
<defs>
<clipPath id="clip0_1588_15514">
<rect width="36" height="36" fill="white" transform="translate(2.24414 2.57617)"/>
</clipPath>
</defs>
</svg>
