<svg width="33" height="32" viewBox="0 0 33 32" fill="none" xmlns="http://www.w3.org/2000/svg">
<path fill-rule="evenodd" clip-rule="evenodd" d="M16.2812 0C7.44469 0 0.28125 7.16344 0.28125 16C0.28125 24.8366 7.44469 32 16.2812 32C25.1178 32 32.2812 24.8366 32.2812 16C32.2812 7.16344 25.1178 0 16.2812 0ZM7.96232 13.2518H11.5883V24.1463H7.96232V13.2518ZM11.8271 9.8818C11.8036 8.8136 11.0397 8 9.79928 8C8.55886 8 7.74792 8.8136 7.74792 9.8818C7.74792 10.9279 8.5349 11.7649 9.75221 11.7649H9.77538C11.0397 11.7649 11.8271 10.9279 11.8271 9.8818ZM20.49 12.9961C22.8761 12.9961 24.6648 14.5535 24.6648 17.8998L24.6647 24.1464H21.0389V18.3178C21.0389 16.8538 20.5142 15.8548 19.2016 15.8548C18.1998 15.8548 17.6032 16.5283 17.3411 17.1788C17.2452 17.4119 17.2217 17.7367 17.2217 18.0623V24.1467H13.5953C13.5953 24.1467 13.6431 14.2745 13.5953 13.2522H17.2217V14.7953C17.7029 14.0535 18.5649 12.9961 20.49 12.9961Z" fill="#69CF00"/>
</svg>
