<svg width="33" height="32" viewBox="0 0 33 32" fill="none" xmlns="http://www.w3.org/2000/svg">
<path fill-rule="evenodd" clip-rule="evenodd" d="M16.2812 0C7.44469 0 0.28125 7.16344 0.28125 16C0.28125 24.8366 7.44469 32 16.2812 32C25.1178 32 32.2812 24.8366 32.2812 16C32.2812 7.16344 25.1178 0 16.2812 0ZM22.949 10.4996C23.6833 10.7011 24.2617 11.2948 24.4579 12.0488C24.8146 13.4154 24.8146 16.2667 24.8146 16.2667C24.8146 16.2667 24.8146 19.1179 24.4579 20.4845C24.2617 21.2385 23.6833 21.8323 22.949 22.0339C21.6182 22.4 16.2812 22.4 16.2812 22.4C16.2812 22.4 10.9443 22.4 9.61342 22.0339C8.87907 21.8323 8.30074 21.2385 8.10447 20.4845C7.74792 19.1179 7.74792 16.2667 7.74792 16.2667C7.74792 16.2667 7.74792 13.4154 8.10447 12.0488C8.30074 11.2948 8.87907 10.7011 9.61342 10.4996C10.9443 10.1333 16.2812 10.1333 16.2812 10.1333C16.2812 10.1333 21.6182 10.1333 22.949 10.4996Z" fill="#69CF00"/>
<path d="M14.6816 19.2V13.8667L18.9483 16.5335L14.6816 19.2Z" fill="#69CF00"/>
</svg>
