<svg width="33" height="32" viewBox="0 0 33 32" fill="none" xmlns="http://www.w3.org/2000/svg">
<g clip-path="url(#clip0_1413_11377)">
<path d="M32.2812 16C32.2812 7.1625 25.1187 0 16.2812 0C7.44375 0 0.28125 7.1625 0.28125 16C0.28125 23.9875 6.13125 30.6063 13.7812 31.8062V20.625H9.71875V16H13.7812V12.475C13.7812 8.46563 16.1688 6.25 19.825 6.25C21.575 6.25 23.4062 6.5625 23.4062 6.5625V10.5H21.3875C19.4 10.5 18.7812 11.7344 18.7812 13V16H23.2188L22.5094 20.625H18.7812V31.8062C26.4313 30.6063 32.2812 23.9875 32.2812 16Z" fill="#69CF00"/>
</g>
<defs>
<clipPath id="clip0_1413_11377">
<rect width="32" height="32" fill="white" transform="translate(0.28125)"/>
</clipPath>
</defs>
</svg>
