<svg width="41" height="41" viewBox="0 0 41 41" fill="none" xmlns="http://www.w3.org/2000/svg">
<path d="M28.8346 13.1221H12.168C11.5052 13.1228 10.8697 13.3865 10.401 13.8551C9.93235 14.3238 9.66872 14.9593 9.66797 15.6221V16.4554H31.3346V15.6221C31.3339 14.9593 31.0703 14.3238 30.6016 13.8551C30.1329 13.3865 29.4974 13.1228 28.8346 13.1221Z" fill="#FE5300"/>
<path d="M20.5013 2.28857C16.8753 2.28857 13.3308 3.36381 10.3159 5.3783C7.30095 7.39279 4.95113 10.2561 3.56352 13.606C2.17591 16.956 1.81285 20.6422 2.52025 24.1986C3.22764 27.7549 4.97372 31.0216 7.53769 33.5855C10.1016 36.1495 13.3683 37.8956 16.9247 38.603C20.481 39.3104 24.1672 38.9473 27.5172 37.5597C30.8672 36.1721 33.7304 33.8223 35.7449 30.8074C37.7594 27.7925 38.8346 24.2479 38.8346 20.6219C38.8346 15.7596 36.9031 11.0965 33.4649 7.65828C30.0268 4.22012 25.3636 2.28857 20.5013 2.28857ZM31.0905 28.3661C31.1701 28.4429 31.2336 28.5349 31.2772 28.6366C31.3209 28.7382 31.3439 28.8476 31.3449 28.9582C31.3458 29.0689 31.3247 29.1786 31.2828 29.281C31.2409 29.3834 31.1791 29.4765 31.1008 29.5547C31.0226 29.633 30.9295 29.6949 30.8271 29.7368C30.7247 29.7787 30.615 29.7997 30.5043 29.7988C30.3937 29.7978 30.2843 29.7748 30.1826 29.7312C30.081 29.6875 29.989 29.624 29.9121 29.5444L28.0013 27.6336L26.0905 29.5444C25.9333 29.6962 25.7228 29.7802 25.5043 29.7783C25.2858 29.7764 25.0768 29.6888 24.9223 29.5343C24.7678 29.3798 24.6801 29.1707 24.6782 28.9522C24.6763 28.7337 24.7603 28.5232 24.9121 28.3661L26.823 26.4552L24.9121 24.5444C24.7603 24.3872 24.6763 24.1767 24.6782 23.9582C24.6801 23.7397 24.7678 23.5307 24.9223 23.3762C25.0768 23.2217 25.2858 23.1341 25.5043 23.1322C25.7228 23.1303 25.9333 23.2143 26.0905 23.3661L28.0013 25.2769L29.9121 23.3661C30.0693 23.2143 30.2798 23.1303 30.4983 23.1322C30.7168 23.1341 30.9258 23.2217 31.0803 23.3762C31.2348 23.5307 31.3225 23.7397 31.3244 23.9582C31.3263 24.1767 31.2423 24.3872 31.0905 24.5444L29.1796 26.4552L31.0905 28.3661ZM33.0013 20.6219C33.0013 20.8429 32.9135 21.0549 32.7572 21.2112C32.601 21.3674 32.389 21.4552 32.168 21.4552C31.947 21.4552 31.735 21.3674 31.5787 21.2112C31.4224 21.0549 31.3346 20.8429 31.3346 20.6219V18.1219H9.66798V25.6219C9.66873 26.2847 9.93236 26.9202 10.401 27.3888C10.8697 27.8575 11.5052 28.1212 12.168 28.1219H20.5013C20.7223 28.1219 20.9343 28.2097 21.0906 28.366C21.2468 28.5223 21.3346 28.7342 21.3346 28.9552C21.3346 29.1763 21.2468 29.3882 21.0906 29.5445C20.9343 29.7008 20.7223 29.7886 20.5013 29.7886H12.168C11.0633 29.7874 10.0041 29.3481 9.22297 28.5669C8.44181 27.7858 8.00246 26.7266 8.00131 25.6219V15.6219C8.00246 14.5172 8.44181 13.458 9.22297 12.6769C10.0041 11.8957 11.0633 11.4564 12.168 11.4552H28.8346C29.9394 11.4564 30.9985 11.8957 31.7797 12.6769C32.5608 13.458 33.0002 14.5172 33.0013 15.6219V20.6219Z" fill="#FE5300"/>
</svg>
