<svg width="33" height="32" viewBox="0 0 33 32" fill="none" xmlns="http://www.w3.org/2000/svg">
<path fill-rule="evenodd" clip-rule="evenodd" d="M32.2812 16C32.2812 24.8366 25.1178 32 16.2812 32C7.44469 32 0.28125 24.8366 0.28125 16C0.28125 7.16344 7.44469 0 16.2812 0C25.1178 0 32.2812 7.16344 32.2812 16ZM7.8754 10.156C8.07095 10.3364 8.17081 10.6013 8.14431 10.8693V20.5193C8.20233 20.8674 8.09511 21.223 7.85548 21.4772L5.61458 24.2591V24.6259H11.9688V24.2591L9.72787 21.4772C9.48649 21.2234 9.37263 20.8702 9.41913 20.5193V12.1736L14.9965 24.6259H15.6438L20.4344 12.1736V22.0988C20.4344 22.3637 20.4344 22.4147 20.2651 22.5879L18.5421 24.2998V24.6667H26.9081V24.2998L25.2448 22.6287C25.098 22.5141 25.0252 22.3259 25.0556 22.1395V9.86047C25.0252 9.67415 25.098 9.48589 25.2448 9.37135L26.9479 7.70018V7.33333H21.0519L16.8489 18.0635L12.0684 7.33333H5.88349V7.70018L7.8754 10.156Z" fill="#69CF00"/>
</svg>
