<svg width="38" height="40" viewBox="0 0 38 40" fill="none" xmlns="http://www.w3.org/2000/svg">
<g clip-path="url(#clip0_1413_12528)">
<path d="M29.7643 32.1402V19.5624L18.8714 13.2734L7.97656 19.5624V32.1402L18.8714 38.4291L29.7643 32.1402Z" fill="#8CD41F"/>
<path d="M31.1235 32.9256L28.4026 31.3547L18.8711 36.8582V39.9999L31.1235 32.9256Z" fill="#00A979"/>
<path d="M23.9613 30.6256C26.5976 27.9892 26.5976 23.7149 23.9613 21.0785C21.3249 18.4421 17.0505 18.4421 14.4142 21.0785C11.7778 23.7149 11.7778 27.9892 14.4142 30.6256C17.0505 33.262 21.3249 33.262 23.9613 30.6256Z" fill="#00A979"/>
<path d="M19.1858 19.1005C18.9651 19.1005 18.7463 19.1117 18.5312 19.1323C21.9534 19.4614 24.6276 22.3431 24.6276 25.8513C24.6276 29.3595 21.9515 32.2412 18.5312 32.5703C18.7463 32.5909 18.9651 32.6021 19.1858 32.6021C22.9146 32.6021 25.9366 29.5802 25.9366 25.8495C25.9366 22.1187 22.9146 19.0986 19.1858 19.0986V19.1005Z" fill="#514769"/>
<path d="M6.61719 32.9258L9.33808 31.355L18.8715 36.8585V40.0001L6.61719 32.9258Z" fill="#AAF4DB"/>
<path d="M9.33594 31.3548L18.8694 36.8583L28.4028 31.3548V20.3477L18.8694 14.8442L9.33594 20.3477V31.3548Z" stroke="#F8FFE1" stroke-miterlimit="10"/>
<path d="M5.99311 31.1307H6.36712V21.313H4.87109L5.99311 31.1307Z" fill="#433959"/>
<path d="M20.2362 22.2178V30.0719H18.4185V23.6764H16.8477V22.2178H20.2362Z" fill="#F8FFE1"/>
<g clip-path="url(#clip1_1413_12528)">
<path d="M24.492 2.83965C24.0818 2.83965 23.7484 3.17313 23.7484 3.58327C23.7484 3.68101 23.7675 3.773 23.802 3.85733L20.6685 4.62011L18.9877 1.7089C19.21 1.58049 19.3614 1.34284 19.3614 1.06686C19.3614 0.656719 19.0279 0.323242 18.6178 0.323242C18.2077 0.323242 17.8742 0.656719 17.8742 1.06686C17.8742 1.34284 18.0256 1.58049 18.2479 1.7089L16.5671 4.62011L13.4336 3.85733C13.4681 3.773 13.4872 3.67909 13.4872 3.58327C13.4872 3.17313 13.1538 2.83965 12.7436 2.83965C12.3335 2.83965 12 3.17313 12 3.58327C12 3.99341 12.3335 4.32688 12.7436 4.32688C12.8088 4.32688 12.8701 4.31538 12.9295 4.30005L14.5145 9.48619H22.7211L24.3061 4.30005C24.3655 4.31538 24.4268 4.32688 24.492 4.32688C24.9021 4.32688 25.2356 3.99341 25.2356 3.58327C25.2356 3.17313 24.9021 2.83965 24.492 2.83965Z" fill="#9A408F"/>
<path d="M18.6211 1.71094V9.48632H22.7244L24.3094 4.30209L23.8072 3.85937L20.6737 4.62215L18.9929 1.71094H18.6211Z" fill="#D064A5"/>
<path d="M18.6191 6.60571C15.9628 6.60571 13.8086 7.05227 13.8086 7.60423V11.5082H23.4296V7.60423C23.4296 7.05227 21.2754 6.60571 18.6191 6.60571Z" fill="#9A408F"/>
<path d="M18.6191 12.5068C21.2759 12.5068 23.4296 12.0597 23.4296 11.5083C23.4296 10.9568 21.2759 10.5098 18.6191 10.5098C15.9623 10.5098 13.8086 10.9568 13.8086 11.5083C13.8086 12.0597 15.9623 12.5068 18.6191 12.5068Z" fill="#433959"/>
<path d="M23.5942 8.02208C23.4984 8.02208 23.4026 7.98949 23.324 7.92242C23.2952 7.89942 22.1568 7.02356 18.5997 7.02356C15.0426 7.02356 13.8736 7.92433 13.8621 7.93392C13.68 8.07382 13.4174 8.04124 13.2775 7.86109C13.1357 7.68093 13.1644 7.4222 13.3427 7.27846C13.3983 7.23438 14.7456 6.18604 18.6017 6.18604C22.4577 6.18604 23.7456 7.17688 23.874 7.28996C24.0484 7.44328 24.0657 7.70585 23.9124 7.88025C23.83 7.97416 23.713 8.02208 23.5981 8.02208H23.5942Z" fill="#FF6F89"/>
<path d="M20.0864 7.0811C20.9853 7.15393 21.6599 7.28808 22.1563 7.42799C22.4246 7.50465 22.691 7.30533 22.691 7.02552V7.02168C22.691 6.83195 22.5645 6.66904 22.3824 6.6173C21.8324 6.46206 21.1041 6.32215 20.1554 6.2474C19.912 6.22824 19.7031 6.42181 19.7031 6.66521C19.7031 6.88369 19.8718 7.06385 20.0883 7.08301L20.0864 7.0811Z" fill="#F8FFE1"/>
<path d="M23.5942 11.5655C23.4984 11.5655 23.4026 11.533 23.324 11.4659C23.2952 11.4429 22.1568 10.567 18.5997 10.567C15.0426 10.567 13.8736 11.4678 13.8621 11.4774C13.68 11.6173 13.4174 11.5847 13.2775 11.4045C13.1357 11.2244 13.1644 10.9657 13.3427 10.8219C13.3983 10.7778 14.7456 9.72949 18.6017 9.72949C22.4577 9.72949 23.7456 10.7203 23.874 10.8334C24.0484 10.9867 24.0657 11.2493 23.9124 11.4237C23.83 11.5176 23.713 11.5655 23.5981 11.5655H23.5942Z" fill="#FF6F89"/>
<path d="M20.0864 10.6246C20.9853 10.6974 21.6599 10.8315 22.1563 10.9714C22.4246 11.0481 22.691 10.8488 22.691 10.569V10.5651C22.691 10.3754 22.5645 10.2125 22.3824 10.1608C21.8324 10.0055 21.1041 9.86561 20.1554 9.79086C19.912 9.7717 19.7031 9.96527 19.7031 10.2087C19.7031 10.4272 19.8718 10.6073 20.0883 10.6265L20.0864 10.6246Z" fill="#F8FFE1"/>
<path d="M17.875 8.51066C17.875 8.11202 18.197 7.79004 18.5956 7.79004C18.9943 7.79004 19.3162 8.11202 19.3162 8.51066C19.3162 8.90929 18.9943 9.23127 18.5956 9.23127C18.197 9.23127 17.875 8.90929 17.875 8.51066Z" fill="#FF6F89"/>
<path d="M13.0898 9.23136C13.0898 8.83272 13.4118 8.51074 13.8105 8.51074C14.2091 8.51074 14.5311 8.83272 14.5311 9.23136C14.5311 9.63 14.2091 9.95198 13.8105 9.95198C13.4118 9.95198 13.0898 9.63 13.0898 9.23136Z" fill="#FF6F89"/>
<path d="M22.7109 9.23136C22.7109 8.83272 23.0329 8.51074 23.4316 8.51074C23.8302 8.51074 24.1522 8.83272 24.1522 9.23136C24.1522 9.63 23.8302 9.95198 23.4316 9.95198C23.0329 9.95198 22.7109 9.63 22.7109 9.23136Z" fill="#FF6F89"/>
<path d="M29.7612 32.27V19.3774L18.5974 12.9321L7.43359 19.3774V32.27L18.5974 38.7153L29.7612 32.27Z" fill="#D064A5"/>
<path d="M18.5981 40.3252L6.03906 33.0749V18.5725L18.5981 11.3223L31.1572 18.5725V33.073L18.5981 40.3233V40.3252ZM8.82762 31.4631L18.5981 37.1035L28.3686 31.4631V20.1824L18.5981 14.542L8.82762 20.1824V31.4631Z" fill="#D064A5"/>
<path d="M18.5981 11.3223V14.542L8.82762 20.1824L6.03906 18.5725L18.5981 11.3223Z" fill="#9A408F"/>
<path d="M31.1548 33.0752L28.3662 31.4634L18.5977 37.1057V40.3254L31.1548 33.0752Z" fill="#9A408F"/>
<path d="M21.6276 32.1937C25.1452 30.6985 26.7845 26.6348 25.2893 23.1173C23.794 19.5997 19.7303 17.9604 16.2128 19.4557C12.6953 20.9509 11.0559 25.0146 12.5512 28.5321C14.0465 32.0496 18.1101 33.689 21.6276 32.1937Z" fill="#9A408F"/>
<path d="M18.9208 18.9043C18.6946 18.9043 18.4704 18.9158 18.25 18.9369C21.7573 19.2742 24.4979 22.2276 24.4979 25.823C24.4979 29.4184 21.7553 32.3718 18.25 32.7091C18.4704 32.7302 18.6946 32.7417 18.9208 32.7417C22.7424 32.7417 25.8395 29.6446 25.8395 25.823C25.8395 22.0014 22.7424 18.9043 18.9208 18.9043Z" fill="#433959"/>
<path d="M6.03906 33.0749L8.82762 31.4631L18.5981 37.1054V40.3252L6.03906 33.0749Z" fill="#FF6F89"/>
<path d="M18.5977 11.3223V14.542L28.3662 20.1824L31.1548 18.5725L18.5977 11.3223Z" fill="#FF6F89"/>
<path d="M8.82812 31.4631L18.5986 37.1034L28.3691 31.4631V20.1824L18.5986 14.542L8.82812 20.1824V31.4631Z" stroke="#F8FFE1" stroke-width="0.5" stroke-miterlimit="10"/>
<path d="M13.4336 3.85938L15.9941 5.70116L16.5671 4.62216L13.4336 3.85938Z" fill="#D064A5"/>
<path d="M21.4634 5.70116L20.6719 4.62216L23.8054 3.85938L21.4634 5.70116Z" fill="#9A408F"/>
<path d="M7.92221 11.6962L7.63281 11.8112L7.92221 11.9262C8.80956 12.2769 9.51293 12.9784 9.86174 13.8657L9.97673 14.1551L10.0917 13.8657C10.4425 12.9784 11.1439 12.275 12.0313 11.9262L12.3207 11.8112L12.0313 11.6962C11.1439 11.3455 10.4405 10.644 10.0917 9.75668L9.97673 9.46729L9.86174 9.75668C9.51102 10.644 8.80956 11.3474 7.92221 11.6962Z" fill="#D064A5"/>
<path d="M25.1683 11.6962L24.8789 11.8112L25.1683 11.9262C26.0557 12.2769 26.759 12.9784 27.1078 13.8657L27.2228 14.1551L27.3378 13.8657C27.6885 12.9784 28.39 12.275 29.2774 11.9262L29.5668 11.8112L29.2774 11.6962C28.39 11.3455 27.6866 10.644 27.3378 9.75668L27.2228 9.46729L27.1078 9.75668C26.7571 10.644 26.0557 11.3474 25.1683 11.6962Z" fill="#D064A5"/>
<path d="M21.365 25.2534C21.7407 25.6636 21.9285 26.1715 21.9285 26.7771C21.9285 27.2447 21.8058 27.6759 21.5605 28.0708C21.3152 28.4656 20.9415 28.7818 20.4393 29.0194C19.9372 29.2571 19.322 29.3759 18.5937 29.3759C18.0264 29.3759 17.4687 29.3012 16.9206 29.1517C16.3725 29.0022 15.9067 28.7895 15.5234 28.5135L16.2479 27.0876C16.5545 27.3176 16.9091 27.4958 17.3116 27.6223C17.714 27.7488 18.1261 27.812 18.5477 27.812C19.0154 27.812 19.3833 27.7219 19.6517 27.5418C19.92 27.3616 20.0541 27.1067 20.0541 26.7771C20.0541 26.1178 19.552 25.7882 18.5477 25.7882H17.6968V24.5577L19.3527 22.6834H15.9259V21.1885H21.5605V22.3959L19.7436 24.4658C20.4489 24.5807 20.9894 24.8433 21.365 25.2534Z" fill="#F8FFE1"/>
</g>
</g>
<defs>
<clipPath id="clip0_1413_12528">
<rect width="37.4493" height="40" fill="white" transform="translate(0.101562)"/>
</clipPath>
<clipPath id="clip1_1413_12528">
<rect width="25.1162" height="40" fill="white" transform="translate(6.03906 0.325195)"/>
</clipPath>
</defs>
</svg>
