<svg width="20" height="21" viewBox="0 0 20 21" fill="none" xmlns="http://www.w3.org/2000/svg">
<g clip-path="url(#clip0_2578_8208)">
<path d="M10.697 0.0431891C9.26832 -0.0567767 7.83481 0.15131 6.4935 0.65337C5.15219 1.15543 3.93437 1.93975 2.92244 2.95325C1.91052 3.96676 1.1281 5.1858 0.628136 6.52789C0.12817 7.86998 -0.07768 9.30381 0.0245151 10.7324C0.392015 16.0265 5.06868 20.0199 10.9029 20.0199H15.8337C16.9383 20.0185 17.9974 19.5791 18.7785 18.798C19.5596 18.0169 19.999 16.9579 20.0004 15.8532V10.3032C20.0314 7.73439 19.0896 5.24893 17.364 3.34583C15.6383 1.44273 13.2566 0.262887 10.697 0.0431891ZM15.5837 8.11319L9.92285 13.7024C9.61047 14.0135 9.18752 14.1883 8.7466 14.1883C8.30568 14.1883 7.88272 14.0135 7.57035 13.7024L4.41702 10.6157C4.25899 10.461 4.1689 10.2498 4.16655 10.0287C4.16421 9.80756 4.24981 9.59455 4.40452 9.43652C4.55923 9.2785 4.77037 9.1884 4.99151 9.18606C5.21265 9.18372 5.42566 9.26931 5.58368 9.42402L8.74452 12.5132L14.4162 6.92986C14.5761 6.78913 14.7839 6.715 14.9968 6.7227C15.2097 6.7304 15.4116 6.81934 15.5609 6.97126C15.7103 7.12318 15.7958 7.32652 15.7998 7.53952C15.8039 7.75252 15.7263 7.959 15.5829 8.11652L15.5837 8.11319Z" fill="#8EF102"/>
</g>
<defs>
<clipPath id="clip0_2578_8208">
<rect width="20" height="20" fill="white" transform="translate(0 0.0200195)"/>
</clipPath>
</defs>
</svg>
