<svg width="38" height="40" viewBox="0 0 38 40" fill="none" xmlns="http://www.w3.org/2000/svg">
<g clip-path="url(#clip0_1413_12494)">
<path d="M29.7643 32.1402V19.5624L18.8714 13.2734L7.97656 19.5624V32.1402L18.8714 38.4291L29.7643 32.1402Z" fill="#8CD41F"/>
<path d="M31.1235 32.9256L28.4026 31.3547L18.8711 36.8582V39.9999L31.1235 32.9256Z" fill="#00A979"/>
<path d="M23.9613 30.6256C26.5976 27.9892 26.5976 23.7149 23.9613 21.0785C21.3249 18.4421 17.0505 18.4421 14.4142 21.0785C11.7778 23.7149 11.7778 27.9892 14.4142 30.6256C17.0505 33.262 21.3249 33.262 23.9613 30.6256Z" fill="#00A979"/>
<path d="M19.1858 19.1005C18.9651 19.1005 18.7463 19.1117 18.5312 19.1323C21.9534 19.4614 24.6276 22.3431 24.6276 25.8513C24.6276 29.3595 21.9515 32.2412 18.5312 32.5703C18.7463 32.5909 18.9651 32.6021 19.1858 32.6021C22.9146 32.6021 25.9366 29.5802 25.9366 25.8495C25.9366 22.1187 22.9146 19.0986 19.1858 19.0986V19.1005Z" fill="#514769"/>
<path d="M6.61719 32.9258L9.33808 31.355L18.8715 36.8585V40.0001L6.61719 32.9258Z" fill="#AAF4DB"/>
<path d="M9.33594 31.3548L18.8694 36.8583L28.4028 31.3548V20.3477L18.8694 14.8442L9.33594 20.3477V31.3548Z" stroke="#F8FFE1" stroke-miterlimit="10"/>
<path d="M5.99311 31.1307H6.36712V21.313H4.87109L5.99311 31.1307Z" fill="#433959"/>
<path d="M20.2362 22.2178V30.0719H18.4185V23.6764H16.8477V22.2178H20.2362Z" fill="#F8FFE1"/>
<g clip-path="url(#clip1_1413_12494)">
<path d="M23.0468 3.47331L22.3092 1.22466L20.5063 2.42394L19.1191 0.325195L17.7339 2.42394L15.931 1.22466L15.1935 3.47331L13.2227 2.87367L14.4559 7.1451H19.1191H23.7843L25.0176 2.87367L23.0468 3.47331Z" fill="#36759A"/>
<path d="M19.1186 5.1582C16.3482 5.1582 14.1016 5.62392 14.1016 6.19958V10.2711H24.1355V6.20158C24.1355 5.62592 21.8889 5.1602 19.1186 5.1602V5.1582Z" fill="#36759A"/>
<path d="M19.1186 11.3147C21.8894 11.3147 24.1355 10.8484 24.1355 10.2733C24.1355 9.69817 21.8894 9.23193 19.1186 9.23193C16.3477 9.23193 14.1016 9.69817 14.1016 10.2733C14.1016 10.8484 16.3477 11.3147 19.1186 11.3147Z" fill="#323D5D"/>
<path d="M24.3066 6.63751C24.2066 6.63751 24.1067 6.60353 24.0247 6.53357C23.9947 6.50958 22.8074 5.59613 19.0977 5.59613C15.3879 5.59613 14.1686 6.53557 14.1566 6.54556C13.9668 6.69148 13.6929 6.6575 13.547 6.46961C13.3991 6.28172 13.4291 6.01188 13.615 5.86197C13.6729 5.816 15.0781 4.72266 19.0997 4.72266C23.1213 4.72266 24.4645 5.75604 24.5984 5.87397C24.7803 6.03387 24.7983 6.30771 24.6384 6.4896C24.5524 6.58754 24.4305 6.63751 24.3105 6.63751H24.3066Z" fill="#55AAD0"/>
<path d="M20.6498 5.656C21.5872 5.73196 22.2908 5.87187 22.8085 6.01778C23.0883 6.09774 23.3661 5.88986 23.3661 5.59804V5.59404C23.3661 5.39616 23.2342 5.22626 23.0443 5.17229C22.4707 5.01039 21.7111 4.86448 20.7217 4.78652C20.4679 4.76653 20.25 4.96841 20.25 5.22226C20.25 5.45012 20.4259 5.63801 20.6518 5.658L20.6498 5.656Z" fill="#F6FEE1"/>
<path d="M24.3066 10.3333C24.2066 10.3333 24.1067 10.2993 24.0247 10.2294C23.9947 10.2054 22.8074 9.29193 19.0977 9.29193C15.3879 9.29193 14.1686 10.2314 14.1566 10.2414C13.9668 10.3873 13.6929 10.3533 13.547 10.1654C13.3991 9.97752 13.4291 9.70768 13.615 9.55777C13.6729 9.5118 15.0781 8.41846 19.0997 8.41846C23.1213 8.41846 24.4645 9.45184 24.5984 9.56977C24.7803 9.72967 24.7983 10.0035 24.6384 10.1854C24.5524 10.2833 24.4305 10.3333 24.3105 10.3333H24.3066Z" fill="#55AAD0"/>
<path d="M20.6498 9.3518C21.5872 9.42776 22.2908 9.56767 22.8085 9.71358C23.0883 9.79354 23.3661 9.58566 23.3661 9.29384V9.28984C23.3661 9.09196 23.2342 8.92206 23.0443 8.86809C22.4707 8.70619 21.7111 8.56028 20.7217 8.48232C20.4679 8.46234 20.25 8.66421 20.25 8.91806C20.25 9.14593 20.4259 9.33381 20.6518 9.3538L20.6498 9.3518Z" fill="#F6FEE1"/>
<path d="M18.3438 7.1451C18.3438 6.72935 18.6795 6.39355 19.0953 6.39355C19.511 6.39355 19.8468 6.72935 19.8468 7.1451C19.8468 7.56085 19.511 7.89665 19.0953 7.89665C18.6795 7.89665 18.3438 7.56085 18.3438 7.1451Z" fill="#55AAD0"/>
<path d="M13.3516 7.89877C13.3516 7.48302 13.6874 7.14722 14.1031 7.14722C14.5189 7.14722 14.8547 7.48302 14.8547 7.89877C14.8547 8.31452 14.5189 8.65032 14.1031 8.65032C13.6874 8.65032 13.3516 8.31452 13.3516 7.89877Z" fill="#55AAD0"/>
<path d="M23.3867 7.89852C23.3867 7.48277 23.7225 7.14697 24.1383 7.14697C24.554 7.14697 24.8898 7.48277 24.8898 7.89852C24.8898 8.31427 24.554 8.65007 24.1383 8.65007C23.7225 8.65007 23.3867 8.31427 23.3867 7.89852Z" fill="#55AAD0"/>
<path d="M30.7431 31.9242V18.4803L19.1 11.7583L7.45703 18.4803V31.9242L19.1 38.6462L30.7431 31.9242Z" fill="#55AAD0"/>
<path d="M19.0981 40.3252L6 32.7638V17.6409L19.0981 10.0774L32.1963 17.6389V32.7618L19.0981 40.3232V40.3252ZM8.90825 31.0848L19.0981 36.9673L29.288 31.0848V19.3198L19.0981 13.4374L8.90825 19.3198V31.0848Z" fill="#55AAD0"/>
<path d="M19.0981 10.0774V13.4374L8.90825 19.3198L6 17.6409L19.0981 10.0774Z" fill="#36759A"/>
<path d="M32.1938 32.764L29.2855 31.085L19.0977 36.9674V40.3254L32.1938 32.764Z" fill="#36759A"/>
<path d="M26.5578 26.3695C27.2032 22.437 24.5385 18.7259 20.606 18.0806C16.6735 17.4352 12.9624 20.0999 12.317 24.0324C11.6716 27.9649 14.3364 31.676 18.2689 32.3214C22.2014 32.9668 25.9125 30.302 26.5578 26.3695Z" fill="#36759A"/>
<path d="M19.4379 17.9844C19.202 17.9844 18.9681 17.9964 18.7383 18.0184C22.3961 18.3701 25.2544 21.4503 25.2544 25.2C25.2544 28.9498 22.3941 32.0299 18.7383 32.3817C18.9681 32.4037 19.202 32.4157 19.4379 32.4157C23.4235 32.4157 26.6535 29.1857 26.6535 25.2C26.6535 21.2144 23.4235 17.9844 19.4379 17.9844Z" fill="#323D5D"/>
<path d="M6 32.7637L8.90825 31.0847L19.0981 36.9672V40.3252L6 32.7637Z" fill="#ADF0F8"/>
<path d="M19.0977 10.0771V13.4371L29.2855 19.3196L32.1938 17.6406L19.0977 10.0771Z" fill="#ADF0F8"/>
<path d="M8.91016 31.0849L19.1 36.9674L29.2899 31.0849V19.32L19.1 13.4375L8.91016 19.32V31.0849Z" stroke="#F6FEE1" stroke-width="0.5" stroke-miterlimit="10"/>
<path d="M7.82135 10.9091L7.51953 11.029L7.82135 11.1489C8.74679 11.5147 9.48035 12.2463 9.84414 13.1717L9.96406 13.4735L10.084 13.1717C10.4498 12.2463 11.1813 11.5127 12.1068 11.1489L12.4086 11.029L12.1068 10.9091C11.1813 10.5433 10.4478 9.81174 10.084 8.88629L9.96406 8.58447L9.84414 8.88629C9.47836 9.81174 8.74679 10.5453 7.82135 10.9091Z" fill="#55AAD0"/>
<path d="M25.8135 10.9091L25.5117 11.029L25.8135 11.1489C26.739 11.5147 27.4725 12.2463 27.8363 13.1717L27.9563 13.4735L28.0762 13.1717C28.442 12.2463 29.1735 11.5127 30.099 11.1489L30.4008 11.029L30.099 10.9091C29.1735 10.5433 28.44 9.81174 28.0762 8.88629L27.9563 8.58447L27.8363 8.88629C27.4705 9.81174 26.739 10.5453 25.8135 10.9091Z" fill="#55AAD0"/>
<path d="M22.5405 27.9368V29.5198H16.1963V28.2606L19.4343 25.2024C19.7781 24.8746 20.01 24.5928 20.1299 24.3569C20.2498 24.1211 20.3098 23.8872 20.3098 23.6554C20.3098 23.3196 20.1959 23.0617 19.968 22.8818C19.7401 22.7019 19.4063 22.612 18.9666 22.612C18.5988 22.612 18.267 22.6819 17.9712 22.8219C17.6754 22.9618 17.4275 23.1716 17.2277 23.4515L15.8125 22.54C16.1403 22.0523 16.592 21.6705 17.1677 21.3947C17.7433 21.1189 18.4029 20.981 19.1465 20.981C19.7701 20.981 20.3158 21.0829 20.7835 21.2868C21.2512 21.4907 21.615 21.7785 21.8749 22.1503C22.1347 22.522 22.2646 22.9598 22.2646 23.4635C22.2646 23.9192 22.1687 24.3469 21.9768 24.7467C21.7849 25.1465 21.4131 25.6022 20.8615 26.1139L18.9306 27.9368H22.5405Z" fill="#F8FFE1"/>
</g>
</g>
<defs>
<clipPath id="clip0_1413_12494">
<rect width="37.4493" height="40" fill="white" transform="translate(0.101562)"/>
</clipPath>
<clipPath id="clip1_1413_12494">
<rect width="26.1943" height="40" fill="white" transform="translate(6 0.325195)"/>
</clipPath>
</defs>
</svg>
