<svg width="38" height="40" viewBox="0 0 38 40" fill="none" xmlns="http://www.w3.org/2000/svg">
<g clip-path="url(#clip0_1413_12565)">
<path d="M29.7643 32.1402V19.5624L18.8714 13.2734L7.97656 19.5624V32.1402L18.8714 38.4291L29.7643 32.1402Z" fill="#8CD41F"/>
<path d="M31.1235 32.9256L28.4026 31.3547L18.8711 36.8582V39.9999L31.1235 32.9256Z" fill="#00A979"/>
<path d="M23.9613 30.6256C26.5976 27.9892 26.5976 23.7149 23.9613 21.0785C21.3249 18.4421 17.0505 18.4421 14.4142 21.0785C11.7778 23.7149 11.7778 27.9892 14.4142 30.6256C17.0505 33.262 21.3249 33.262 23.9613 30.6256Z" fill="#00A979"/>
<path d="M19.1858 19.1005C18.9651 19.1005 18.7463 19.1117 18.5312 19.1323C21.9534 19.4614 24.6276 22.3431 24.6276 25.8513C24.6276 29.3595 21.9515 32.2412 18.5312 32.5703C18.7463 32.5909 18.9651 32.6021 19.1858 32.6021C22.9146 32.6021 25.9366 29.5802 25.9366 25.8495C25.9366 22.1187 22.9146 19.0986 19.1858 19.0986V19.1005Z" fill="#514769"/>
<path d="M6.61719 32.9258L9.33808 31.355L18.8715 36.8585V40.0001L6.61719 32.9258Z" fill="#AAF4DB"/>
<path d="M9.33594 31.3548L18.8694 36.8583L28.4028 31.3548V20.3477L18.8694 14.8442L9.33594 20.3477V31.3548Z" stroke="#F8FFE1" stroke-miterlimit="10"/>
<path d="M5.99311 31.1307H6.36712V21.313H4.87109L5.99311 31.1307Z" fill="#433959"/>
<path d="M18.8715 40L6.61719 32.9256V18.777L18.8715 11.7026L31.1258 18.777V32.9256L18.8715 40ZM9.33808 31.3548L18.8715 36.8583L28.4049 31.3548V20.3478L18.8715 14.8443L9.33808 20.3478V31.3548Z" fill="#7BCD11"/>
<path d="M18.8715 11.7026V14.8443L9.33808 20.3478L6.61719 18.777L18.8715 11.7026Z" fill="#00A879"/>
<path d="M18.8711 11.7026V14.8443L28.4026 20.3478L31.1235 18.777L18.8711 11.7026Z" fill="#A8F3DB"/>
<path d="M6.36617 24.5853H3.37412C1.56767 24.5853 0.101562 23.1211 0.101562 21.3127H6.36617V24.5853Z" fill="#88BCA7"/>
<path d="M6.36425 27.858H4.12021C2.31376 27.858 0.847656 26.3938 0.847656 24.5854H6.36425V27.858Z" fill="#8AD321"/>
<path d="M6.36723 31.1305H5.24521C3.43876 31.1305 1.97266 29.6644 1.97266 27.8579H6.36723V31.1305Z" fill="#0EB382"/>
<path d="M31.2852 23.6764H34.2772C36.0837 23.6764 37.5498 22.2121 37.5498 20.4038H31.2852V23.6764Z" fill="#88BCA7"/>
<path d="M31.2852 26.9488H33.5292C35.3356 26.9488 36.8018 25.4846 36.8018 23.6763H31.2852V26.9488Z" fill="#8AD321"/>
<path d="M31.2852 30.2215H32.4072C34.2136 30.2215 35.6797 28.7573 35.6797 26.949H31.2852V30.2215Z" fill="#0EB382"/>
<path d="M31.6592 30.2215H31.2852V20.4038H32.7812L31.6592 30.2215Z" fill="#443B5B"/>
<path d="M25.4889 3.16775C25.4889 1.89239 24.2884 0.858262 22.8092 0.858262C22.3547 0.858262 21.9284 0.955504 21.5525 1.12755C21.0139 0.446855 20.107 -0.00195312 19.0784 -0.00195312C18.0499 -0.00195312 17.143 0.444985 16.6044 1.12755C16.2304 0.955504 15.8021 0.858262 15.3477 0.858262C13.8667 0.858262 12.668 1.89239 12.668 3.16775C12.668 5.23601 14.9401 5.82694 14.9401 7.76055H23.2168C23.2168 5.6923 25.4889 5.12942 25.4889 3.16775Z" fill="#8CD41F"/>
<path d="M21.5246 1.09771C20.9842 0.433848 20.0903 0 19.0767 0C18.0632 0 17.1693 0.433848 16.6289 1.09771C15.4134 4.02805 17.9267 7.76064 17.9267 7.76064H20.2287C20.2287 7.76064 22.7401 3.54371 21.5265 1.09771H21.5246Z" fill="#88BCA7"/>
<path d="M19.0766 6.12793C16.4847 6.12793 14.3828 6.56365 14.3828 7.10222V10.9115H23.7704V7.10222C23.7704 6.56365 21.6685 6.12793 19.0766 6.12793Z" fill="#8CD41F"/>
<path d="M23.7704 10.9118C23.7704 11.4504 21.6685 11.8861 19.0766 11.8861C16.4847 11.8861 14.3828 11.4504 14.3828 10.9118C14.3828 10.3732 16.4847 9.9375 19.0766 9.9375C21.6685 9.9375 23.7704 10.3732 23.7704 10.9118Z" fill="#443B5B"/>
<path d="M23.9277 7.50975C23.8342 7.50975 23.7407 7.47796 23.664 7.41251C23.6359 7.39007 22.5251 6.53547 19.0544 6.53547C15.5836 6.53547 14.4428 7.41438 14.4316 7.42373C14.254 7.56024 13.9978 7.52845 13.8613 7.35267C13.7229 7.17689 13.7509 6.92443 13.9249 6.78418C13.9791 6.74117 15.2937 5.71826 19.0562 5.71826C22.8187 5.71826 24.0754 6.68507 24.2007 6.7954C24.3709 6.945 24.3877 7.2012 24.2381 7.37137C24.1577 7.463 24.0436 7.50975 23.9314 7.50975H23.9277Z" fill="#03A160"/>
<path d="M20.5068 6.5916C21.3839 6.66266 22.0421 6.79356 22.5265 6.93007C22.7883 7.00488 23.0482 6.81039 23.0482 6.53737V6.53363C23.0482 6.34849 22.9248 6.18954 22.7471 6.13905C22.2104 5.98758 21.4998 5.85107 20.5741 5.77813C20.3366 5.75943 20.1328 5.94831 20.1328 6.1858C20.1328 6.39899 20.2974 6.57477 20.5087 6.59347L20.5068 6.5916Z" fill="#F7FFDD"/>
<path d="M23.9277 10.9678C23.8342 10.9678 23.7407 10.936 23.664 10.8705C23.6359 10.8481 22.5251 9.99347 19.0544 9.99347C15.5836 9.99347 14.4428 10.8724 14.4316 10.8817C14.254 11.0183 13.9978 10.9865 13.8613 10.8107C13.7229 10.6349 13.7509 10.3824 13.9249 10.2422C13.9791 10.1992 15.2937 9.17627 19.0562 9.17627C22.8187 9.17627 24.0754 10.1431 24.2007 10.2534C24.3709 10.403 24.3877 10.6592 24.2381 10.8294C24.1577 10.921 24.0436 10.9678 23.9314 10.9678H23.9277Z" fill="#03A160"/>
<path d="M20.5068 10.0496C21.3839 10.1207 22.0421 10.2516 22.5265 10.3881C22.7883 10.4629 23.0482 10.2684 23.0482 9.99538V9.99164C23.0482 9.8065 22.9248 9.64755 22.7471 9.59706C22.2104 9.44559 21.4998 9.30907 20.5741 9.23614C20.3366 9.21744 20.1328 9.40631 20.1328 9.64381C20.1328 9.85699 20.2974 10.0328 20.5087 10.0515L20.5068 10.0496Z" fill="#F7FFDD"/>
<path d="M18.3516 7.98682C18.3516 7.59786 18.6657 7.28369 19.0547 7.28369C19.4437 7.28369 19.7578 7.59786 19.7578 7.98682C19.7578 8.37579 19.4437 8.68996 19.0547 8.68996C18.6657 8.68996 18.3516 8.37579 18.3516 7.98682Z" fill="#0EB382"/>
<path d="M13.6797 8.68995C13.6797 8.30098 13.9939 7.98682 14.3828 7.98682C14.7718 7.98682 15.086 8.30098 15.086 8.68995C15.086 9.07892 14.7718 9.39308 14.3828 9.39308C13.9939 9.39308 13.6797 9.07892 13.6797 8.68995Z" fill="#0EB382"/>
<path d="M23.0664 8.68995C23.0664 8.30098 23.3806 7.98682 23.7695 7.98682C24.1585 7.98682 24.4727 8.30098 24.4727 8.68995C24.4727 9.07892 24.1585 9.39308 23.7695 9.39308C23.3806 9.39308 23.0664 9.07892 23.0664 8.68995Z" fill="#0EB382"/>
<path d="M9.23577 8.57764L10.6776 9.47338L12.3681 9.60803L11.9623 11.2555L12.3569 12.9049L10.6645 13.0283L9.21707 13.9128L8.57565 12.342L7.28906 11.2387L8.585 10.1447L9.23577 8.57764Z" fill="#8AD321"/>
<path d="M28.8726 8.57764L27.4327 9.47338L25.7422 9.60803L26.1461 11.2555L25.7534 12.9049L27.4458 13.0283L28.8932 13.9128L29.5327 12.342L30.8212 11.2387L29.5253 10.1447L28.8726 8.57764Z" fill="#8AD321"/>
<path d="M20.2362 22.2178V30.0719H18.4185V23.6764H16.8477V22.2178H20.2362Z" fill="#F8FFE1"/>
</g>
<defs>
<clipPath id="clip0_1413_12565">
<rect width="37.4493" height="40" fill="white" transform="translate(0.101562)"/>
</clipPath>
</defs>
</svg>
