<svg width="33" height="32" viewBox="0 0 33 32" fill="none" xmlns="http://www.w3.org/2000/svg">
<path fill-rule="evenodd" clip-rule="evenodd" d="M16.2812 32C25.1178 32 32.2812 24.8366 32.2812 16C32.2812 7.16344 25.1178 0 16.2812 0C7.44469 0 0.28125 7.16344 0.28125 16C0.28125 24.8366 7.44469 32 16.2812 32ZM20.5385 22.364C21.1994 23.191 21.9925 24.1269 21.9925 24.1269C26.8612 23.9745 28.7338 20.8188 28.7338 20.8188C28.7338 13.8108 25.5614 8.13049 25.5614 8.13049C22.3891 5.78 19.3709 5.84529 19.3709 5.84529L19.0625 6.19351C22.8076 7.32523 24.548 8.95751 24.548 8.95751C22.2569 7.71698 20.0098 7.10759 17.9169 6.86819C16.3307 6.69408 14.8107 6.73761 13.4668 6.91172C13.3514 6.91172 13.2528 6.9283 13.1417 6.94699L13.0923 6.95524C12.3212 7.02053 10.4487 7.30346 8.09143 8.32636C7.27631 8.69634 6.79165 8.95751 6.79165 8.95751C6.79165 8.95751 8.62016 7.23817 12.5856 6.10646L12.3653 5.84529C12.3653 5.84529 9.34716 5.78 6.1748 8.13049C6.1748 8.13049 3.00244 13.8108 3.00244 20.8188C3.00244 20.8188 4.85298 23.9745 9.72167 24.1269C9.72167 24.1269 10.5368 23.1475 11.1977 22.3205C8.39985 21.4934 7.3424 19.7523 7.3424 19.7523C7.3424 19.7523 7.56271 19.9047 7.95925 20.1223C7.98128 20.1441 8.00331 20.1658 8.04737 20.1876C8.08042 20.2094 8.11346 20.2257 8.14651 20.242C8.17955 20.2583 8.2126 20.2747 8.24564 20.2964C8.7964 20.6011 9.34716 20.8405 9.85385 21.0364C10.7571 21.3846 11.8366 21.7328 13.0923 21.9722C14.7446 22.2769 16.6832 22.3857 18.7981 21.994C19.8336 21.8199 20.891 21.5152 21.9925 21.0582C22.7636 20.7752 23.6228 20.3617 24.526 19.7741C24.526 19.7741 23.4245 21.5587 20.5385 22.364ZM10.1399 16.8451C10.1399 15.4782 11.1234 14.3578 12.3693 14.3578C13.6151 14.3578 14.6205 15.4782 14.5986 16.8451C14.5986 18.212 13.6151 19.3324 12.3693 19.3324C11.1453 19.3324 10.1399 18.212 10.1399 16.8451ZM20.3474 14.3578C19.1016 14.3578 18.118 15.4782 18.118 16.8451C18.118 18.212 19.1234 19.3324 20.3474 19.3324C21.5932 19.3324 22.5768 18.212 22.5768 16.8451C22.5768 15.4782 21.5932 14.3578 20.3474 14.3578Z" fill="#69CF00"/>
</svg>
