<svg width="13" height="12" viewBox="0 0 13 12" fill="none" xmlns="http://www.w3.org/2000/svg">
<g clip-path="url(#clip0_1413_12171)">
<path d="M12.1016 6C12.1016 7.18669 11.7497 8.34673 11.0904 9.33342C10.4311 10.3201 9.49402 11.0892 8.39767 11.5433C7.30131 11.9974 6.09491 12.1162 4.93102 11.8847C3.76714 11.6532 2.69804 11.0818 1.85892 10.2426C1.01981 9.40353 0.448365 8.33443 0.216854 7.17054C-0.0146578 6.00666 0.104162 4.80026 0.558288 3.7039C1.01241 2.60754 1.78145 1.67047 2.76814 1.01118C3.75484 0.351894 4.91488 0 6.10157 0C7.69234 0.00172054 9.21746 0.634414 10.3423 1.75926C11.4672 2.88411 12.0998 4.40923 12.1016 6ZM6.60157 2.5H5.60157V7.5H6.60157V2.5ZM6.60157 8.5H5.60157V9.5H6.60157V8.5Z" fill="#69CF00"/>
</g>
<defs>
<clipPath id="clip0_1413_12171">
<rect width="12" height="12" fill="white" transform="translate(0.101562)"/>
</clipPath>
</defs>
</svg>
