<svg width="25" height="25" viewBox="0 0 25 25" fill="none" xmlns="http://www.w3.org/2000/svg">
<g clip-path="url(#clip0_1413_12391)">
<path d="M12.5 0.94043C9.3174 0.94043 6.26515 2.20471 4.01472 4.45515C1.76428 6.70558 0.5 9.75783 0.5 12.9404C0.5 16.123 1.76428 19.1753 4.01472 21.4257C6.26515 23.6761 9.3174 24.9404 12.5 24.9404H24.5V12.9404C24.4966 9.75889 23.2312 6.70864 20.9815 4.45895C18.7318 2.20926 15.6815 0.943871 12.5 0.94043V0.94043ZM12.409 17.3594C12.0342 17.7328 11.5266 17.9425 10.9975 17.9425C10.4684 17.9425 9.96085 17.7328 9.586 17.3594L5.8 13.6554L7.2 12.2254L10.993 15.9324L17.799 9.23243L19.199 10.6564L12.409 17.3594Z" fill="#00B58D"/>
</g>
<defs>
<clipPath id="clip0_1413_12391">
<rect width="24" height="24" fill="white" transform="translate(0.5 0.94043)"/>
</clipPath>
</defs>
</svg>
