<svg width="25" height="24" viewBox="0 0 25 24" fill="none" xmlns="http://www.w3.org/2000/svg">
<g clip-path="url(#clip0_1413_12216)">
<path d="M12.1016 0C9.72819 0 7.40811 0.703788 5.43472 2.02236C3.46133 3.34094 1.92327 5.21509 1.01501 7.4078C0.106762 9.60051 -0.130878 12.0133 0.332145 14.3411C0.795167 16.6689 1.93806 18.8071 3.61629 20.4853C5.29452 22.1635 7.43271 23.3064 9.76048 23.7694C12.0883 24.2324 14.5011 23.9948 16.6938 23.0866C18.8865 22.1783 20.7606 20.6402 22.0792 18.6668C23.3978 16.6935 24.1016 14.3734 24.1016 12C24.1016 8.8174 22.8373 5.76516 20.5868 3.51472C18.3364 1.26428 15.2842 0 12.1016 0V0ZM16.8086 15.293L15.3946 16.707L12.1016 13.414L8.80857 16.707L7.39457 15.293L10.6876 12L7.39457 8.707L8.80857 7.293L12.1016 10.586L15.3946 7.293L16.8086 8.707L13.5156 12L16.8086 15.293Z" fill="#FE5300"/>
</g>
<defs>
<clipPath id="clip0_1413_12216">
<rect width="24" height="24" fill="white" transform="translate(0.101562)"/>
</clipPath>
</defs>
</svg>
