<svg width="41" height="41" viewBox="0 0 41 41" fill="none" xmlns="http://www.w3.org/2000/svg">
<path d="M20.2152 2.28857C16.5892 2.28857 13.0446 3.36381 10.0297 5.3783C7.01482 7.39279 4.66499 10.2561 3.27739 13.606C1.88978 16.956 1.52672 20.6422 2.23411 24.1986C2.94151 27.7549 4.68759 31.0216 7.25155 33.5855C9.81552 36.1495 13.0822 37.8956 16.6385 38.603C20.1948 39.3104 23.8811 38.9473 27.231 37.5597C30.581 36.1721 33.4443 33.8223 35.4588 30.8074C37.4733 27.7925 38.5485 24.2479 38.5485 20.6219C38.5485 15.7596 36.617 11.0965 33.1788 7.65828C29.7406 4.22012 25.0775 2.28857 20.2152 2.28857ZM30.8043 27.8777L26.3593 32.3227C26.2031 32.479 25.9911 32.5667 25.7702 32.5667C25.5492 32.5667 25.3373 32.479 25.181 32.3227L22.9593 30.0994C22.8798 30.0225 22.8163 29.9306 22.7726 29.8289C22.7289 29.7272 22.7059 29.6179 22.705 29.5072C22.704 29.3966 22.7251 29.2869 22.767 29.1844C22.8089 29.082 22.8708 28.989 22.949 28.9107C23.0273 28.8325 23.1203 28.7706 23.2227 28.7287C23.3251 28.6868 23.4349 28.6657 23.5455 28.6667C23.6562 28.6677 23.7655 28.6906 23.8672 28.7343C23.9689 28.778 24.0608 28.8415 24.1377 28.9211L25.7702 30.5544L29.626 26.6986C29.7832 26.5468 29.9937 26.4628 30.2122 26.4647C30.4307 26.4666 30.6397 26.5542 30.7942 26.7087C30.9487 26.8632 31.0363 27.0722 31.0382 27.2907C31.0401 27.5092 30.9561 27.7206 30.8043 27.8777ZM30.8043 22.8777L26.3593 27.3227C26.2031 27.479 25.9911 27.5667 25.7702 27.5667C25.5492 27.5667 25.3373 27.479 25.181 27.3227L22.9593 25.0994C22.8075 24.9422 22.7235 24.7317 22.7254 24.5132C22.7273 24.2947 22.815 24.0857 22.9695 23.9312C23.124 23.7767 23.333 23.6891 23.5515 23.6872C23.77 23.6853 23.9805 23.7693 24.1377 23.9211L25.7702 25.5552L29.626 21.6994C29.7832 21.5476 29.9937 21.4636 30.2122 21.4655C30.4307 21.4674 30.6397 21.5551 30.7942 21.7096C30.9487 21.8641 31.0363 22.0731 31.0382 22.2916C31.0401 22.5101 30.9561 22.7206 30.8043 22.8777ZM32.7152 20.6219C32.7152 20.8429 32.6274 21.0549 32.4711 21.2112C32.3148 21.3674 32.1029 21.4552 31.8818 21.4552C31.6608 21.4552 31.4489 21.3674 31.2926 21.2112C31.1363 21.0549 31.0485 20.8429 31.0485 20.6219V18.1219H9.38184V25.6219C9.38259 26.2847 9.64623 26.9202 10.1149 27.3888C10.5836 27.8575 11.219 28.1212 11.8818 28.1219H20.2152C20.4362 28.1219 20.6482 28.2097 20.8044 28.366C20.9607 28.5223 21.0485 28.7342 21.0485 28.9552C21.0485 29.1763 20.9607 29.3882 20.8044 29.5445C20.6482 29.7008 20.4362 29.7886 20.2152 29.7886H11.8818C10.7771 29.7876 9.71787 29.3482 8.93669 28.5671C8.15551 27.7859 7.71619 26.7267 7.71518 25.6219V15.6219C7.71619 14.5172 8.15551 13.4579 8.93669 12.6768C9.71787 11.8956 10.7771 11.4563 11.8818 11.4552H28.5485C29.6533 11.4563 30.7125 11.8956 31.4937 12.6768C32.2748 13.4579 32.7142 14.5172 32.7152 15.6219V20.6219Z" fill="#00B58D"/>
<path d="M28.5485 13.1221H11.8818C11.219 13.1228 10.5836 13.3865 10.1149 13.8551C9.64622 14.3238 9.38259 14.9593 9.38184 15.6221V16.4554H31.0485V15.6221C31.0478 14.9593 30.7841 14.3238 30.3154 13.8551C29.8468 13.3865 29.2113 13.1228 28.5485 13.1221Z" fill="#00B58D"/>
</svg>
