<svg width="41" height="41" viewBox="0 0 41 41" fill="none" xmlns="http://www.w3.org/2000/svg">
<mask id="mask0_1588_15548" style="mask-type:alpha" maskUnits="userSpaceOnUse" x="0" y="0" width="41" height="41">
<rect x="0.525391" y="0.576172" width="40" height="40" fill="#D9D9D9"/>
</mask>
<g mask="url(#mask0_1588_15548)">
</g>
<g clip-path="url(#clip0_1588_15548)">
<path d="M10.1504 24.3262V28.0762C10.1504 28.6011 9.73804 29.0137 9.21289 29.0137C8.68774 29.0137 8.27539 28.6011 8.27539 28.0762V24.3262C8.27539 23.801 8.68774 23.3887 9.21289 23.3887C9.73804 23.3887 10.1504 23.801 10.1504 24.3262Z" fill="#D6DDD0"/>
<path d="M10.1504 24.3262V28.0762C10.1504 28.6011 9.73804 29.0137 9.21289 29.0137V23.3887C9.73804 23.3887 10.1504 23.801 10.1504 24.3262Z" fill="#9F9F9F"/>
<path d="M10.1504 13.0137V16.8262C10.1504 17.3511 9.73804 17.7637 9.21289 17.7637C8.68774 17.7637 8.27539 17.3511 8.27539 16.8262V13.0137C8.27539 12.4885 8.68774 12.0762 9.21289 12.0762C9.73804 12.0762 10.1504 12.4885 10.1504 13.0137Z" fill="#D6DDD0"/>
<path d="M10.1504 13.0137V16.8262C10.1504 17.3511 9.73804 17.7637 9.21289 17.7637V12.0762C9.73804 12.0762 10.1504 12.4885 10.1504 13.0137Z" fill="#9F9F9F"/>
<path d="M13.3752 17.8574L9.62524 15.9824C9.49414 15.926 9.36279 15.8887 9.21289 15.8887C9.06299 15.8887 8.93164 15.926 8.80054 15.9824L5.05054 17.8574C4.73169 18.0261 4.52539 18.345 4.52539 18.7012V22.4512C4.52539 22.8074 4.73169 23.1262 5.05054 23.2949L8.80054 25.1699C8.93164 25.2261 9.06299 25.2637 9.21289 25.2637C9.36279 25.2637 9.49414 25.2261 9.62524 25.1699L13.3752 23.2949C13.6941 23.1262 13.9004 22.8074 13.9004 22.4512V18.7012C13.9004 18.345 13.6941 18.0261 13.3752 17.8574Z" fill="#FE5300"/>
<path d="M13.9004 18.7012V22.4512C13.9004 22.8074 13.6941 23.1262 13.3752 23.2949L9.62524 25.1699C9.49414 25.2261 9.36279 25.2637 9.21289 25.2637V15.8887C9.36304 15.8887 9.49414 15.926 9.62524 15.9824L13.3752 17.8574C13.6941 18.0261 13.9004 18.345 13.9004 18.7012Z" fill="#A93800"/>
<path d="M13.3752 6.54492L9.62524 4.66992C9.49414 4.61353 9.36304 4.57617 9.21289 4.57617C9.06274 4.57617 8.93164 4.61353 8.80054 4.66992L5.05054 6.54492C4.73169 6.71362 4.52539 7.03247 4.52539 7.38867V11.1387C4.52539 11.4949 4.73169 11.8137 5.05054 11.9824L8.80054 13.8574C8.93164 13.9136 9.06299 13.9512 9.21289 13.9512C9.36279 13.9512 9.49414 13.9136 9.62524 13.8574L13.3752 11.9824C13.6941 11.8137 13.9004 11.4949 13.9004 11.1387V7.38867C13.9004 7.03247 13.6941 6.71362 13.3752 6.54492Z" fill="#FE5300"/>
<path d="M13.9004 7.38867V11.1387C13.9004 11.4949 13.6941 11.8137 13.3752 11.9824L9.62524 13.8574C9.49414 13.9136 9.36279 13.9512 9.21289 13.9512V4.57617C9.36304 4.57617 9.49414 4.61353 9.62524 4.66992L13.3752 6.54492C13.6941 6.71362 13.9004 7.03247 13.9004 7.38867Z" fill="#A93800"/>
<path d="M13.3752 29.1074L9.62524 27.2324C9.49414 27.176 9.36279 27.1387 9.21289 27.1387C9.06299 27.1387 8.93164 27.176 8.80054 27.2324L5.05054 29.1074C4.73169 29.2761 4.52539 29.595 4.52539 29.9512V33.7637C4.52539 34.1199 4.73169 34.4387 5.05054 34.6074L8.80054 36.4824C8.93164 36.5386 9.06299 36.5762 9.21289 36.5762C9.36279 36.5762 9.49414 36.5386 9.62524 36.4824L13.3752 34.6074C13.6941 34.4387 13.9004 34.1199 13.9004 33.7637V29.9512C13.9004 29.595 13.6941 29.2761 13.3752 29.1074Z" fill="#FE5300"/>
<path d="M13.9004 29.9512V33.7637C13.9004 34.1199 13.6941 34.4387 13.3752 34.6074L9.62524 36.4824C9.49414 36.5386 9.36279 36.5762 9.21289 36.5762V27.1387C9.36304 27.1387 9.49414 27.176 9.62524 27.2324L13.3752 29.1074C13.6941 29.2761 13.9004 29.595 13.9004 29.9512Z" fill="#A93800"/>
<path d="M35.5879 8.32617H16.7129C16.1948 8.32617 15.7754 7.90674 15.7754 7.38867C15.7754 6.87061 16.1948 6.45117 16.7129 6.45117H35.5879C36.106 6.45117 36.5254 6.87061 36.5254 7.38867C36.5254 7.90674 36.106 8.32617 35.5879 8.32617Z" fill="#00B58D"/>
<path d="M26.1504 12.0762H16.7129C16.1948 12.0762 15.7754 11.6567 15.7754 11.1387C15.7754 10.6206 16.1948 10.2012 16.7129 10.2012H26.1504C26.6685 10.2012 27.0879 10.6206 27.0879 11.1387C27.0879 11.6567 26.6685 12.0762 26.1504 12.0762Z" fill="#00B58D"/>
<path d="M26.1504 23.3887H16.7129C16.1948 23.3887 15.7754 22.9692 15.7754 22.4512C15.7754 21.9331 16.1948 21.5137 16.7129 21.5137H26.1504C26.6685 21.5137 27.0879 21.9331 27.0879 22.4512C27.0879 22.9692 26.6685 23.3887 26.1504 23.3887Z" fill="#00B58D"/>
<path d="M26.1504 34.6387H16.7129C16.1948 34.6387 15.7754 34.2192 15.7754 33.7012C15.7754 33.1831 16.1948 32.7637 16.7129 32.7637H26.1504C26.6685 32.7637 27.0879 33.1831 27.0879 33.7012C27.0879 34.2192 26.6685 34.6387 26.1504 34.6387Z" fill="#00B58D"/>
<path d="M35.5879 19.6387H16.7129C16.1948 19.6387 15.7754 19.2192 15.7754 18.7012C15.7754 18.1831 16.1948 17.7637 16.7129 17.7637H35.5879C36.106 17.7637 36.5254 18.1831 36.5254 18.7012C36.5254 19.2192 36.106 19.6387 35.5879 19.6387Z" fill="#00B58D"/>
<path d="M35.5879 30.8887H16.7129C16.1948 30.8887 15.7754 30.4692 15.7754 29.9512C15.7754 29.4331 16.1948 29.0137 16.7129 29.0137H35.5879C36.106 29.0137 36.5254 29.4331 36.5254 29.9512C36.5254 30.4692 36.106 30.8887 35.5879 30.8887Z" fill="#00B58D"/>
<path d="M10.1504 9.26367C10.1504 9.78857 9.73804 10.2012 9.21289 10.2012C8.68774 10.2012 8.27539 9.78857 8.27539 9.26367C8.27539 8.73853 8.68774 8.32617 9.21289 8.32617C9.73804 8.32617 10.1504 8.73853 10.1504 9.26367Z" fill="#D6DDD0"/>
<path d="M10.1504 20.5762C10.1504 21.1011 9.73804 21.5137 9.21289 21.5137C8.68774 21.5137 8.27539 21.1011 8.27539 20.5762C8.27539 20.051 8.68774 19.6387 9.21289 19.6387C9.73804 19.6387 10.1504 20.051 10.1504 20.5762Z" fill="#D6DDD0"/>
<path d="M10.1504 31.8262C10.1504 32.3511 9.73804 32.7637 9.21289 32.7637C8.68774 32.7637 8.27539 32.3511 8.27539 31.8262C8.27539 31.301 8.68774 30.8887 9.21289 30.8887C9.73804 30.8887 10.1504 31.301 10.1504 31.8262Z" fill="#D6DDD0"/>
<path d="M10.1504 31.8262C10.1504 32.3511 9.73804 32.7637 9.21289 32.7637V30.8887C9.73804 30.8887 10.1504 31.301 10.1504 31.8262Z" fill="#9F9F9F"/>
<path d="M10.1504 20.5762C10.1504 21.1011 9.73804 21.5137 9.21289 21.5137V19.6387C9.73804 19.6387 10.1504 20.051 10.1504 20.5762Z" fill="#9F9F9F"/>
<path d="M9.21289 10.2012V8.32617C9.73804 8.32617 10.1504 8.73853 10.1504 9.26367C10.1504 9.78857 9.73804 10.2012 9.21289 10.2012Z" fill="#9F9F9F"/>
</g>
<defs>
<clipPath id="clip0_1588_15548">
<rect width="32" height="32" fill="white" transform="translate(4.52539 4.57617)"/>
</clipPath>
</defs>
</svg>
