<svg width="41" height="41" viewBox="0 0 41 41" fill="none" xmlns="http://www.w3.org/2000/svg">
<path d="M29.5197 38.2993C34.007 38.2993 37.6447 34.6616 37.6447 30.1743C37.6447 25.687 34.007 22.0493 29.5197 22.0493C25.0323 22.0493 21.3947 25.687 21.3947 30.1743C21.3947 34.6616 25.0323 38.2993 29.5197 38.2993Z" fill="#445434"/>
<path d="M23.4213 3.29932H7.64465V35.7993H32.6447V12.5227L23.4213 3.29932Z" fill="#445434"/>
<path d="M30.7697 33.9243H9.51965V5.17432H22.6447L30.7697 13.2993V33.9243Z" fill="white"/>
<path d="M22.6447 13.2993V5.17432L30.7697 13.2993H22.6447Z" fill="#445434"/>
<path d="M22.6447 13.2993L30.7697 21.4243V13.2993H22.6447Z" fill="#E8ECE4"/>
<path d="M13.8947 13.2993H15.7697V15.1743H13.8947V13.2993Z" fill="#445434"/>
<path d="M17.6447 13.2993H26.3947V15.1743H17.6447V13.2993Z" fill="#445434"/>
<path d="M13.8947 17.0493H15.7697V18.9243H13.8947V17.0493Z" fill="#445434"/>
<path d="M17.6447 17.0493H26.3947V18.9243H17.6447V17.0493Z" fill="#445434"/>
<path d="M13.8947 20.7993H15.7697V22.6743H13.8947V20.7993Z" fill="#445434"/>
<path d="M17.6447 20.7993H26.3947V22.6743H17.6447V20.7993Z" fill="#445434"/>
<path d="M13.8947 24.5493H15.7697V26.4243H13.8947V24.5493Z" fill="#445434"/>
<path d="M17.6447 24.5493H26.3947V26.4243H17.6447V24.5493Z" fill="#445434"/>
<path d="M13.8947 28.2993H15.7697V30.1743H13.8947V28.2993Z" fill="#445434"/>
<path d="M17.6447 28.2993H26.3947V30.1743H17.6447V28.2993Z" fill="#445434"/>
<path d="M13.8947 9.54932H15.7697V11.4243H13.8947V9.54932Z" fill="#445434"/>
<path d="M17.6447 9.54932H22.6447V11.4243H17.6447V9.54932Z" fill="#445434"/>
<path opacity="0.25" d="M30.7697 22.1454C30.3621 22.0822 29.9447 22.0493 29.5197 22.0493C25.0395 22.0493 21.3947 25.6942 21.3947 30.1743C21.3947 31.5262 21.727 32.8017 22.3136 33.9243H30.7697V22.1454Z" fill="#445434"/>
<path d="M29.5197 36.4243C32.9714 36.4243 35.7697 33.6261 35.7697 30.1743C35.7697 26.7225 32.9714 23.9243 29.5197 23.9243C26.0679 23.9243 23.2697 26.7225 23.2697 30.1743C23.2697 33.6261 26.0679 36.4243 29.5197 36.4243Z" fill="#69CF00"/>
<path d="M29.5197 24.5493C32.8666 24.5493 35.5989 27.1803 35.7617 30.4868C35.7668 30.3833 35.7697 30.2792 35.7697 30.1743C35.7697 26.7225 32.9714 23.9243 29.5197 23.9243C26.0679 23.9243 23.2697 26.7225 23.2697 30.1743C23.2697 30.2792 23.2725 30.3833 23.2776 30.4868C23.4404 27.1803 26.1727 24.5493 29.5197 24.5493Z" fill="#69CF00"/>
<path d="M33.6404 28.6999L32.1677 27.2271L28.591 30.8039L26.8027 29.0156L25.3299 30.4883L28.5909 33.7494L33.6404 28.6999Z" fill="white"/>
</svg>
