<svg width="38" height="40" viewBox="0 0 38 40" fill="none" xmlns="http://www.w3.org/2000/svg">
<g clip-path="url(#clip0_1413_12602)">
<path d="M29.7643 32.1402V19.5624L18.8714 13.2734L7.97656 19.5624V32.1402L18.8714 38.4291L29.7643 32.1402Z" fill="#8CD41F"/>
<path d="M31.1235 32.9256L28.4026 31.3547L18.8711 36.8582V39.9999L31.1235 32.9256Z" fill="#00A979"/>
<path d="M23.9613 30.6256C26.5976 27.9892 26.5976 23.7149 23.9613 21.0785C21.3249 18.4421 17.0505 18.4421 14.4142 21.0785C11.7778 23.7149 11.7778 27.9892 14.4142 30.6256C17.0505 33.262 21.3249 33.262 23.9613 30.6256Z" fill="#00A979"/>
<path d="M19.1858 19.1005C18.9651 19.1005 18.7463 19.1117 18.5312 19.1323C21.9534 19.4614 24.6276 22.3431 24.6276 25.8513C24.6276 29.3595 21.9515 32.2412 18.5312 32.5703C18.7463 32.5909 18.9651 32.6021 19.1858 32.6021C22.9146 32.6021 25.9366 29.5802 25.9366 25.8495C25.9366 22.1187 22.9146 19.0986 19.1858 19.0986V19.1005Z" fill="#514769"/>
<path d="M6.61719 32.9258L9.33808 31.355L18.8715 36.8585V40.0001L6.61719 32.9258Z" fill="#AAF4DB"/>
<path d="M9.33594 31.3548L18.8694 36.8583L28.4028 31.3548V20.3477L18.8694 14.8442L9.33594 20.3477V31.3548Z" stroke="#F8FFE1" stroke-miterlimit="10"/>
<path d="M5.99311 31.1307H6.36712V21.313H4.87109L5.99311 31.1307Z" fill="#433959"/>
<path d="M20.2362 22.2178V30.0719H18.4185V23.6764H16.8477V22.2178H20.2362Z" fill="#F8FFE1"/>
<g clip-path="url(#clip1_1413_12602)">
<path d="M23.6237 1.22856L21.9878 0.827601V2.06457L20.7769 1.66361V0.226158L19.141 -0.174805V1.46313H17.9301V-0.174805L16.2941 0.226158V1.66361L15.0812 2.06457V0.827601L13.4453 1.22856L13.5035 8.58823H23.5676L23.6237 1.22856Z" fill="#E5952C"/>
<path d="M18.536 9.63296C21.3151 9.63296 23.5681 9.16532 23.5681 8.58845C23.5681 8.01159 21.3151 7.54395 18.536 7.54395C15.7568 7.54395 13.5039 8.01159 13.5039 8.58845C13.5039 9.16532 15.7568 9.63296 18.536 9.63296Z" fill="#433959"/>
<path d="M23.7376 4.94136C23.6374 4.94136 23.5371 4.90728 23.4549 4.83711C23.4249 4.81305 22.234 3.89685 18.5131 3.89685C14.7922 3.89685 13.5692 4.83912 13.5572 4.84914C13.3667 4.99549 13.0921 4.96141 12.9457 4.77296C12.7974 4.58451 12.8274 4.31386 13.0139 4.16349C13.072 4.11738 14.4814 3.02075 18.5151 3.02075C22.5488 3.02075 23.896 4.05724 24.0303 4.17552C24.2128 4.33591 24.2308 4.61057 24.0704 4.79301C23.9842 4.89124 23.8619 4.94136 23.7416 4.94136H23.7376Z" fill="#FF7B34"/>
<path d="M20.0689 3.95696C21.0092 4.03314 21.7149 4.17348 22.2341 4.31983C22.5148 4.40002 22.7935 4.19152 22.7935 3.89882V3.89481C22.7935 3.69633 22.6612 3.52593 22.4707 3.4718C21.8953 3.30941 21.1335 3.16305 20.1411 3.08487C19.8865 3.06482 19.668 3.2673 19.668 3.52192C19.668 3.75046 19.8444 3.93892 20.0709 3.95896L20.0689 3.95696Z" fill="#F8FFE1"/>
<path d="M23.7376 8.64839C23.6374 8.64839 23.5371 8.61431 23.4549 8.54414C23.4249 8.52009 22.234 7.60389 18.5131 7.60389C14.7922 7.60389 13.5692 8.54615 13.5572 8.55617C13.3667 8.70252 13.0921 8.66844 12.9457 8.47999C12.7974 8.29154 12.8274 8.02089 13.0139 7.87053C13.072 7.82442 14.4814 6.72778 18.5151 6.72778C22.5488 6.72778 23.896 7.76427 24.0303 7.88255C24.2128 8.04294 24.2308 8.3176 24.0704 8.50004C23.9842 8.59827 23.8619 8.64839 23.7416 8.64839H23.7376Z" fill="#FF7B34"/>
<path d="M20.0689 7.66399C21.0092 7.74017 21.7149 7.88051 22.2341 8.02686C22.5148 8.10705 22.7935 7.89855 22.7935 7.60585V7.60184C22.7935 7.40337 22.6612 7.23296 22.4707 7.17883C21.8953 7.01644 21.1335 6.87009 20.1411 6.7919C19.8865 6.77185 19.668 6.97434 19.668 7.22895C19.668 7.4575 19.8444 7.64595 20.0709 7.666L20.0689 7.66399Z" fill="#F8FFE1"/>
<path d="M30.1803 31.397V17.9126L18.5022 11.1704L6.82422 17.9126V31.397L18.5022 38.1411L30.1803 31.397Z" fill="#D39740"/>
<path d="M18.5008 39.8251L5.36328 32.2389V17.0705L18.5008 9.48633L31.6383 17.0705V32.2389L18.5008 39.8231V39.8251ZM8.28028 30.5549L18.5008 36.4551L28.7213 30.5549V18.7546L18.5008 12.8544L8.28028 18.7546V30.5549Z" fill="#E5952C"/>
<path d="M18.5008 9.48633V12.8544L8.28028 18.7546L5.36328 17.0705L18.5008 9.48633Z" fill="#FF7B34"/>
<path d="M31.6355 32.2392L28.7185 30.5552L18.5 36.4573V39.8254L31.6355 32.2392Z" fill="#FF7B34"/>
<path d="M18.8389 31.8922C22.836 31.8922 26.0763 28.6519 26.0763 24.6548C26.0763 20.6578 22.836 17.4175 18.8389 17.4175C14.8418 17.4175 11.6016 20.6578 11.6016 24.6548C11.6016 28.6519 14.8418 31.8922 18.8389 31.8922Z" fill="#F49D34"/>
<path d="M18.8384 17.4175C18.6018 17.4175 18.3673 17.4295 18.1367 17.4516C21.8055 17.8044 24.6724 20.8938 24.6724 24.6548C24.6724 28.4159 21.8035 31.5053 18.1367 31.8581C18.3673 31.8802 18.6018 31.8922 18.8384 31.8922C22.836 31.8922 26.0758 28.6524 26.0758 24.6548C26.0758 20.6573 22.836 17.4175 18.8384 17.4175Z" fill="#FF7B34"/>
<path d="M5.36328 32.239L8.28028 30.5549L18.5008 36.4571V39.8252L5.36328 32.239Z" fill="#E0AC5A"/>
<path d="M18.5 9.48633V12.8544L28.7185 18.7546L31.6355 17.0705L18.5 9.48633Z" fill="#E0AC5A"/>
<path d="M8.28125 30.555L18.5018 36.4551L28.7223 30.555V18.7547L18.5018 12.8545L8.28125 18.7547V30.555Z" stroke="#F8FFE1" stroke-width="0.5" stroke-miterlimit="10"/>
</g>
</g>
<defs>
<clipPath id="clip0_1413_12602">
<rect width="37.4493" height="40" fill="white" transform="translate(0.101562)"/>
</clipPath>
<clipPath id="clip1_1413_12602">
<rect width="26.2731" height="40" fill="white" transform="translate(5.36328 -0.174805)"/>
</clipPath>
</defs>
</svg>
