<svg width="40" height="41" viewBox="0 0 40 41" fill="none" xmlns="http://www.w3.org/2000/svg">
<g clip-path="url(#clip0_1565_11605)">
<path fill-rule="evenodd" clip-rule="evenodd" d="M29.7666 6.08908H10.7652C7.72748 6.08908 5.26172 8.55171 5.26172 11.5891V30.5912C5.26172 33.6285 7.72748 36.0912 10.7652 36.0912H29.7666C32.8106 36.0912 35.27 33.6285 35.27 30.5912V11.5891C35.27 8.55171 32.8106 6.08908 29.7666 6.08908Z" fill="#E1FABB"/>
<path fill-rule="evenodd" clip-rule="evenodd" d="M32.5651 7.02188C33.1551 7.89788 33.5001 8.95288 33.5001 10.0884V29.0884C33.5001 32.1259 31.0401 34.5884 28.0001 34.5884C22.8951 34.5884 14.1101 34.5884 9.00006 34.5884C7.86506 34.5884 6.81006 34.2444 5.93506 33.6549C6.92006 35.1229 8.60006 36.0884 10.5001 36.0884H29.5001C32.5401 36.0884 35.0001 33.6259 35.0001 30.5884V11.5884C35.0001 9.68638 34.0351 8.00988 32.5651 7.02188Z" fill="#E1FABB"/>
<path fill-rule="evenodd" clip-rule="evenodd" d="M5 13.0884H35V11.5884C35 8.55088 32.54 6.08838 29.5 6.08838H10.5C7.46 6.08838 5 8.55088 5 11.5884V13.0884Z" fill="#69CF00"/>
<path fill-rule="evenodd" clip-rule="evenodd" d="M17.4031 6.08755H13.905V9.83684C13.905 10.8029 14.6885 11.5869 15.654 11.5869C16.6195 11.5869 17.4031 10.8029 17.4031 9.83684V6.08755Z" fill="#69CF00"/>
<path fill-rule="evenodd" clip-rule="evenodd" d="M27.9031 6.08755H24.405V9.83684C24.405 10.8029 25.1885 11.5869 26.154 11.5869C27.1195 11.5869 27.9031 10.8029 27.9031 9.83684V6.08755Z" fill="#69CF00"/>
<path fill-rule="evenodd" clip-rule="evenodd" d="M13.5 5.58838V9.08838C13.5 9.91613 14.17 10.5885 15 10.5885C15.83 10.5885 16.5 9.91613 16.5 9.08838V5.58838C16.5 4.76063 15.83 4.08828 15 4.08828C14.17 4.08828 13.5 4.76063 13.5 5.58838Z" fill="#FE5300"/>
<path fill-rule="evenodd" clip-rule="evenodd" d="M23.5 5.58838V9.08838C23.5 9.91613 24.17 10.5885 25 10.5885C25.83 10.5885 26.5 9.91613 26.5 9.08838V5.58838C26.5 4.76063 25.83 4.08828 25 4.08828C24.17 4.08828 23.5 4.76063 23.5 5.58838Z" fill="#FE5300"/>
<path fill-rule="evenodd" clip-rule="evenodd" d="M33.4999 13.0884H34.9999V11.5884C34.9999 9.68638 34.0349 8.00988 32.5649 7.02188C33.1549 7.89788 33.4999 8.95288 33.4999 10.0884V13.0884Z" fill="#69CF00"/>
<path fill-rule="evenodd" clip-rule="evenodd" d="M23.88 21.5884H12.5C11.67 21.5884 11 22.2604 11 23.0884C11 23.9164 11.67 24.5884 12.5 24.5884H23.88L22.44 26.0279C21.855 26.6129 21.855 27.5639 22.44 28.1489C23.025 28.7344 23.9751 28.7344 24.5601 28.1489L28.5601 24.1489C29.1451 23.5634 29.1451 22.6134 28.5601 22.0279L24.5601 18.0279C23.9751 17.4424 23.025 17.4424 22.44 18.0279C21.855 18.6129 21.855 19.5639 22.44 20.1489L23.88 21.5884Z" fill="#69CF00"/>
</g>
<defs>
<clipPath id="clip0_1565_11605">
<rect width="32" height="32" fill="white" transform="translate(4 4.08838)"/>
</clipPath>
</defs>
</svg>
