<svg width="272" height="201" viewBox="0 0 272 201" fill="none" xmlns="http://www.w3.org/2000/svg">
<path opacity="0.2" d="M50.3122 46.1379C50.3122 47.1523 51.1339 47.974 52.1483 47.974H57.6566C58.6711 47.974 59.4927 47.1523 59.4927 46.1379C59.4927 45.1234 58.6711 44.3018 57.6566 44.3018H52.1483C51.1339 44.3018 50.3122 45.1234 50.3122 46.1379ZM44.8039 18.5963H50.3122C51.3267 18.5963 52.1483 17.7747 52.1483 16.7602C52.1483 15.7458 51.3267 14.9241 50.3122 14.9241H44.8039C43.7894 14.9241 42.9678 15.7458 42.9678 16.7602C42.9678 17.7747 43.7894 18.5963 44.8039 18.5963ZM68.6732 3.90751H92.5426C93.557 3.90751 94.3787 3.08585 94.3787 2.07141C94.3787 1.05696 93.557 0.235303 92.5426 0.235303H68.6732C67.6588 0.235303 66.8371 1.05696 66.8371 2.07141C66.8371 3.08585 67.6588 3.90751 68.6732 3.90751ZM42.9678 84.6961H48.4761C49.4905 84.6961 50.3122 83.8744 50.3122 82.86C50.3122 81.8455 49.4905 81.0239 48.4761 81.0239H42.9678C41.9533 81.0239 41.1317 81.8455 41.1317 82.86C41.1317 83.8744 41.9533 84.6961 42.9678 84.6961ZM46.64 141.615C46.64 140.601 45.8183 139.779 44.8039 139.779H33.7873C32.7728 139.779 31.9512 140.601 31.9512 141.615C31.9512 142.63 32.7728 143.451 33.7873 143.451H44.8039C45.8183 143.451 46.64 142.63 46.64 141.615ZM44.8039 128.763H48.4761C49.4905 128.763 50.3122 127.941 50.3122 126.926C50.3122 125.912 49.4905 125.09 48.4761 125.09H44.8039C43.7894 125.09 42.9678 125.912 42.9678 126.926C42.9678 127.941 43.7894 128.763 44.8039 128.763ZM224.742 95.7127C223.728 95.7127 222.906 96.5343 222.906 97.5488C222.906 98.5632 223.728 99.3849 224.742 99.3849H232.086C233.101 99.3849 233.923 98.5632 233.923 97.5488C233.923 96.5343 233.101 95.7127 232.086 95.7127H224.742ZM41.1317 106.729H55.8205C56.835 106.729 57.6566 105.908 57.6566 104.893C57.6566 103.879 56.835 103.057 55.8205 103.057H41.1317C40.1172 103.057 39.2956 103.879 39.2956 104.893C39.2956 105.908 40.1172 106.729 41.1317 106.729ZM180.676 3.90751H191.692C192.707 3.90751 193.528 3.08585 193.528 2.07141C193.528 1.05696 192.707 0.235303 191.692 0.235303H180.676C179.661 0.235303 178.839 1.05696 178.839 2.07141C178.839 3.08585 179.661 3.90751 180.676 3.90751ZM74.1815 183.846H55.8205C54.8061 183.846 53.9844 184.667 53.9844 185.682C53.9844 186.696 54.8061 187.518 55.8205 187.518H74.1815C75.196 187.518 76.0177 186.696 76.0177 185.682C76.0177 184.667 75.196 183.846 74.1815 183.846ZM230.25 60.8267C230.25 59.8123 229.429 58.9906 228.414 58.9906H217.398C216.383 58.9906 215.562 59.8123 215.562 60.8267C215.562 61.8412 216.383 62.6628 217.398 62.6628H228.414C229.429 62.6628 230.25 61.8412 230.25 60.8267ZM200.873 11.2519H219.234C220.248 11.2519 221.07 10.4303 221.07 9.41582C221.07 8.40137 220.248 7.57972 219.234 7.57972H200.873C199.858 7.57972 199.037 8.40137 199.037 9.41582C199.037 10.4303 199.858 11.2519 200.873 11.2519ZM211.889 25.9408H215.562C216.576 25.9408 217.398 25.1191 217.398 24.1046C217.398 23.0902 216.576 22.2685 215.562 22.2685H211.889C210.875 22.2685 210.053 23.0902 210.053 24.1046C210.053 25.1191 210.875 25.9408 211.889 25.9408ZM211.889 16.7602C211.889 15.7458 211.068 14.9241 210.053 14.9241H204.545C203.53 14.9241 202.709 15.7458 202.709 16.7602C202.709 17.7747 203.53 18.5963 204.545 18.5963H210.053C211.068 18.5963 211.889 17.7747 211.889 16.7602ZM215.562 73.6794C214.547 73.6794 213.725 74.5011 213.725 75.5155C213.725 76.53 214.547 77.3517 215.562 77.3517H219.234C220.248 77.3517 221.07 76.53 221.07 75.5155C221.07 74.5011 220.248 73.6794 219.234 73.6794H215.562ZM224.742 148.96C224.742 147.945 223.92 147.124 222.906 147.124H217.398C216.383 147.124 215.562 147.945 215.562 148.96C215.562 149.974 216.383 150.796 217.398 150.796H222.906C223.92 150.796 224.742 149.974 224.742 148.96ZM200.873 51.6462C199.858 51.6462 199.037 52.4679 199.037 53.4823C199.037 54.4967 199.858 55.3184 200.873 55.3184H204.545C205.559 55.3184 206.381 54.4967 206.381 53.4823C206.381 52.4679 205.559 51.6462 204.545 51.6462H200.873ZM63.1649 169.157H59.4927C58.4783 169.157 57.6566 169.978 57.6566 170.993C57.6566 172.007 58.4783 172.829 59.4927 172.829H63.1649C64.1794 172.829 65.001 172.007 65.001 170.993C65.001 169.978 64.1794 169.157 63.1649 169.157ZM72.3454 62.6628C73.3599 62.6628 74.1815 61.8412 74.1815 60.8267C74.1815 59.8123 73.3599 58.9906 72.3454 58.9906H66.8371C65.8227 58.9906 65.001 59.8123 65.001 60.8267C65.001 61.8412 65.8227 62.6628 66.8371 62.6628H72.3454ZM230.25 176.501H224.742C223.728 176.501 222.906 177.323 222.906 178.337C222.906 179.352 223.728 180.173 224.742 180.173H230.25C231.265 180.173 232.086 179.352 232.086 178.337C232.086 177.323 231.265 176.501 230.25 176.501ZM241.267 95.7127H237.595C236.58 95.7127 235.759 96.5343 235.759 97.5488C235.759 98.5632 236.58 99.3849 237.595 99.3849H241.267C242.281 99.3849 243.103 98.5632 243.103 97.5488C243.103 96.5343 242.281 95.7127 241.267 95.7127ZM235.759 117.746H221.07C220.055 117.746 219.234 118.568 219.234 119.582C219.234 120.596 220.055 121.418 221.07 121.418H235.759C236.773 121.418 237.595 120.596 237.595 119.582C237.595 118.568 236.773 117.746 235.759 117.746ZM70.5093 25.9408C71.5238 25.9408 72.3454 25.1191 72.3454 24.1046C72.3454 23.0902 71.5238 22.2685 70.5093 22.2685H63.1649C62.1505 22.2685 61.3288 23.0902 61.3288 24.1046C61.3288 25.1191 62.1505 25.9408 63.1649 25.9408H70.5093ZM55.8205 77.3517H59.4927C60.5072 77.3517 61.3288 76.53 61.3288 75.5155C61.3288 74.5011 60.5072 73.6794 59.4927 73.6794H55.8205C54.8061 73.6794 53.9844 74.5011 53.9844 75.5155C53.9844 76.53 54.8061 77.3517 55.8205 77.3517ZM206.381 191.19H182.512C181.497 191.19 180.676 192.012 180.676 193.026C180.676 194.041 181.497 194.862 182.512 194.862H206.381C207.395 194.862 208.217 194.041 208.217 193.026C208.217 192.012 207.395 191.19 206.381 191.19ZM63.1649 178.337C63.1649 179.352 63.9866 180.173 65.001 180.173H70.5093C71.5238 180.173 72.3454 179.352 72.3454 178.337C72.3454 177.323 71.5238 176.501 70.5093 176.501H65.001C63.9866 176.501 63.1649 177.323 63.1649 178.337ZM94.3787 191.19H83.3621C82.3476 191.19 81.526 192.012 81.526 193.026C81.526 194.041 82.3476 194.862 83.3621 194.862H94.3787C95.3931 194.862 96.2148 194.041 96.2148 193.026C96.2148 192.012 95.3931 191.19 94.3787 191.19ZM217.375 155.997C217.228 155.092 216.379 154.468 215.465 154.468H192.785C191.871 154.468 191.022 153.844 190.875 152.939C190.687 151.787 191.573 150.796 192.688 150.796H209.961C210.875 150.796 211.724 150.172 211.871 149.267C212.059 148.115 211.173 147.124 210.058 147.124H197.026C196.113 147.124 195.263 146.499 195.117 145.595C194.928 144.443 195.814 143.451 196.93 143.451H228.322C229.236 143.451 230.085 142.827 230.232 141.923C230.42 140.771 229.534 139.779 228.419 139.779H182.613C181.699 139.779 180.85 139.155 180.703 138.251C180.515 137.098 181.401 136.107 182.516 136.107H219.142C220.055 136.107 220.905 135.483 221.051 134.578C221.24 133.426 220.354 132.435 219.238 132.435H198.44C197.526 132.435 196.677 131.81 196.53 130.906C196.342 129.754 197.228 128.763 198.343 128.763H222.81C223.723 128.763 224.572 128.138 224.719 127.234C224.907 126.082 224.021 125.09 222.906 125.09H192.78C191.867 125.09 191.017 124.466 190.871 123.562C190.682 122.41 191.568 121.418 192.684 121.418H215.465C216.379 121.418 217.228 120.794 217.375 119.89C217.563 118.737 216.677 117.746 215.562 117.746H202.681C201.768 117.746 200.919 117.122 200.772 116.217C200.584 115.065 201.469 114.074 202.585 114.074H228.318C229.231 114.074 230.08 113.449 230.227 112.545C230.416 111.393 229.53 110.402 228.414 110.402H184.444C183.531 110.402 182.681 109.777 182.535 108.873C182.346 107.721 183.232 106.729 184.348 106.729H211.793C212.706 106.729 213.556 106.105 213.702 105.201C213.891 104.049 213.005 103.057 211.889 103.057H199.854C198.94 103.057 198.091 102.433 197.944 101.529C197.756 100.376 198.642 99.3849 199.757 99.3849H219.137C220.051 99.3849 220.9 98.7606 221.047 97.8563C221.235 96.7042 220.349 95.7127 219.234 95.7127H191.789C190.875 95.7127 190.026 95.0884 189.879 94.1841C189.691 93.032 190.577 92.0405 191.692 92.0405H217.301C218.215 92.0405 219.064 91.4162 219.211 90.5119C219.399 89.3598 218.513 88.3683 217.398 88.3683H195.461C194.547 88.3683 193.698 87.744 193.551 86.8397C193.363 85.6876 194.249 84.6961 195.364 84.6961H206.285C207.198 84.6961 208.047 84.0718 208.194 83.1675C208.382 82.0154 207.496 81.0239 206.381 81.0239H178.936C178.022 81.0239 177.173 80.3996 177.026 79.4953C176.838 78.3431 177.724 77.3517 178.839 77.3517H209.957C210.87 77.3517 211.719 76.7274 211.866 75.8231C212.055 74.6709 211.169 73.6794 210.053 73.6794H180.772C179.858 73.6794 179.009 73.0552 178.862 72.1509C178.674 70.9987 179.56 70.0072 180.676 70.0072H195.268C196.181 70.0072 197.031 69.383 197.178 68.4787C197.366 67.3265 196.48 66.335 195.364 66.335H169.755C168.842 66.335 167.993 65.7108 167.846 64.8065C167.658 63.6543 168.543 62.6628 169.659 62.6628H209.957C210.87 62.6628 211.719 62.0385 211.866 61.1343C212.055 59.9821 211.169 58.9906 210.053 58.9906H149.558C148.645 58.9906 147.796 58.3663 147.649 57.4621C147.46 56.3099 148.346 55.3184 149.462 55.3184H195.268C196.181 55.3184 197.031 54.6941 197.178 53.7898C197.366 52.6377 196.48 51.6462 195.364 51.6462H189.856C188.842 51.6462 188.02 50.8245 188.02 49.8101C188.02 48.7956 188.842 47.974 189.856 47.974H226.482C227.395 47.974 228.244 47.3497 228.391 46.4454C228.579 45.2933 227.694 44.3018 226.578 44.3018H189.952C189.039 44.3018 188.19 43.6775 188.043 42.7732C187.855 41.6211 188.741 40.6296 189.856 40.6296H213.629C214.542 40.6296 215.392 40.0053 215.539 39.101C215.727 37.9489 214.841 36.9574 213.725 36.9574H167.919C167.006 36.9574 166.157 36.3331 166.01 35.4288C165.821 34.2767 166.707 33.2852 167.823 33.2852H230.154C231.067 33.2852 231.917 32.6609 232.063 31.7566C232.252 30.6045 231.366 29.613 230.25 29.613H197.508C196.764 29.613 196.039 29.2641 195.635 28.6352C195.323 28.1533 195.328 27.7401 195.419 27.3546C195.029 26.8772 194.635 26.4044 194.235 25.9362H204.448C205.362 25.9362 206.211 25.3119 206.358 24.4076C206.546 23.2554 205.66 22.264 204.545 22.264H162.411C161.497 22.264 160.648 21.6397 160.501 20.7354C160.313 19.5832 161.199 18.5917 162.315 18.5917H197.104C198.018 18.5917 198.867 17.9675 199.014 17.0632C199.202 15.911 198.316 14.9195 197.2 14.9195H175.264C174.35 14.9195 173.501 14.2953 173.354 13.391C173.166 12.2388 174.052 11.2473 175.167 11.2473H189.76C190.673 11.2473 191.522 10.6231 191.669 9.71878C191.857 8.56662 190.971 7.57513 189.856 7.57513H155.066C154.153 7.57513 153.304 6.95085 153.157 6.04657C152.969 4.89442 153.855 3.90292 154.97 3.90292H175.071C175.984 3.90292 176.833 3.27864 176.98 2.37436C177.169 1.22221 176.283 0.230713 175.167 0.230713H101.819C100.906 0.230713 100.057 0.854988 99.91 1.75927C99.7217 2.91142 100.608 3.90292 101.723 3.90292H118.152C119.065 3.90292 119.914 4.52719 120.061 5.43148C120.249 6.58363 119.363 7.57513 118.248 7.57513H79.7863C78.8728 7.57513 78.0236 8.1994 77.8767 9.10368C77.6885 10.2558 78.5744 11.2473 79.6899 11.2473H114.479C115.393 11.2473 116.242 11.8716 116.389 12.7759C116.577 13.928 115.691 14.9195 114.576 14.9195H59.5891C58.6757 14.9195 57.8265 15.5438 57.6796 16.4481C57.4914 17.6003 58.3773 18.5917 59.4927 18.5917H94.2823C95.1958 18.5917 96.0449 19.216 96.1918 20.1203C96.38 21.2725 95.4941 22.264 94.3787 22.264H76.1141C75.2006 22.264 74.3514 22.8882 74.2045 23.7925C74.0163 24.9447 74.9022 25.9362 76.0177 25.9362H85.1018C86.0152 25.9362 86.8644 26.5604 87.0113 27.4647C87.1995 28.6169 86.3136 29.6084 85.1982 29.6084H66.9335C66.0201 29.6084 65.1709 30.2326 65.024 31.1369C64.8358 32.2891 65.7217 33.2806 66.8371 33.2806H101.627C102.54 33.2806 103.389 33.9049 103.536 34.8091C103.724 35.9613 102.839 36.9528 101.723 36.9528H59.5891C58.6757 36.9528 57.8265 37.5771 57.6796 38.4813C57.4914 39.6335 58.3773 40.625 59.4927 40.625H82.2742C83.1876 40.625 84.0368 41.2493 84.1837 42.1535C84.3719 43.3057 83.486 44.2972 82.3706 44.2972H65.0974C64.184 44.2972 63.3348 44.9215 63.1879 45.8258C62.9997 46.9779 63.8856 47.9694 65.001 47.9694H94.3787C95.3931 47.9694 96.2148 48.7911 96.2148 49.8055C96.2148 50.82 95.3931 51.6416 94.3787 51.6416H61.4252C60.5118 51.6416 59.6626 52.2659 59.5157 53.1702C59.3275 54.3223 60.2134 55.3138 61.3288 55.3138H116.316C117.229 55.3138 118.078 55.9381 118.225 56.8424C118.413 57.9945 117.527 58.986 116.412 58.986H77.9502C77.0367 58.986 76.1875 59.6103 76.0406 60.5146C75.8524 61.6667 76.7383 62.6582 77.8538 62.6582H92.4462C93.3596 62.6582 94.2088 63.2825 94.3557 64.1868C94.5439 65.3389 93.658 66.3304 92.5426 66.3304H48.5725C47.659 66.3304 46.8098 66.9547 46.663 67.859C46.4748 69.0111 47.3607 70.0026 48.4761 70.0026H112.639C113.552 70.0026 114.401 70.6269 114.548 71.5312C114.736 72.6834 113.851 73.6749 112.735 73.6749H72.4418C71.5284 73.6749 70.6792 74.2991 70.5323 75.2034C70.3441 76.3556 71.23 77.3471 72.3454 77.3471H85.1018C86.0152 77.3471 86.8644 77.9713 87.0113 78.8756C87.1995 80.0278 86.3136 81.0193 85.1982 81.0193H55.9169C55.0034 81.0193 54.1543 81.6435 54.0074 82.5478C53.8192 83.7 54.7051 84.6915 55.8205 84.6915H119.983C120.897 84.6915 121.746 85.3158 121.893 86.22C122.081 87.3722 121.195 88.3637 120.08 88.3637H61.4252C60.5118 88.3637 59.6626 88.988 59.5157 89.8922C59.3275 91.0444 60.2134 92.0359 61.3288 92.0359H72.2491C73.1625 92.0359 74.0117 92.6602 74.1586 93.5644C74.3468 94.7166 73.4609 95.7081 72.3454 95.7081H57.753C56.8396 95.7081 55.9904 96.3324 55.8435 97.2366C55.6553 98.3888 56.5412 99.3803 57.6566 99.3803H96.3938C97.3073 99.3803 98.1565 100.005 98.3034 100.909C98.4916 102.061 97.6056 103.053 96.4902 103.053H61.4252C60.5118 103.053 59.6626 103.677 59.5157 104.581C59.3275 105.733 60.2134 106.725 61.3288 106.725H79.5935C80.5069 106.725 81.3561 107.349 81.503 108.253C81.6912 109.405 80.8053 110.397 79.6899 110.397H61.4252C60.5118 110.397 59.6626 111.021 59.5157 111.925C59.3275 113.078 60.2134 114.069 61.3288 114.069H94.98C95.8935 114.069 96.7427 114.693 96.8896 115.598C97.0778 116.75 96.1918 117.741 95.0764 117.741H48.5725C47.659 117.741 46.8098 118.366 46.663 119.27C46.4748 120.422 47.3607 121.414 48.4761 121.414H66.7407C67.6542 121.414 68.5034 122.038 68.6503 122.942C68.8385 124.094 67.9526 125.086 66.8371 125.086H55.9169C55.0034 125.086 54.1543 125.71 54.0074 126.614C53.8192 127.766 54.7051 128.758 55.8205 128.758H90.734C91.6475 128.758 92.4967 129.382 92.6436 130.287C92.8318 131.439 91.9459 132.43 90.8304 132.43H61.4252C60.5118 132.43 59.6626 133.054 59.5157 133.959C59.3275 135.111 60.2134 136.102 61.3288 136.102H108.971C109.885 136.102 110.734 136.727 110.881 137.631C111.069 138.783 110.183 139.775 109.068 139.775H54.0808C53.1673 139.775 52.3181 140.399 52.1713 141.303C51.9831 142.455 52.869 143.447 53.9844 143.447H70.4129C71.3264 143.447 72.1756 144.071 72.3225 144.975C72.5107 146.128 71.6248 147.119 70.5093 147.119H48.5725C47.659 147.119 46.8098 147.743 46.663 148.648C46.4748 149.8 47.3607 150.791 48.4761 150.791H85.1018C86.0152 150.791 86.8644 151.415 87.0113 152.32C87.1995 153.472 86.3136 154.463 85.1982 154.463H61.4252C60.5118 154.463 59.6626 155.088 59.5157 155.992C59.3275 157.144 60.2134 158.136 61.3288 158.136H107.135C108.048 158.136 108.898 158.76 109.045 159.664C109.233 160.816 108.347 161.808 107.231 161.808H44.9003C43.9868 161.808 43.1376 162.432 42.9907 163.336C42.8025 164.489 43.6885 165.48 44.8039 165.48H77.5462C78.2898 165.48 79.0151 165.829 79.419 166.458C79.7312 166.94 79.7266 167.353 79.6348 167.738C80.0249 168.216 80.4197 168.689 80.8191 169.157H70.6057C69.6923 169.157 68.8431 169.781 68.6962 170.685C68.508 171.838 69.3939 172.829 70.5093 172.829H112.643C113.557 172.829 114.406 173.453 114.553 174.358C114.741 175.51 113.855 176.501 112.74 176.501H77.9502C77.0367 176.501 76.1875 177.126 76.0406 178.03C75.8524 179.182 76.7383 180.173 77.8538 180.173H99.7906C100.704 180.173 101.553 180.798 101.7 181.702C101.888 182.854 101.002 183.846 99.887 183.846H85.2946C84.3811 183.846 83.5319 184.47 83.385 185.374C83.1968 186.526 84.0827 187.518 85.1982 187.518H119.988C120.901 187.518 121.75 188.142 121.897 189.046C122.085 190.199 121.2 191.19 120.084 191.19H99.9834C99.0699 191.19 98.2207 191.814 98.0738 192.719C97.8856 193.871 98.7716 194.862 99.887 194.862H173.235C174.148 194.862 174.997 194.238 175.144 193.334C175.332 192.182 174.447 191.19 173.331 191.19H156.903C155.989 191.19 155.14 190.566 154.993 189.661C154.805 188.509 155.691 187.518 156.806 187.518H195.268C196.181 187.518 197.031 186.894 197.178 185.989C197.366 184.837 196.48 183.846 195.364 183.846H160.575C159.661 183.846 158.812 183.221 158.665 182.317C158.477 181.165 159.363 180.173 160.478 180.173H215.465C216.379 180.173 217.228 179.549 217.375 178.645C217.563 177.493 216.677 176.501 215.562 176.501H180.772C179.858 176.501 179.009 175.877 178.862 174.973C178.674 173.821 179.56 172.829 180.676 172.829H198.94C199.854 172.829 200.703 172.205 200.85 171.3C201.038 170.148 200.152 169.157 199.037 169.157H189.952C189.039 169.157 188.19 168.533 188.043 167.628C187.855 166.476 188.741 165.485 189.856 165.485H208.121C209.034 165.485 209.883 164.86 210.03 163.956C210.218 162.804 209.333 161.812 208.217 161.812H173.428C172.514 161.812 171.665 161.188 171.518 160.284C171.33 159.132 172.216 158.14 173.331 158.14H215.562C216.677 158.14 217.558 157.144 217.375 155.997ZM204.545 169.157C203.53 169.157 202.709 169.978 202.709 170.993C202.709 172.007 203.53 172.829 204.545 172.829H211.889C212.904 172.829 213.725 172.007 213.725 170.993C213.725 169.978 212.904 169.157 211.889 169.157H204.545Z" fill="#8EF102"/>
<path d="M103.316 39.225C103.316 32.1744 97.5046 26.4595 90.3346 26.4595C88.6316 26.4595 87.0113 26.7854 85.524 27.3684C84.0184 22.7138 79.7174 19.2849 74.5671 18.9866C71.5788 12.3858 64.8541 7.78174 57.0323 7.78174C47.0852 7.78174 38.91 15.2225 37.9368 24.7565C36.8627 24.4995 35.7381 24.3572 34.5859 24.3572C26.8284 24.3572 20.5352 30.5448 20.5352 38.1738C20.5352 45.8028 26.8284 51.9951 34.5859 51.9951H90.9819L90.991 51.9767C97.8581 51.6462 103.32 46.0645 103.32 39.2296L103.316 39.225Z" fill="white"/>
<path d="M271.847 126.729C271.847 121.087 267.197 116.516 261.464 116.516C260.105 116.516 258.806 116.777 257.613 117.245C256.41 113.523 252.968 110.778 248.846 110.539C246.454 105.256 241.074 101.574 234.818 101.574C226.863 101.574 220.317 107.528 219.541 115.152C218.683 114.946 217.783 114.831 216.861 114.831C210.655 114.831 205.619 119.779 205.619 125.884C205.619 131.989 210.65 136.938 216.861 136.938H261.978V136.924C267.477 136.658 271.847 132.191 271.847 126.724V126.729Z" fill="white"/>
<path d="M114.553 187.086C114.553 182.854 111.064 179.425 106.763 179.425C105.744 179.425 104.771 179.622 103.876 179.971C102.972 177.18 100.392 175.124 97.3028 174.945C95.508 170.984 91.4732 168.22 86.782 168.22C80.8146 168.22 75.9076 172.687 75.3247 178.401C74.6774 178.245 74.0073 178.163 73.3141 178.163C68.6596 178.163 64.8818 181.876 64.8818 186.453C64.8818 191.029 68.655 194.743 73.3141 194.743H107.149V194.734C111.276 194.536 114.553 191.185 114.553 187.086Z" fill="white"/>
<path d="M175.28 27.8189H173.721C173.596 26.1549 172.268 24.8218 170.604 24.7015V23.1428H170.103V24.7015C168.439 24.8268 167.106 26.1549 166.985 27.8189H165.427V28.32H166.985C167.111 29.984 168.439 31.3171 170.103 31.4374V32.9961H170.604V31.4374C172.268 31.3121 173.601 29.984 173.721 28.32H175.28V27.8189ZM170.604 30.9362V29.6532H170.103V30.9362C168.715 30.8159 167.607 29.7083 167.487 28.32H168.77V27.8189H167.487C167.607 26.4306 168.715 25.323 170.103 25.2027V26.4857H170.604V25.2027C171.992 25.323 173.1 26.4306 173.22 27.8189H171.937V28.32H173.22C173.1 29.7083 171.992 30.8159 170.604 30.9362Z" fill="#375E08"/>
<path d="M124.659 176.67H123.1C122.975 175.006 121.647 173.673 119.983 173.553V171.994H119.482V173.553C117.818 173.678 116.485 175.006 116.364 176.67H114.806V177.171H116.364C116.49 178.835 117.818 180.168 119.482 180.288V181.847H119.983V180.288C121.647 180.163 122.98 178.835 123.1 177.171H124.659V176.67ZM119.983 179.787V178.504H119.482V179.787C118.093 179.667 116.986 178.559 116.866 177.171H118.149V176.67H116.866C116.986 175.282 118.093 174.174 119.482 174.054V175.337H119.983V174.054C121.371 174.174 122.479 175.282 122.599 176.67H121.316V177.171H122.599C122.479 178.559 121.371 179.667 119.983 179.787Z" fill="#375E08"/>
<path d="M49.9831 86.9082H48.4245C48.2992 85.2443 46.971 83.9111 45.3071 83.7909V82.2322H44.8059V83.7909C43.142 83.9162 41.8088 85.2443 41.6886 86.9082H40.1299V87.4094H41.6886C41.8139 89.0733 43.142 90.4065 44.8059 90.5267V92.0854H45.3071V90.5267C46.971 90.4015 48.3042 89.0733 48.4245 87.4094H49.9831V86.9082ZM45.3071 90.0256V88.7425H44.8059V90.0256C43.4176 89.9053 42.31 88.7977 42.1897 87.4094H43.4728V86.9082H42.1897C42.31 85.5199 43.4176 84.4123 44.8059 84.292V85.5751H45.3071V84.292C46.6954 84.4123 47.803 85.5199 47.9233 86.9082H46.6402V87.4094H47.9233C47.803 88.7977 46.6954 89.9053 45.3071 90.0256Z" fill="#375E08"/>
<path d="M215.297 101.235H182.888V102.608H215.297V101.235Z" fill="#BFD196"/>
<path d="M165.721 67.2601H164.348V48.501H192.5V49.8743H165.721V67.2601Z" fill="#BFD196"/>
<path d="M141.003 29.7031H139.63V59.3496H141.003V29.7031Z" fill="#BFD196"/>
<path d="M144.711 29.7031C144.711 32.1311 142.744 34.0976 140.316 34.0976C137.888 34.0976 135.922 32.1311 135.922 29.7031C135.922 27.2751 137.888 25.3086 140.316 25.3086C142.744 25.3086 144.711 27.2751 144.711 29.7031Z" fill="#BFD196"/>
<path d="M140.316 32.999C138.498 32.999 137.021 31.5213 137.021 29.7031C137.021 27.8849 138.498 26.4072 140.316 26.4072C142.135 26.4072 143.612 27.8849 143.612 29.7031C143.612 31.5213 142.135 32.999 140.316 32.999Z" fill="#C1693B"/>
<path d="M144.711 59.3496C144.711 61.7776 142.744 63.7441 140.316 63.7441C137.888 63.7441 135.922 61.7776 135.922 59.3496C135.922 56.9216 137.888 54.9551 140.316 54.9551C142.744 54.9551 144.711 56.9216 144.711 59.3496Z" fill="#BFD196"/>
<path d="M140.316 62.6455C138.498 62.6455 137.021 61.1678 137.021 59.3496C137.021 57.5314 138.498 56.0537 140.316 56.0537C142.135 56.0537 143.612 57.5314 143.612 59.3496C143.612 61.1678 142.135 62.6455 140.316 62.6455Z" fill="#C1693B"/>
<path d="M215.298 106.316C217.725 106.316 219.692 104.349 219.692 101.922C219.692 99.4946 217.725 97.5271 215.298 97.5271C212.871 97.5271 210.903 99.4946 210.903 101.922C210.903 104.349 212.871 106.316 215.298 106.316Z" fill="#BFD196"/>
<path d="M215.296 105.217C217.116 105.217 218.592 103.742 218.592 101.922C218.592 100.101 217.116 98.6257 215.296 98.6257C213.476 98.6257 212 100.101 212 101.922C212 103.742 213.476 105.217 215.296 105.217Z" fill="#C1693B"/>
<path d="M182.887 106.316C185.314 106.316 187.281 104.349 187.281 101.922C187.281 99.4946 185.314 97.5271 182.887 97.5271C180.46 97.5271 178.492 99.4946 178.492 101.922C178.492 104.349 180.46 106.316 182.887 106.316Z" fill="#BFD196"/>
<path d="M182.887 105.217C184.707 105.217 186.183 103.742 186.183 101.922C186.183 100.101 184.707 98.6257 182.887 98.6257C181.066 98.6257 179.591 100.101 179.591 101.922C179.591 103.742 181.066 105.217 182.887 105.217Z" fill="#C1693B"/>
<path d="M97.7437 101.235H44.1855V102.608H97.7437V101.235Z" fill="#BFD196"/>
<path d="M44.1855 106.316C46.6125 106.316 48.58 104.349 48.58 101.922C48.58 99.4946 46.6125 97.5271 44.1855 97.5271C41.7585 97.5271 39.791 99.4946 39.791 101.922C39.791 104.349 41.7585 106.316 44.1855 106.316Z" fill="#BFD196"/>
<path d="M44.1855 105.217C46.0058 105.217 47.4814 103.742 47.4814 101.922C47.4814 100.101 46.0058 98.6257 44.1855 98.6257C42.3653 98.6257 40.8896 100.101 40.8896 101.922C40.8896 103.742 42.3653 105.217 44.1855 105.217Z" fill="#C1693B"/>
<path d="M97.7431 106.316C100.17 106.316 102.138 104.349 102.138 101.922C102.138 99.4946 100.17 97.5271 97.7431 97.5271C95.3161 97.5271 93.3486 99.4946 93.3486 101.922C93.3486 104.349 95.3161 106.316 97.7431 106.316Z" fill="#BFD196"/>
<path d="M97.7431 105.217C99.5634 105.217 101.039 103.742 101.039 101.922C101.039 100.101 99.5634 98.6257 97.7431 98.6257C95.9229 98.6257 94.4473 100.101 94.4473 101.922C94.4473 103.742 95.9229 105.217 97.7431 105.217Z" fill="#C1693B"/>
<path d="M141.003 144.493H139.63V181.847H141.003V144.493Z" fill="#BFD196"/>
<path d="M140.316 186.241C142.743 186.241 144.711 184.274 144.711 181.847C144.711 179.42 142.743 177.452 140.316 177.452C137.889 177.452 135.922 179.42 135.922 181.847C135.922 184.274 137.889 186.241 140.316 186.241Z" fill="#BFD196"/>
<path d="M140.316 185.143C142.137 185.143 143.612 183.667 143.612 181.847C143.612 180.026 142.137 178.551 140.316 178.551C138.496 178.551 137.021 180.026 137.021 181.847C137.021 183.667 138.496 185.143 140.316 185.143Z" fill="#C1693B"/>
<path d="M140.316 148.888C142.743 148.888 144.711 146.92 144.711 144.493C144.711 142.066 142.743 140.099 140.316 140.099C137.889 140.099 135.922 142.066 135.922 144.493C135.922 146.92 137.889 148.888 140.316 148.888Z" fill="#BFD196"/>
<path d="M140.316 147.789C142.137 147.789 143.612 146.313 143.612 144.493C143.612 142.673 142.137 141.197 140.316 141.197C138.496 141.197 137.021 142.673 137.021 144.493C137.021 146.313 138.496 147.789 140.316 147.789Z" fill="#C1693B"/>
<path d="M196.895 49.1875C196.895 51.6154 194.929 53.582 192.501 53.582C190.073 53.582 188.106 51.6154 188.106 49.1875C188.106 46.7595 190.073 44.793 192.501 44.793C194.929 44.793 196.895 46.7595 196.895 49.1875Z" fill="#BFD196"/>
<path d="M192.5 52.4831C190.682 52.4831 189.204 51.0055 189.204 49.1872C189.204 47.369 190.682 45.8914 192.5 45.8914C194.318 45.8914 195.796 47.369 195.796 49.1872C195.796 51.0055 194.318 52.4831 192.5 52.4831Z" fill="#C1693B"/>
<path d="M169.429 49.1875C169.429 51.6154 167.462 53.582 165.034 53.582C162.606 53.582 160.64 51.6154 160.64 49.1875C160.64 46.7595 162.606 44.793 165.034 44.793C167.462 44.793 169.429 46.7595 169.429 49.1875Z" fill="#BFD196"/>
<path d="M165.034 52.4831C163.216 52.4831 161.738 51.0055 161.738 49.1872C161.738 47.369 163.216 45.8914 165.034 45.8914C166.852 45.8914 168.33 47.369 168.33 49.1872C168.33 51.0055 166.852 52.4831 165.034 52.4831Z" fill="#C1693B"/>
<path d="M169.429 67.2597C169.429 69.6877 167.462 71.6543 165.034 71.6543C162.606 71.6543 160.64 69.6877 160.64 67.2597C160.64 64.8318 162.606 62.8652 165.034 62.8652C167.462 62.8652 169.429 64.8318 169.429 67.2597Z" fill="#BFD196"/>
<path d="M165.034 70.5559C163.216 70.5559 161.738 69.0782 161.738 67.26C161.738 65.4418 163.216 63.9641 165.034 63.9641C166.852 63.9641 168.33 65.4418 168.33 67.26C168.33 69.0782 166.852 70.5559 165.034 70.5559Z" fill="#C1693B"/>
<path d="M103.051 82.0093H71.7891V56.2629H73.1623V80.636H103.051V82.0093Z" fill="#BFD196"/>
<path d="M76.8701 56.2627C76.8701 58.6906 74.9035 60.6572 72.4756 60.6572C70.0476 60.6572 68.0811 58.6906 68.0811 56.2627C68.0811 53.8347 70.0476 51.8682 72.4756 51.8682C74.9035 51.8682 76.8701 53.8347 76.8701 56.2627Z" fill="#BFD196"/>
<path d="M72.4756 59.5586C70.6573 59.5586 69.1797 58.0809 69.1797 56.2627C69.1797 54.4445 70.6573 52.9668 72.4756 52.9668C74.2938 52.9668 75.7715 54.4445 75.7715 56.2627C75.7715 58.0809 74.2938 59.5586 72.4756 59.5586Z" fill="#C1693B"/>
<path d="M76.8701 81.3225C76.8701 83.7505 74.9035 85.717 72.4756 85.717C70.0476 85.717 68.0811 83.7505 68.0811 81.3225C68.0811 78.8945 70.0476 76.928 72.4756 76.928C74.9035 76.928 76.8701 78.8945 76.8701 81.3225Z" fill="#BFD196"/>
<path d="M72.4756 84.6184C70.6573 84.6184 69.1797 83.1407 69.1797 81.3225C69.1797 79.5043 70.6573 78.0266 72.4756 78.0266C74.2938 78.0266 75.7715 79.5043 75.7715 81.3225C75.7715 83.1407 74.2938 84.6184 72.4756 84.6184Z" fill="#C1693B"/>
<path d="M107.445 81.3225C107.445 83.7505 105.479 85.717 103.051 85.717C100.623 85.717 98.6562 83.7505 98.6562 81.3225C98.6562 78.8945 100.623 76.928 103.051 76.928C105.479 76.928 107.445 78.8945 107.445 81.3225Z" fill="#BFD196"/>
<path d="M103.051 84.6184C101.233 84.6184 99.7549 83.1407 99.7549 81.3225C99.7549 79.5043 101.233 78.0266 103.051 78.0266C104.869 78.0266 106.347 79.5043 106.347 81.3225C106.347 83.1407 104.869 84.6184 103.051 84.6184Z" fill="#C1693B"/>
<path d="M118.238 160.561H82.6367V159.188H116.864V137.902H118.238V160.561Z" fill="#BFD196"/>
<path d="M82.6377 164.269C85.0647 164.269 87.0322 162.301 87.0322 159.874C87.0322 157.447 85.0647 155.479 82.6377 155.479C80.2107 155.479 78.2432 157.447 78.2432 159.874C78.2432 162.301 80.2107 164.269 82.6377 164.269Z" fill="#BFD196"/>
<path d="M82.6377 163.17C84.4579 163.17 85.9336 161.694 85.9336 159.874C85.9336 158.054 84.4579 156.578 82.6377 156.578C80.8174 156.578 79.3418 158.054 79.3418 159.874C79.3418 161.694 80.8174 163.17 82.6377 163.17Z" fill="#C1693B"/>
<path d="M117.553 164.269C119.98 164.269 121.947 162.301 121.947 159.874C121.947 157.447 119.98 155.48 117.553 155.48C115.126 155.48 113.158 157.447 113.158 159.874C113.158 162.301 115.126 164.269 117.553 164.269Z" fill="#BFD196"/>
<path d="M117.553 163.17C119.373 163.17 120.849 161.695 120.849 159.874C120.849 158.054 119.373 156.578 117.553 156.578C115.732 156.578 114.257 158.054 114.257 159.874C114.257 161.695 115.732 163.17 117.553 163.17Z" fill="#C1693B"/>
<path d="M117.553 142.296C119.98 142.296 121.947 140.329 121.947 137.902C121.947 135.475 119.98 133.507 117.553 133.507C115.126 133.507 113.158 135.475 113.158 137.902C113.158 140.329 115.126 142.296 117.553 142.296Z" fill="#BFD196"/>
<path d="M117.553 141.197C119.373 141.197 120.849 139.722 120.849 137.902C120.849 136.081 119.373 134.606 117.553 134.606C115.732 134.606 114.257 136.081 114.257 137.902C114.257 139.722 115.732 141.197 117.553 141.197Z" fill="#C1693B"/>
<path d="M103.632 122.845H76.3203V124.218H103.632V122.845Z" fill="#BFD196"/>
<path d="M76.3203 127.926C78.7473 127.926 80.7148 125.958 80.7148 123.531C80.7148 121.104 78.7473 119.137 76.3203 119.137C73.8933 119.137 71.9258 121.104 71.9258 123.531C71.9258 125.958 73.8933 127.926 76.3203 127.926Z" fill="#BFD196"/>
<path d="M76.3203 126.827C78.1406 126.827 79.6162 125.352 79.6162 123.531C79.6162 121.711 78.1406 120.236 76.3203 120.236C74.5 120.236 73.0244 121.711 73.0244 123.531C73.0244 125.352 74.5 126.827 76.3203 126.827Z" fill="#C1693B"/>
<path d="M103.632 127.926C106.059 127.926 108.026 125.958 108.026 123.531C108.026 121.104 106.059 119.137 103.632 119.137C101.205 119.137 99.2373 121.104 99.2373 123.531C99.2373 125.958 101.205 127.926 103.632 127.926Z" fill="#BFD196"/>
<path d="M103.632 126.827C105.452 126.827 106.928 125.352 106.928 123.531C106.928 121.711 105.452 120.236 103.632 120.236C101.812 120.236 100.336 121.711 100.336 123.531C100.336 125.352 101.812 126.827 103.632 126.827Z" fill="#C1693B"/>
<path d="M226.283 80.6355H177.575V82.0088H226.283V80.6355Z" fill="#BFD196"/>
<path d="M230.678 81.3222C230.678 83.7502 228.711 85.7168 226.283 85.7168C223.855 85.7168 221.889 83.7502 221.889 81.3222C221.889 78.8943 223.855 76.9277 226.283 76.9277C228.711 76.9277 230.678 78.8943 230.678 81.3222Z" fill="#BFD196"/>
<path d="M226.283 84.6181C224.465 84.6181 222.987 83.1405 222.987 81.3223C222.987 79.504 224.465 78.0264 226.283 78.0264C228.101 78.0264 229.579 79.504 229.579 81.3223C229.579 83.1405 228.101 84.6181 226.283 84.6181Z" fill="#C1693B"/>
<path d="M181.97 81.3222C181.97 83.7502 180.003 85.7168 177.575 85.7168C175.147 85.7168 173.181 83.7502 173.181 81.3222C173.181 78.8943 175.147 76.9277 177.575 76.9277C180.003 76.9277 181.97 78.8943 181.97 81.3222Z" fill="#BFD196"/>
<path d="M177.575 84.6181C175.757 84.6181 174.279 83.1405 174.279 81.3223C174.279 79.504 175.757 78.0264 177.575 78.0264C179.393 78.0264 180.871 79.504 180.871 81.3223C180.871 83.1405 179.393 84.6181 177.575 84.6181Z" fill="#C1693B"/>
<path d="M164.899 137.902H163.525V163.72H164.899V137.902Z" fill="#BFD196"/>
<path d="M164.212 168.114C166.639 168.114 168.606 166.147 168.606 163.72C168.606 161.293 166.639 159.325 164.212 159.325C161.785 159.325 159.817 161.293 159.817 163.72C159.817 166.147 161.785 168.114 164.212 168.114Z" fill="#BFD196"/>
<path d="M164.212 167.016C166.032 167.016 167.508 165.54 167.508 163.72C167.508 161.899 166.032 160.424 164.212 160.424C162.392 160.424 160.916 161.899 160.916 163.72C160.916 165.54 162.392 167.016 164.212 167.016Z" fill="#C1693B"/>
<path d="M164.212 142.296C166.639 142.296 168.606 140.329 168.606 137.902C168.606 135.475 166.639 133.507 164.212 133.507C161.785 133.507 159.817 135.475 159.817 137.902C159.817 140.329 161.785 142.296 164.212 142.296Z" fill="#BFD196"/>
<path d="M164.212 141.198C166.032 141.198 167.508 139.722 167.508 137.902C167.508 136.082 166.032 134.606 164.212 134.606C162.392 134.606 160.916 136.082 160.916 137.902C160.916 139.722 162.392 141.198 164.212 141.198Z" fill="#C1693B"/>
<path d="M117.108 42.0461H115.734V66.7653H117.108V42.0461Z" fill="#BFD196"/>
<path d="M120.815 42.0461C120.815 44.4741 118.849 46.4406 116.421 46.4406C113.993 46.4406 112.026 44.4741 112.026 42.0461C112.026 39.6182 113.993 37.6516 116.421 37.6516C118.849 37.6516 120.815 39.6182 120.815 42.0461Z" fill="#BFD196"/>
<path d="M116.421 45.342C114.603 45.342 113.125 43.8644 113.125 42.0461C113.125 40.2279 114.603 38.7502 116.421 38.7502C118.239 38.7502 119.717 40.2279 119.717 42.0461C119.717 43.8644 118.239 45.342 116.421 45.342Z" fill="#C1693B"/>
<path d="M120.815 66.7651C120.815 69.1931 118.849 71.1596 116.421 71.1596C113.993 71.1596 112.026 69.1931 112.026 66.7651C112.026 64.3371 113.993 62.3706 116.421 62.3706C118.849 62.3706 120.815 64.3371 120.815 66.7651Z" fill="#BFD196"/>
<path d="M116.421 70.061C114.603 70.061 113.125 68.5834 113.125 66.7651C113.125 64.9469 114.603 63.4692 116.421 63.4692C118.239 63.4692 119.717 64.9469 119.717 66.7651C119.717 68.5834 118.239 70.061 116.421 70.061Z" fill="#C1693B"/>
<path d="M198.68 165.367H197.307V123.735H176.845V122.362H198.68V165.367Z" fill="#BFD196"/>
<path d="M197.992 169.762C200.419 169.762 202.387 167.795 202.387 165.368C202.387 162.941 200.419 160.973 197.992 160.973C195.565 160.973 193.598 162.941 193.598 165.368C193.598 167.795 195.565 169.762 197.992 169.762Z" fill="#BFD196"/>
<path d="M197.992 168.664C199.812 168.664 201.288 167.188 201.288 165.368C201.288 163.547 199.812 162.072 197.992 162.072C196.172 162.072 194.696 163.547 194.696 165.368C194.696 167.188 196.172 168.664 197.992 168.664Z" fill="#C1693B"/>
<path d="M197.992 127.443C200.419 127.443 202.387 125.475 202.387 123.048C202.387 120.621 200.419 118.654 197.992 118.654C195.565 118.654 193.598 120.621 193.598 123.048C193.598 125.475 195.565 127.443 197.992 127.443Z" fill="#BFD196"/>
<path d="M197.992 126.344C199.812 126.344 201.288 124.869 201.288 123.048C201.288 121.228 199.812 119.752 197.992 119.752C196.172 119.752 194.696 121.228 194.696 123.048C194.696 124.869 196.172 126.344 197.992 126.344Z" fill="#C1693B"/>
<path d="M176.845 127.443C179.272 127.443 181.239 125.475 181.239 123.048C181.239 120.621 179.272 118.654 176.845 118.654C174.418 118.654 172.45 120.621 172.45 123.048C172.45 125.475 174.418 127.443 176.845 127.443Z" fill="#BFD196"/>
<path d="M176.845 126.344C178.665 126.344 180.141 124.869 180.141 123.048C180.141 121.228 178.665 119.752 176.845 119.752C175.024 119.752 173.549 121.228 173.549 123.048C173.549 124.869 175.024 126.344 176.845 126.344Z" fill="#C1693B"/>
<path d="M93.0746 140.785H69.4541V142.159H93.0746V140.785Z" fill="#BFD196"/>
<path d="M69.4541 145.867C71.8811 145.867 73.8486 143.899 73.8486 141.472C73.8486 139.045 71.8811 137.078 69.4541 137.078C67.0271 137.078 65.0596 139.045 65.0596 141.472C65.0596 143.899 67.0271 145.867 69.4541 145.867Z" fill="#BFD196"/>
<path d="M69.4541 144.768C71.2744 144.768 72.75 143.292 72.75 141.472C72.75 139.652 71.2744 138.176 69.4541 138.176C67.6338 138.176 66.1582 139.652 66.1582 141.472C66.1582 143.292 67.6338 144.768 69.4541 144.768Z" fill="#C1693B"/>
<path d="M93.0752 145.867C95.5022 145.867 97.4697 143.899 97.4697 141.472C97.4697 139.045 95.5022 137.078 93.0752 137.078C90.6482 137.078 88.6807 139.045 88.6807 141.472C88.6807 143.899 90.6482 145.867 93.0752 145.867Z" fill="#BFD196"/>
<path d="M93.0752 144.768C94.8954 144.768 96.3711 143.292 96.3711 141.472C96.3711 139.652 94.8954 138.176 93.0752 138.176C91.2549 138.176 89.7793 139.652 89.7793 141.472C89.7793 143.292 91.2549 144.768 93.0752 144.768Z" fill="#C1693B"/>
<path d="M179.454 145.318H178.081V174.981H179.454V145.318Z" fill="#BFD196"/>
<path d="M178.768 179.375C181.195 179.375 183.162 177.408 183.162 174.981C183.162 172.554 181.195 170.586 178.768 170.586C176.341 170.586 174.373 172.554 174.373 174.981C174.373 177.408 176.341 179.375 178.768 179.375Z" fill="#BFD196"/>
<path d="M178.768 178.277C180.588 178.277 182.063 176.801 182.063 174.981C182.063 173.16 180.588 171.685 178.768 171.685C176.947 171.685 175.472 173.16 175.472 174.981C175.472 176.801 176.947 178.277 178.768 178.277Z" fill="#C1693B"/>
<path d="M178.768 149.712C181.195 149.712 183.162 147.745 183.162 145.318C183.162 142.891 181.195 140.923 178.768 140.923C176.341 140.923 174.373 142.891 174.373 145.318C174.373 147.745 176.341 149.712 178.768 149.712Z" fill="#BFD196"/>
<path d="M178.768 148.613C180.588 148.613 182.063 147.138 182.063 145.318C182.063 143.497 180.588 142.022 178.768 142.022C176.947 142.022 175.472 143.497 175.472 145.318C175.472 147.138 176.947 148.613 178.768 148.613Z" fill="#C1693B"/>
<path d="M140.316 134.881C158.519 134.881 173.275 120.124 173.275 101.922C173.275 83.7191 158.519 68.9629 140.316 68.9629C122.114 68.9629 107.357 83.7191 107.357 101.922C107.357 120.124 122.114 134.881 140.316 134.881Z" fill="#69CF00"/>
<path d="M168.881 101.922C168.881 117.698 156.093 130.486 140.316 130.486C124.54 130.486 111.752 117.698 111.752 101.922C111.752 86.1455 124.54 73.3574 140.316 73.3574C156.093 73.3574 168.881 86.1455 168.881 101.922Z" fill="#212121"/>
<path d="M207.32 21.7052C207.278 21.7052 207.237 21.7052 207.19 21.7L206.542 21.6269C205.92 21.5589 205.475 20.9945 205.543 20.3726L205.721 18.8049C205.293 18.6742 204.874 18.5122 204.467 18.3084L203.531 19.5783C203.176 20.0591 202.434 20.1741 201.948 19.8135L201.425 19.4268C201.185 19.2491 201.023 18.9826 200.976 18.6847C200.929 18.3868 201.002 18.0889 201.185 17.8433L202.126 16.5682C201.817 16.239 201.535 15.8889 201.284 15.5126L199.837 16.1449C199.283 16.3905 198.593 16.1188 198.347 15.5596L198.086 14.9639C197.966 14.6869 197.961 14.3786 198.07 14.0964C198.18 13.8142 198.394 13.5947 198.671 13.4745L200.119 12.8422C200.014 12.4032 199.946 11.9538 199.915 11.5096L198.347 11.3319C198.049 11.3006 197.778 11.149 197.59 10.9139C197.401 10.6787 197.318 10.3808 197.349 10.0829L197.422 9.43494C197.49 8.81829 198.049 8.36364 198.677 8.4368L200.244 8.61448C200.37 8.18596 200.537 7.76789 200.736 7.36028L199.466 6.41962C199.22 6.24194 199.063 5.97542 199.016 5.67755C198.969 5.37968 199.048 5.0818 199.225 4.83619L199.612 4.3136C199.967 3.83282 200.704 3.71786 201.19 4.07321L202.465 5.01387C202.795 4.70554 203.145 4.42335 203.521 4.17251L202.889 2.71972C202.768 2.44275 202.763 2.13965 202.873 1.85745C202.983 1.57526 203.197 1.35577 203.474 1.23558L204.07 0.974284C204.629 0.728669 205.319 1.00041 205.559 1.55958L206.191 3.00714C206.636 2.90262 207.08 2.83469 207.524 2.80333L207.702 1.23558C207.77 0.624152 208.318 0.169505 208.951 0.237441L209.599 0.310602C210.22 0.378538 210.665 0.94293 210.597 1.55958L210.419 3.12734C210.848 3.25276 211.266 3.41998 211.673 3.62379L212.614 2.34869C212.975 1.86791 213.717 1.75294 214.197 2.11352L214.72 2.50023C214.96 2.67791 215.122 2.94443 215.169 3.24231C215.216 3.54018 215.138 3.83805 214.96 4.08367L214.02 5.35355C214.328 5.67755 214.605 6.03291 214.861 6.40917L216.309 5.77684C216.873 5.53123 217.558 5.8082 217.798 6.36214L218.059 6.95789C218.179 7.23486 218.185 7.54318 218.075 7.82538C217.965 8.10757 217.751 8.32706 217.474 8.44725L216.026 9.07958C216.131 9.51855 216.199 9.96798 216.23 10.4122L217.798 10.5899C218.42 10.663 218.869 11.2222 218.796 11.8441L218.723 12.4921C218.66 13.0669 218.174 13.4954 217.594 13.4954C217.552 13.4954 217.511 13.4954 217.469 13.4902L215.901 13.3125C215.77 13.741 215.608 14.1643 215.41 14.5667L216.68 15.5022C217.181 15.8732 217.286 16.5839 216.915 17.0856L216.528 17.6082C216.168 18.0942 215.431 18.2039 214.945 17.8486L213.675 16.9079C213.351 17.2162 212.995 17.4932 212.619 17.7493L213.251 19.1968C213.502 19.7717 213.236 20.4406 212.666 20.6862L212.07 20.9475C211.506 21.1931 210.821 20.9161 210.581 20.3622L209.949 18.9146C209.505 19.0191 209.055 19.0871 208.616 19.1184L208.438 20.6862C208.376 21.261 207.89 21.6896 207.315 21.6896L207.32 21.7052ZM204.31 17.6448L204.509 17.7493C205.01 18.0158 205.538 18.2196 206.071 18.3659L206.291 18.4234L206.066 20.4354C206.029 20.7698 206.27 21.0729 206.604 21.1095L207.252 21.1827C207.597 21.2192 207.89 20.9788 207.926 20.6444L208.151 18.6324L208.376 18.622C208.924 18.6011 209.484 18.5175 210.038 18.3711L210.252 18.3137L211.062 20.1688C211.193 20.4667 211.564 20.613 211.861 20.4824L212.457 20.2211C212.765 20.0852 212.907 19.7246 212.771 19.4163L211.961 17.5611L212.149 17.4409C212.63 17.1378 213.069 16.7825 213.466 16.3905L213.623 16.2338L215.253 17.4357C215.514 17.6291 215.911 17.5664 216.105 17.3051L216.492 16.7825C216.69 16.5107 216.633 16.1293 216.366 15.9307L214.736 14.7287L214.84 14.5301C215.101 14.0285 215.31 13.5059 215.457 12.9624L215.514 12.7429L217.526 12.9728C217.84 13.0094 218.164 12.7638 218.2 12.4346L218.274 11.7866C218.31 11.4521 218.07 11.149 217.735 11.1124L215.723 10.8877L215.713 10.663C215.692 10.1091 215.608 9.54991 215.462 9.00119L215.405 8.78693L217.26 7.97693C217.411 7.91422 217.526 7.79402 217.584 7.64247C217.641 7.49092 217.641 7.3237 217.573 7.17737L217.312 6.58162C217.181 6.28375 216.81 6.1322 216.507 6.26807L214.652 7.07808L214.532 6.88995C214.229 6.4144 213.879 5.9702 213.481 5.57303L213.325 5.41626L214.527 3.78579C214.626 3.65515 214.662 3.49315 214.642 3.33114C214.615 3.16914 214.532 3.02804 214.401 2.93398L213.879 2.54727C213.617 2.35391 213.22 2.41139 213.027 2.67269L211.825 4.30315L211.626 4.19863C211.119 3.93211 210.597 3.72308 210.064 3.58199L209.844 3.5245L210.069 1.51255C210.106 1.17809 209.865 0.874995 209.531 0.838414L208.883 0.765249C208.553 0.728668 208.25 0.96906 208.209 1.30351L207.984 3.31547L207.759 3.32592C207.205 3.34682 206.646 3.43044 206.097 3.57676L205.878 3.63424L205.068 1.77907C204.937 1.48119 204.571 1.33487 204.263 1.46552L203.667 1.72681C203.516 1.78952 203.401 1.90971 203.343 2.06126C203.286 2.21281 203.286 2.37481 203.354 2.52636L204.164 4.38676L203.976 4.50696C203.5 4.81006 203.056 5.16019 202.659 5.55736L202.502 5.71413L200.871 4.50696C200.61 4.3136 200.213 4.37631 200.02 4.63761L199.633 5.16019C199.534 5.29084 199.497 5.45284 199.518 5.61484C199.544 5.77684 199.628 5.91794 199.758 6.012L201.389 7.21395L201.284 7.41253C201.018 7.91944 200.814 8.44725 200.673 8.98029L200.615 9.19978L198.603 8.97507C198.253 8.92803 197.966 9.17887 197.929 9.5081L197.856 10.1561C197.835 10.3181 197.882 10.4749 197.982 10.6055C198.081 10.7309 198.227 10.8093 198.389 10.8302L200.401 11.0602L200.412 11.2849C200.432 11.8441 200.516 12.4032 200.662 12.9467L200.72 13.1662L198.865 13.9762C198.713 14.0389 198.603 14.1591 198.541 14.3107C198.483 14.4622 198.483 14.6294 198.551 14.7758L198.812 15.3715C198.943 15.6694 199.314 15.8209 199.612 15.6851L201.467 14.875L201.587 15.0632C201.885 15.5387 202.241 15.9777 202.638 16.3749L202.795 16.5316L201.593 18.1621C201.499 18.2928 201.457 18.4548 201.483 18.6168C201.509 18.7788 201.593 18.9199 201.723 19.0139L202.246 19.4006C202.512 19.594 202.904 19.5365 203.098 19.2752L204.3 17.6448H204.31ZM208.078 16.239C207.885 16.239 207.686 16.2285 207.482 16.2076C206.087 16.0509 204.833 15.3558 203.955 14.2584C203.077 13.161 202.685 11.7866 202.842 10.386C203.166 7.5275 205.742 5.41626 208.658 5.74549C211.543 6.06949 213.623 8.68242 213.299 11.5619C213.001 14.227 210.754 16.239 208.073 16.239H208.078ZM208.067 6.23672C205.658 6.23672 203.636 8.04486 203.364 10.4488C203.223 11.7082 203.578 12.9467 204.368 13.9344C205.157 14.9221 206.285 15.5492 207.545 15.6903C210.173 15.9882 212.494 14.0859 212.786 11.5096C213.079 8.91235 211.203 6.56072 208.606 6.26807C208.423 6.24717 208.245 6.23672 208.067 6.23672Z" fill="#69CF00"/>
<path d="M208.078 13.8457C207.968 13.8457 207.864 13.8405 207.754 13.8248C206.181 13.6471 205.047 12.2257 205.219 10.6527C205.397 9.0902 206.803 7.93528 208.392 8.11818C209.965 8.29586 211.104 9.72252 210.926 11.2955C210.764 12.7483 209.536 13.8457 208.078 13.8457ZM208.073 8.62509C206.881 8.62509 205.878 9.52394 205.742 10.7102C205.596 11.9958 206.526 13.1611 207.811 13.3075C209.113 13.4538 210.262 12.5131 210.409 11.238C210.555 9.95246 209.625 8.78709 208.339 8.64077C208.25 8.63032 208.162 8.62509 208.073 8.62509Z" fill="#69CF00"/>
<path d="M195.802 200.231C195.76 200.231 195.718 200.231 195.671 200.226L195.023 200.152C194.401 200.085 193.957 199.52 194.025 198.898L194.202 197.331C193.774 197.2 193.356 197.038 192.948 196.834L192.013 198.104C191.657 198.585 190.915 198.7 190.429 198.339L189.907 197.952C189.666 197.775 189.504 197.508 189.457 197.21C189.41 196.912 189.484 196.615 189.666 196.369L190.607 195.094C190.299 194.765 190.017 194.414 189.766 194.038L188.318 194.671C187.764 194.916 187.074 194.644 186.829 194.085L186.568 193.49C186.447 193.213 186.442 192.904 186.552 192.622C186.662 192.34 186.876 192.12 187.153 192L188.6 191.368C188.496 190.929 188.428 190.479 188.397 190.035L186.829 189.858C186.531 189.826 186.259 189.675 186.071 189.439C185.883 189.204 185.799 188.906 185.831 188.609L185.904 187.961C185.972 187.344 186.531 186.889 187.158 186.962L188.726 187.14C188.851 186.712 189.018 186.294 189.217 185.886L187.947 184.945C187.702 184.768 187.545 184.501 187.498 184.203C187.451 183.905 187.529 183.607 187.707 183.362L188.093 182.839C188.449 182.358 189.186 182.243 189.672 182.599L190.947 183.539C191.276 183.231 191.626 182.949 192.002 182.698L191.37 181.245C191.25 180.968 191.245 180.665 191.354 180.383C191.464 180.101 191.678 179.881 191.955 179.761L192.551 179.5C193.11 179.254 193.8 179.526 194.04 180.085L194.673 181.533C195.117 181.428 195.561 181.36 196.005 181.329L196.183 179.761C196.251 179.15 196.8 178.695 197.432 178.763L198.08 178.836C198.702 178.904 199.146 179.469 199.078 180.085L198.901 181.653C199.329 181.778 199.747 181.946 200.155 182.149L201.095 180.874C201.456 180.394 202.198 180.279 202.679 180.639L203.201 181.026C203.442 181.204 203.604 181.47 203.651 181.768C203.698 182.066 203.619 182.364 203.442 182.609L202.501 183.879C202.809 184.203 203.086 184.559 203.342 184.935L204.79 184.302C205.354 184.057 206.039 184.334 206.279 184.888L206.541 185.484C206.661 185.76 206.666 186.069 206.556 186.351C206.447 186.633 206.232 186.853 205.955 186.973L204.508 187.605C204.612 188.044 204.68 188.494 204.712 188.938L206.279 189.115C206.901 189.189 207.351 189.748 207.278 190.37L207.204 191.018C207.142 191.593 206.656 192.021 206.076 192.021C206.034 192.021 205.992 192.021 205.95 192.016L204.382 191.838C204.252 192.267 204.09 192.69 203.891 193.092L205.161 194.028C205.663 194.399 205.767 195.11 205.396 195.611L205.01 196.134C204.649 196.62 203.912 196.73 203.426 196.374L202.156 195.439C201.832 195.742 201.477 196.024 201.101 196.28L201.733 197.728C201.984 198.303 201.717 198.971 201.148 199.217L200.552 199.478C199.987 199.724 199.303 199.447 199.063 198.893L198.43 197.445C197.986 197.55 197.537 197.618 197.098 197.649L196.92 199.217C196.857 199.792 196.371 200.22 195.796 200.22L195.802 200.231ZM192.791 196.17L192.99 196.275C193.492 196.541 194.02 196.745 194.553 196.892L194.772 196.949L194.547 198.961C194.511 199.295 194.751 199.599 195.086 199.635L195.734 199.708C196.079 199.745 196.371 199.504 196.408 199.17L196.632 197.158L196.857 197.148C197.406 197.127 197.965 197.043 198.519 196.897L198.733 196.839L199.543 198.694C199.674 198.992 200.045 199.139 200.343 199.008L200.939 198.747C201.247 198.611 201.388 198.25 201.252 197.942L200.442 196.087L200.63 195.967C201.111 195.663 201.55 195.308 201.947 194.916L202.104 194.759L203.734 195.961C203.996 196.155 204.393 196.092 204.586 195.831L204.973 195.308C205.172 195.036 205.114 194.655 204.848 194.456L203.217 193.254L203.322 193.056C203.583 192.554 203.792 192.032 203.938 191.488L203.996 191.269L206.008 191.498C206.321 191.535 206.645 191.289 206.682 190.96L206.755 190.312C206.792 189.978 206.551 189.675 206.217 189.638L204.205 189.413L204.194 189.189C204.173 188.635 204.09 188.076 203.943 187.527L203.886 187.313L205.741 186.503C205.893 186.44 206.008 186.32 206.065 186.168C206.123 186.017 206.123 185.849 206.055 185.703L205.793 185.107C205.663 184.809 205.292 184.658 204.989 184.794L203.133 185.604L203.013 185.416C202.71 184.94 202.36 184.496 201.963 184.099L201.806 183.942L203.008 182.311C203.107 182.181 203.144 182.019 203.123 181.857C203.097 181.695 203.013 181.554 202.883 181.46L202.36 181.073C202.099 180.88 201.702 180.937 201.508 181.198L200.306 182.829L200.108 182.724C199.601 182.458 199.078 182.249 198.545 182.108L198.326 182.05L198.55 180.038C198.587 179.704 198.347 179.401 198.012 179.364L197.364 179.291C197.035 179.254 196.732 179.495 196.69 179.829L196.465 181.841L196.241 181.852C195.687 181.872 195.127 181.956 194.579 182.102L194.359 182.16L193.549 180.305C193.419 180.007 193.053 179.861 192.744 179.991L192.149 180.252C191.997 180.315 191.882 180.435 191.825 180.587C191.767 180.738 191.767 180.9 191.835 181.052L192.645 182.912L192.457 183.033C191.981 183.336 191.537 183.686 191.14 184.083L190.983 184.24L189.353 183.033C189.092 182.839 188.694 182.902 188.501 183.163L188.114 183.686C188.015 183.816 187.978 183.978 187.999 184.14C188.026 184.302 188.109 184.444 188.24 184.538L189.87 185.74L189.766 185.938C189.499 186.445 189.295 186.973 189.154 187.506L189.097 187.725L187.085 187.501C186.735 187.454 186.447 187.705 186.411 188.034L186.338 188.682C186.317 188.844 186.364 189.001 186.463 189.131C186.562 189.257 186.709 189.335 186.871 189.356L188.883 189.586L188.893 189.811C188.914 190.37 188.998 190.929 189.144 191.472L189.201 191.692L187.346 192.502C187.195 192.565 187.085 192.685 187.022 192.836C186.965 192.988 186.965 193.155 187.033 193.301L187.294 193.897C187.425 194.195 187.796 194.347 188.093 194.211L189.949 193.401L190.069 193.589C190.367 194.064 190.722 194.503 191.119 194.901L191.276 195.057L190.074 196.688C189.98 196.818 189.938 196.98 189.964 197.142C189.99 197.304 190.074 197.445 190.205 197.54L190.727 197.926C190.994 198.12 191.386 198.062 191.579 197.801L192.781 196.17H192.791ZM196.559 194.765C196.366 194.765 196.167 194.754 195.964 194.733C194.568 194.577 193.314 193.881 192.436 192.784C191.558 191.687 191.166 190.312 191.323 188.912C191.647 186.053 194.223 183.942 197.139 184.271C200.024 184.595 202.104 187.208 201.78 190.087C201.482 192.753 199.235 194.765 196.554 194.765H196.559ZM196.549 184.762C194.14 184.762 192.117 186.571 191.846 188.974C191.705 190.234 192.06 191.472 192.849 192.46C193.638 193.448 194.767 194.075 196.026 194.216C198.655 194.514 200.975 192.612 201.268 190.035C201.56 187.438 199.684 185.086 197.087 184.794C196.904 184.773 196.727 184.762 196.549 184.762Z" fill="#69CF00"/>
<path d="M196.559 192.371C196.45 192.371 196.345 192.366 196.235 192.35C194.662 192.173 193.528 190.751 193.701 189.178C193.879 187.616 195.284 186.461 196.873 186.644C198.446 186.821 199.585 188.248 199.408 189.821C199.246 191.274 198.017 192.371 196.559 192.371ZM196.554 187.151C195.363 187.151 194.359 188.05 194.224 189.236C194.077 190.521 195.007 191.687 196.293 191.833C197.594 191.979 198.744 191.039 198.89 189.764C199.037 188.478 198.106 187.313 196.821 187.166C196.732 187.156 196.643 187.151 196.554 187.151Z" fill="#69CF00"/>
<path d="M211.485 185.295C211.443 185.295 211.402 185.295 211.355 185.29L210.707 185.217C210.085 185.149 209.64 184.585 209.708 183.963L209.886 182.395C209.458 182.264 209.039 182.102 208.632 181.899L207.696 183.168C207.341 183.649 206.599 183.764 206.113 183.404L205.59 183.017C205.35 182.839 205.188 182.573 205.141 182.275C205.094 181.977 205.167 181.679 205.35 181.433L206.291 180.158C205.982 179.829 205.7 179.479 205.449 179.103L204.002 179.735C203.448 179.981 202.758 179.709 202.512 179.15L202.251 178.554C202.131 178.277 202.126 177.969 202.235 177.687C202.345 177.404 202.559 177.185 202.836 177.065L204.284 176.432C204.179 175.993 204.112 175.544 204.08 175.1L202.512 174.922C202.215 174.891 201.943 174.739 201.755 174.504C201.567 174.269 201.483 173.971 201.514 173.673L201.587 173.025C201.655 172.408 202.215 171.954 202.842 172.027L204.409 172.205C204.535 171.776 204.702 171.358 204.901 170.95L203.631 170.01C203.385 169.832 203.228 169.566 203.181 169.268C203.134 168.97 203.213 168.672 203.39 168.426L203.777 167.904C204.132 167.423 204.869 167.308 205.355 167.663L206.63 168.604C206.96 168.296 207.31 168.013 207.686 167.763L207.054 166.31C206.933 166.033 206.928 165.73 207.038 165.448C207.148 165.165 207.362 164.946 207.639 164.826L208.235 164.564C208.794 164.319 209.484 164.591 209.724 165.15L210.356 166.597C210.801 166.493 211.245 166.425 211.689 166.393L211.867 164.826C211.935 164.214 212.483 163.76 213.116 163.828L213.764 163.901C214.386 163.969 214.83 164.533 214.762 165.15L214.584 166.717C215.013 166.843 215.431 167.01 215.838 167.214L216.779 165.939C217.14 165.458 217.882 165.343 218.362 165.704L218.885 166.09C219.125 166.268 219.287 166.535 219.334 166.832C219.381 167.13 219.303 167.428 219.125 167.674L218.185 168.944C218.493 169.268 218.77 169.623 219.026 169.999L220.474 169.367C221.038 169.121 221.723 169.398 221.963 169.952L222.224 170.548C222.344 170.825 222.35 171.133 222.24 171.415C222.13 171.698 221.916 171.917 221.639 172.037L220.191 172.67C220.296 173.109 220.364 173.558 220.395 174.002L221.963 174.18C222.585 174.253 223.034 174.812 222.961 175.434L222.888 176.082C222.825 176.657 222.339 177.086 221.759 177.086C221.717 177.086 221.676 177.086 221.634 177.08L220.066 176.903C219.935 177.331 219.773 177.754 219.575 178.157L220.845 179.092C221.346 179.463 221.451 180.174 221.08 180.676L220.693 181.198C220.333 181.684 219.596 181.794 219.11 181.439L217.84 180.503C217.516 180.806 217.16 181.089 216.784 181.345L217.417 182.792C217.667 183.367 217.401 184.036 216.831 184.282L216.235 184.543C215.671 184.788 214.987 184.511 214.746 183.958L214.114 182.51C213.67 182.614 213.22 182.682 212.781 182.714L212.604 184.282C212.541 184.856 212.055 185.285 211.48 185.285L211.485 185.295ZM208.475 181.235L208.674 181.339C209.175 181.606 209.703 181.81 210.236 181.956L210.456 182.014L210.231 184.025C210.194 184.36 210.435 184.663 210.769 184.7L211.417 184.773C211.762 184.809 212.055 184.569 212.091 184.234L212.316 182.223L212.541 182.212C213.09 182.191 213.649 182.108 214.203 181.961L214.422 181.904L215.232 183.759C215.363 184.057 215.729 184.203 216.032 184.072L216.627 183.811C216.936 183.675 217.077 183.315 216.941 183.006L216.131 181.151L216.319 181.031C216.8 180.728 217.239 180.373 217.636 179.981L217.793 179.824L219.423 181.026C219.685 181.219 220.082 181.156 220.275 180.895L220.662 180.373C220.86 180.101 220.803 179.719 220.536 179.521L218.906 178.319L219.01 178.12C219.272 177.619 219.481 177.096 219.627 176.552L219.685 176.333L221.697 176.563C222.01 176.6 222.334 176.354 222.371 176.025L222.444 175.377C222.48 175.042 222.24 174.739 221.906 174.703L219.894 174.478L219.883 174.253C219.862 173.699 219.779 173.14 219.632 172.591L219.575 172.377L221.43 171.567C221.582 171.504 221.696 171.384 221.754 171.233C221.811 171.081 221.811 170.914 221.744 170.767L221.482 170.172C221.352 169.874 220.981 169.722 220.677 169.858L218.822 170.668L218.702 170.48C218.399 170.004 218.049 169.56 217.652 169.163L217.495 169.006L218.697 167.376C218.796 167.245 218.833 167.083 218.812 166.921C218.786 166.759 218.702 166.618 218.571 166.524L218.049 166.137C217.788 165.944 217.39 166.001 217.197 166.263L215.995 167.893L215.797 167.789C215.29 167.522 214.767 167.313 214.234 167.172L214.014 167.115L214.239 165.103C214.276 164.768 214.035 164.465 213.701 164.429L213.053 164.355C212.724 164.319 212.421 164.559 212.379 164.894L212.154 166.906L211.929 166.916C211.375 166.937 210.816 167.021 210.268 167.167L210.048 167.224L209.238 165.369C209.107 165.071 208.742 164.925 208.433 165.056L207.838 165.317C207.686 165.38 207.571 165.5 207.514 165.651C207.456 165.803 207.456 165.965 207.524 166.116L208.334 167.977L208.146 168.097C207.67 168.4 207.226 168.75 206.829 169.147L206.672 169.304L205.042 168.097C204.78 167.904 204.383 167.966 204.19 168.228L203.803 168.75C203.704 168.881 203.667 169.043 203.688 169.205C203.714 169.367 203.798 169.508 203.929 169.602L205.559 170.804L205.455 171.003C205.188 171.51 204.984 172.037 204.843 172.57L204.786 172.79L202.774 172.565C202.424 172.518 202.136 172.769 202.1 173.098L202.026 173.746C202.005 173.908 202.053 174.065 202.152 174.196C202.251 174.321 202.397 174.399 202.559 174.42L204.571 174.65L204.582 174.875C204.603 175.434 204.686 175.993 204.833 176.537L204.89 176.756L203.035 177.566C202.883 177.629 202.774 177.749 202.711 177.901C202.653 178.052 202.654 178.22 202.721 178.366L202.983 178.962C203.113 179.259 203.484 179.411 203.782 179.275L205.637 178.465L205.758 178.653C206.056 179.129 206.411 179.568 206.808 179.965L206.965 180.122L205.763 181.752C205.669 181.883 205.627 182.045 205.653 182.207C205.679 182.369 205.763 182.51 205.894 182.604L206.416 182.991C206.683 183.184 207.075 183.127 207.268 182.865L208.47 181.235H208.475ZM212.243 179.829C212.05 179.829 211.851 179.819 211.647 179.798C210.252 179.641 208.998 178.946 208.12 177.849C207.242 176.751 206.85 175.377 207.007 173.976C207.331 171.118 209.907 169.006 212.823 169.336C215.708 169.66 217.788 172.273 217.464 175.152C217.166 177.817 214.919 179.829 212.238 179.829H212.243ZM212.232 169.827C209.823 169.827 207.801 171.635 207.529 174.039C207.388 175.298 207.743 176.537 208.533 177.524C209.322 178.512 210.45 179.139 211.71 179.28C214.338 179.578 216.659 177.676 216.951 175.1C217.244 172.502 215.368 170.151 212.771 169.858C212.588 169.837 212.41 169.827 212.232 169.827Z" fill="#69CF00"/>
<path d="M212.243 177.436C212.139 177.436 212.029 177.431 211.919 177.415C210.346 177.237 209.212 175.816 209.385 174.243C209.562 172.68 210.968 171.525 212.557 171.708C214.13 171.886 215.269 173.313 215.091 174.886C214.929 176.338 213.701 177.436 212.243 177.436ZM212.238 172.215C211.046 172.215 210.043 173.114 209.907 174.3C209.761 175.586 210.691 176.751 211.977 176.898C213.278 177.044 214.427 176.103 214.574 174.828C214.72 173.543 213.79 172.377 212.504 172.231C212.415 172.22 212.327 172.215 212.238 172.215Z" fill="#69CF00"/>
<path d="M19.7126 120.176C19.6395 120.176 19.5611 120.176 19.4879 120.16L18.1919 120.014C17.0945 119.889 16.3054 118.896 16.4256 117.798L16.8018 114.443C15.8194 114.166 14.8578 113.785 13.9276 113.314L11.9209 116.037C11.5446 116.544 10.9437 116.847 10.3113 116.847C9.88281 116.847 9.46997 116.711 9.11983 116.455L8.07467 115.682C7.64615 115.363 7.36395 114.898 7.28034 114.37C7.20195 113.842 7.33259 113.314 7.64615 112.881L9.6581 110.158C8.94216 109.416 8.29415 108.606 7.73498 107.744L4.63605 109.092C4.37999 109.202 4.11347 109.259 3.8365 109.259C3.04217 109.259 2.321 108.789 1.997 108.057L1.47441 106.86C1.03544 105.852 1.49532 104.666 2.50913 104.227L5.60806 102.873C5.35722 101.875 5.20045 100.851 5.14819 99.8213L1.78797 99.4398C1.25493 99.3823 0.779376 99.121 0.450147 98.7029C0.115692 98.2849 -0.0306314 97.7623 0.0268529 97.2345L0.173177 95.9332C0.298597 94.8463 1.27583 94.0415 2.38894 94.1721L5.74394 94.5484C6.02091 93.5711 6.39717 92.6044 6.87272 91.6689L4.15528 89.6622C3.26688 89.0038 3.07875 87.7495 3.73721 86.8612L4.51063 85.8108C4.8869 85.2986 5.48787 84.9955 6.1202 84.9955C6.54872 84.9955 6.95633 85.1314 7.30646 85.3822L10.0291 87.3994C10.766 86.6835 11.5812 86.0355 12.4435 85.4711L11.09 82.3669C10.8757 81.8809 10.8653 81.3374 11.0586 80.841C11.252 80.3445 11.6335 79.9526 12.1247 79.7383L13.3214 79.2157C13.5775 79.106 13.844 79.0485 14.121 79.0485C14.9153 79.0485 15.6365 79.5188 15.9552 80.2504L17.3035 83.3494C18.3121 83.0933 19.3416 82.9418 20.3606 82.8895L20.7421 79.5293C20.8623 78.4423 21.8396 77.6427 22.9527 77.7629L24.2487 77.9093C25.3461 78.0347 26.1352 79.0276 26.015 80.1198L25.6388 83.4748C26.616 83.7518 27.5828 84.1333 28.513 84.6036L30.5197 81.8809C30.896 81.374 31.5022 81.0709 32.1345 81.0709C32.563 81.0709 32.9758 81.2068 33.3208 81.4628L34.3712 82.2363C34.7997 82.555 35.0819 83.0201 35.1603 83.548C35.2386 84.0758 35.108 84.6036 34.7892 85.0373L32.7825 87.76C33.4932 88.4968 34.1412 89.3068 34.7056 90.1743L37.8045 88.8208C38.0606 88.7111 38.3271 88.6536 38.6041 88.6536C39.4036 88.6536 40.1248 89.1239 40.4436 89.8556L40.9662 91.0523C41.1804 91.5435 41.1909 92.087 40.9923 92.5835C40.799 93.0799 40.4175 93.4719 39.9315 93.6861L36.8325 95.0396C37.0834 96.043 37.2401 97.0672 37.2976 98.0915L40.6526 98.4678C41.7501 98.5932 42.5444 99.5861 42.419 100.684L42.2726 101.98C42.1577 102.993 41.3006 103.756 40.2816 103.756C40.2084 103.756 40.1353 103.756 40.0621 103.746L36.7071 103.364C36.4249 104.352 36.0487 105.319 35.5783 106.239L38.2958 108.245C39.1842 108.904 39.3671 110.158 38.7138 111.046L37.9404 112.097C37.5642 112.604 36.9632 112.912 36.3256 112.912C35.8971 112.912 35.4843 112.776 35.1394 112.52L32.4167 110.513C31.6798 111.224 30.8698 111.872 30.0023 112.436L31.3558 115.535C31.7948 116.549 31.3297 117.735 30.3211 118.174L29.1244 118.697C28.8683 118.807 28.6018 118.864 28.3248 118.864C27.5253 118.864 26.8093 118.394 26.4906 117.662L25.1371 114.563C24.118 114.819 23.0938 114.976 22.0799 115.029L21.7037 118.383C21.5887 119.397 20.7369 120.16 19.7179 120.16L19.7126 120.176ZM13.7761 112.651L13.9747 112.755C14.9989 113.294 16.0702 113.717 17.1572 114.009L17.3767 114.067L16.9482 117.866C16.8593 118.676 17.4446 119.413 18.2494 119.502L19.5454 119.648C20.3763 119.742 21.0923 119.146 21.1811 118.347L21.6096 114.542L21.8343 114.532C22.9527 114.49 24.0919 114.318 25.2155 114.02L25.4349 113.962L26.9661 117.469C27.2797 118.195 28.1733 118.551 28.9101 118.237L30.1069 117.715C30.8542 117.391 31.1991 116.513 30.8751 115.765L29.3439 112.259L29.532 112.139C30.4988 111.522 31.4029 110.806 32.2076 110.006L32.3644 109.85L35.4477 112.123C36.08 112.593 37.0468 112.442 37.5119 111.809L38.2853 110.759C38.7713 110.106 38.6302 109.176 37.977 108.69L34.899 106.416L35.0035 106.218C35.5417 105.204 35.9598 104.133 36.2525 103.035L36.3099 102.816L40.1091 103.244C40.9139 103.328 41.6508 102.743 41.7448 101.938L41.8912 100.642C41.98 99.8317 41.3947 99.0949 40.5847 99.0008L36.7855 98.5723L36.775 98.3476C36.728 97.2136 36.5556 96.0743 36.2629 94.9664L36.2054 94.747L39.712 93.2158C40.0726 93.059 40.3548 92.7716 40.4959 92.4005C40.6422 92.0347 40.6317 91.6324 40.4749 91.2665L39.9524 90.0698C39.7172 89.5316 39.1842 89.1814 38.5936 89.1814C38.3898 89.1814 38.1913 89.2232 38.0031 89.3068L34.4966 90.838L34.3764 90.6499C33.7597 89.6779 33.0438 88.779 32.2442 87.9743L32.0875 87.8175L34.3607 84.7395C34.5959 84.4207 34.6899 84.0287 34.6324 83.642C34.575 83.2501 34.3659 82.9052 34.0472 82.6752L32.9968 81.9018C32.3644 81.4315 31.3924 81.583 30.9273 82.2101L28.6541 85.2934L28.4555 85.1889C27.426 84.6454 26.3547 84.2273 25.2729 83.9399L25.0535 83.8824L25.482 80.078C25.5708 79.268 24.9855 78.5364 24.1755 78.4423L22.8795 78.296C22.0643 78.2071 21.3327 78.7977 21.249 79.5972L20.8205 83.4016L20.5958 83.4121C19.467 83.4539 18.3278 83.6263 17.2147 83.9242L16.9952 83.9817L15.464 80.4752C15.1452 79.7488 14.2516 79.3882 13.5148 79.7122L12.3181 80.2348C11.9522 80.3915 11.6753 80.6842 11.529 81.05C11.3826 81.4158 11.3931 81.8182 11.5499 82.1788L13.081 85.6906L12.8929 85.8108C11.9261 86.4222 11.0273 87.1433 10.2173 87.9481L10.0605 88.1049L6.97724 85.8264C6.72117 85.6383 6.41807 85.539 6.10452 85.539C5.62897 85.539 5.19522 85.7585 4.91302 86.14L4.1396 87.1904C3.65359 87.8436 3.79469 88.7738 4.44792 89.2598L7.52595 91.5331L7.42143 91.7316C6.88317 92.7611 6.45988 93.8324 6.17245 94.9194L6.11497 95.1389L2.31055 94.7104C1.47964 94.6111 0.763698 95.2068 0.674859 96.0116L0.528535 97.3128C0.481502 97.7048 0.596471 98.0915 0.842086 98.3998C1.0877 98.7082 1.43783 98.9015 1.82977 98.9433L5.63419 99.3771L5.64464 99.6018C5.68645 100.741 5.8589 101.88 6.15155 102.983L6.20904 103.197L2.70249 104.734C1.95519 105.058 1.61029 105.936 1.93951 106.683L2.4621 107.88C2.78088 108.606 3.67972 108.961 4.41134 108.643L7.92312 107.111L8.04331 107.299C8.65473 108.261 9.37068 109.16 10.1755 109.975L10.3322 110.132L8.05899 113.21C7.82382 113.529 7.72976 113.915 7.78724 114.307C7.84473 114.699 8.05376 115.044 8.37254 115.279L9.41771 116.053C9.67378 116.241 9.9821 116.34 10.3009 116.34C10.7764 116.34 11.2102 116.121 11.4924 115.739L13.7656 112.661L13.7761 112.651ZM21.2334 109.238C20.8466 109.238 20.4599 109.217 20.0732 109.176C14.4502 108.538 10.3897 103.448 11.022 97.8302C11.6073 92.6305 15.9866 88.7111 21.2072 88.7111C21.5939 88.7111 21.9807 88.732 22.3674 88.7738C27.9904 89.4114 32.0509 94.5014 31.4185 100.119C30.8333 105.319 26.454 109.238 21.2334 109.238ZM21.2072 89.2285C16.2531 89.2285 12.0986 92.9493 11.5394 97.8825C10.9384 103.218 14.7899 108.047 20.1307 108.653C20.4965 108.695 20.8675 108.716 21.2334 108.716C26.1927 108.716 30.3472 104.995 30.9012 100.062C31.5022 94.7261 27.6507 89.8974 22.3099 89.2912C21.9441 89.2494 21.573 89.2285 21.2072 89.2285Z" fill="#69CF00"/>
<path d="M21.2276 104.451C21.0237 104.451 20.8147 104.441 20.6057 104.415C19.1529 104.253 17.8464 103.532 16.9319 102.387C16.0226 101.243 15.6098 99.8109 15.7718 98.3581C16.1114 95.3794 18.7923 93.1845 21.8338 93.5242C24.8386 93.8639 27.0073 96.5813 26.6677 99.5862C26.3541 102.361 24.0182 104.451 21.2276 104.451ZM21.2171 94.0102C18.6982 94.0102 16.5818 95.902 16.2944 98.4156C16.148 99.7325 16.5191 101.029 17.3447 102.063C18.1704 103.098 19.3515 103.751 20.6632 103.898C23.4172 104.211 25.842 102.22 26.1451 99.5287C26.4482 96.8113 24.4885 94.3499 21.771 94.0468C21.5829 94.0259 21.3948 94.0154 21.2119 94.0154L21.2171 94.0102Z" fill="#69CF00"/>
<path d="M41.2894 145.532C41.2319 145.532 41.1692 145.532 41.1117 145.521L40.1292 145.412C39.2618 145.312 38.6399 144.529 38.7339 143.666L39.0161 141.179C38.3054 140.975 37.6052 140.698 36.9258 140.353L35.4364 142.37C34.94 143.044 33.9053 143.201 33.2259 142.699L32.4316 142.114C32.0919 141.863 31.8672 141.498 31.8045 141.079C31.7418 140.661 31.8463 140.243 32.0919 139.904L33.5813 137.886C33.0639 137.343 32.5936 136.758 32.1807 136.136L29.8814 137.139C29.6828 137.228 29.4685 137.27 29.249 137.27C28.6219 137.27 28.0523 136.899 27.8015 136.324L27.4095 135.42C27.0594 134.62 27.4252 133.69 28.2248 133.34L30.5241 132.337C30.3465 131.61 30.2315 130.863 30.1897 130.116L27.6969 129.833C27.2789 129.786 26.9026 129.583 26.6413 129.248C26.38 128.919 26.2598 128.506 26.3069 128.088L26.4166 127.106C26.5107 126.248 27.2893 125.611 28.162 125.715L30.6496 125.998C30.8534 125.287 31.1303 124.587 31.47 123.907L29.4528 122.418C28.7526 121.901 28.6062 120.908 29.1236 120.207L29.7089 119.413C30.2054 118.739 31.2348 118.582 31.9142 119.079L33.9366 120.573C34.4801 120.051 35.0654 119.586 35.6925 119.173L34.6891 116.873C34.5219 116.492 34.5115 116.063 34.663 115.671C34.8198 115.279 35.1177 114.966 35.5044 114.799L36.4084 114.401C36.6122 114.313 36.8213 114.271 37.0408 114.271C37.6679 114.271 38.2375 114.642 38.4883 115.222L39.4917 117.521C40.2285 117.338 40.9758 117.229 41.7127 117.187L41.9949 114.694C42.0889 113.837 42.8624 113.205 43.7403 113.299L44.7228 113.409C45.585 113.508 46.2121 114.292 46.1128 115.154L45.8307 117.642C46.5361 117.845 47.2416 118.122 47.921 118.462L49.4104 116.445C49.912 115.771 50.9468 115.614 51.6209 116.116L52.4152 116.701C52.7549 116.952 52.9744 117.318 53.0423 117.736C53.105 118.154 53.0005 118.572 52.7497 118.911L51.2603 120.929C51.7724 121.467 52.2428 122.052 52.6608 122.684L54.9602 121.681C55.1588 121.592 55.3731 121.55 55.5925 121.55C56.2249 121.55 56.7945 121.921 57.0453 122.502L57.4373 123.406C57.6045 123.792 57.6149 124.221 57.4582 124.613C57.3014 125.005 57.0035 125.313 56.622 125.48L54.3227 126.484C54.5056 127.215 54.6153 127.963 54.6623 128.705L57.1499 128.982C58.0173 129.081 58.6392 129.865 58.5452 130.732L58.4354 131.715C58.3413 132.514 57.6672 133.12 56.8624 133.12C56.8049 133.12 56.7475 133.12 56.69 133.11L54.2025 132.828C53.9987 133.544 53.7217 134.244 53.382 134.918L55.3992 136.408C56.0995 136.925 56.2458 137.918 55.7284 138.618L55.1431 139.412C54.6414 140.087 53.6067 140.249 52.9326 139.742L50.9154 138.252C50.3771 138.77 49.7866 139.235 49.1595 139.653L50.1629 141.952C50.5078 142.752 50.142 143.687 49.3477 144.032L48.4436 144.429C48.245 144.518 48.0307 144.56 47.8113 144.56C47.1841 144.56 46.6145 144.189 46.3637 143.609L45.3603 141.315C44.6235 141.498 43.8762 141.607 43.1393 141.649L42.8571 144.137C42.7683 144.936 42.0942 145.537 41.2894 145.537V145.532ZM36.769 139.684L36.9676 139.789C37.741 140.196 38.551 140.515 39.3663 140.735L39.5805 140.792L39.2513 143.724C39.1886 144.304 39.6067 144.826 40.1815 144.894L41.164 145.004C41.7545 145.067 42.2666 144.649 42.3346 144.074L42.6638 141.137L42.8885 141.126C43.7351 141.095 44.5921 140.964 45.4387 140.74L45.653 140.682L46.834 143.389C47.0587 143.907 47.7015 144.163 48.2241 143.938L49.1282 143.541C49.6612 143.306 49.9068 142.684 49.6769 142.146L48.4958 139.439L48.684 139.318C49.4156 138.853 50.0949 138.315 50.7011 137.714L50.8579 137.557L53.2357 139.308C53.6903 139.642 54.3801 139.538 54.7146 139.088L55.2999 138.294C55.6448 137.824 55.5455 137.165 55.0804 136.815L52.7026 135.065L52.8072 134.866C53.2096 134.103 53.5283 133.293 53.7478 132.467L53.8053 132.248L56.737 132.582C57.2962 132.645 57.8397 132.222 57.9076 131.647L58.0173 130.664C58.08 130.084 57.662 129.556 57.0819 129.494L54.1502 129.165L54.1398 128.94C54.1084 128.088 53.9778 127.231 53.753 126.39L53.6956 126.17L56.4026 124.989C56.6638 124.879 56.8624 124.67 56.9617 124.409C57.0662 124.148 57.061 123.86 56.946 123.599L56.5541 122.695C56.3294 122.178 55.6866 121.921 55.1588 122.146L52.4518 123.332L52.3316 123.144C51.8665 122.408 51.323 121.733 50.722 121.127L50.5653 120.97L52.3212 118.593C52.4884 118.363 52.5563 118.086 52.5145 117.809C52.4727 117.532 52.3264 117.286 52.0965 117.114L51.3021 116.528C50.8475 116.194 50.1577 116.298 49.8232 116.748L48.0673 119.126L47.8687 119.021C47.0901 118.614 46.2853 118.295 45.4701 118.08L45.2506 118.023L45.5798 115.086C45.6425 114.506 45.2245 113.983 44.6496 113.915L43.6672 113.806C43.0871 113.738 42.5645 114.166 42.5018 114.736L42.1726 117.673L41.9478 117.683C41.1013 117.715 40.2442 117.845 39.3976 118.07L39.1834 118.128L38.0023 115.421C37.7776 114.903 37.1348 114.642 36.6122 114.872L35.7082 115.269C35.4469 115.384 35.2483 115.588 35.1438 115.854C35.0393 116.116 35.0445 116.403 35.1595 116.659L36.3405 119.371L36.1524 119.491C35.426 119.951 34.7466 120.495 34.1352 121.101L33.9784 121.258L31.6007 119.497C31.146 119.162 30.4614 119.267 30.127 119.721L29.5417 120.516C29.1968 120.986 29.2961 121.65 29.7612 121.995L32.1389 123.745L32.0344 123.944C31.6268 124.717 31.3132 125.527 31.0938 126.343L31.0363 126.562L28.0993 126.233C27.4931 126.16 26.9967 126.588 26.9287 127.163L26.819 128.145C26.7876 128.428 26.866 128.699 27.0437 128.924C27.2214 129.144 27.4722 129.285 27.7492 129.316L30.6861 129.651L30.6966 129.875C30.7279 130.732 30.8586 131.589 31.0781 132.42L31.1356 132.64L28.4286 133.821C27.8955 134.056 27.6499 134.678 27.8851 135.211L28.277 136.115C28.507 136.632 29.1445 136.888 29.6671 136.658L32.3741 135.477L32.4943 135.665C32.9542 136.387 33.4924 137.066 34.0986 137.677L34.2554 137.834L32.4995 140.212C32.3323 140.437 32.2643 140.719 32.3061 140.996C32.348 141.278 32.4995 141.524 32.7242 141.691L33.5185 142.276C33.9784 142.616 34.663 142.511 34.9975 142.057L36.7533 139.679L36.769 139.684ZM42.4338 137.244C42.1412 137.244 41.8433 137.228 41.5507 137.197C37.255 136.711 34.1509 132.823 34.6369 128.532C35.0863 124.561 38.4308 121.566 42.4182 121.566C42.7108 121.566 43.0087 121.582 43.3066 121.618C47.6022 122.104 50.7064 125.992 50.2204 130.283C49.7762 134.254 46.4264 137.249 42.4391 137.249L42.4338 137.244ZM42.4182 122.089C38.6974 122.089 35.5775 124.885 35.1595 128.59C34.7048 132.598 37.5999 136.225 41.6134 136.679C41.8851 136.711 42.1673 136.726 42.4391 136.726C46.1599 136.726 49.2849 133.93 49.703 130.225C50.1577 126.217 47.2625 122.59 43.2491 122.136C42.9721 122.104 42.6951 122.089 42.4234 122.089H42.4182Z" fill="#69CF00"/>
<path d="M42.4339 133.617C42.2771 133.617 42.1151 133.606 41.9584 133.591C39.6485 133.329 37.9815 131.239 38.2428 128.929C38.5041 126.64 40.5631 124.947 42.9042 125.208C45.2141 125.47 46.8811 127.56 46.6198 129.87C46.3794 132.002 44.5817 133.611 42.4339 133.611V133.617ZM42.4235 125.71C40.5474 125.71 38.9692 127.121 38.7549 128.992C38.6452 129.974 38.9221 130.936 39.5388 131.709C40.1554 132.477 41.0334 132.963 42.0106 133.073C44.0696 133.303 45.8673 131.824 46.0972 129.817C46.3272 127.795 44.8639 125.961 42.8415 125.731C42.7004 125.715 42.5646 125.71 42.4235 125.71Z" fill="#69CF00"/>
<path d="M232.034 37.879C231.976 37.879 231.913 37.8791 231.856 37.8686L230.873 37.7589C230.006 37.6596 229.384 36.8757 229.478 36.0134L229.76 33.5259C229.05 33.3221 228.349 33.0451 227.67 32.7002L226.181 34.7174C225.684 35.3916 224.649 35.5483 223.97 35.0466L223.176 34.4613C222.836 34.2105 222.611 33.8447 222.549 33.4266C222.486 33.0086 222.59 32.5905 222.836 32.2508L224.325 30.2336C223.808 29.6901 223.338 29.1048 222.925 28.483L220.625 29.4863C220.427 29.5752 220.213 29.617 219.993 29.617C219.366 29.617 218.796 29.2459 218.546 28.6711L218.154 27.767C217.804 26.9675 218.169 26.0373 218.969 25.6871L221.268 24.6838C221.091 23.9574 220.976 23.2101 220.934 22.4628L218.441 22.1806C218.023 22.1336 217.647 21.9297 217.385 21.5953C217.124 21.2661 217.004 20.8532 217.051 20.4352L217.161 19.4527C217.255 18.5957 218.033 17.9581 218.906 18.0626L221.394 18.3448C221.597 17.6341 221.874 16.9338 222.214 16.2545L220.197 14.7651C219.497 14.2477 219.35 13.2548 219.868 12.5546L220.453 11.7602C220.95 11.0861 221.979 10.9293 222.658 11.4258L224.681 12.9204C225.224 12.3978 225.81 11.9327 226.437 11.5199L225.433 9.22048C225.266 8.83899 225.256 8.41047 225.412 8.01853C225.569 7.62659 225.867 7.31304 226.254 7.14582L227.158 6.74865C227.362 6.65981 227.571 6.618 227.79 6.618C228.417 6.618 228.987 6.98904 229.238 7.56911L230.241 9.86848C230.978 9.68558 231.725 9.57584 232.462 9.53403L232.744 7.0413C232.838 6.18426 233.612 5.55193 234.49 5.646L235.472 5.75574C236.334 5.85503 236.962 6.63891 236.862 7.50117L236.58 9.98868C237.286 10.1925 237.991 10.4695 238.67 10.8091L240.16 8.79196C240.661 8.11782 241.696 7.96105 242.37 8.46273L243.165 9.04803C243.504 9.29887 243.724 9.66467 243.792 10.0827C243.854 10.5008 243.75 10.9189 243.499 11.2586L242.01 13.2757C242.522 13.814 242.992 14.3993 243.41 15.0316L245.71 14.0283C245.908 13.9394 246.122 13.8976 246.342 13.8976C246.974 13.8976 247.544 14.2687 247.795 14.8487L248.187 15.7528C248.354 16.1395 248.364 16.568 248.208 16.96C248.051 17.3519 247.753 17.6602 247.371 17.8275L245.072 18.8308C245.255 19.5624 245.365 20.3097 245.412 21.0518L247.899 21.3288C248.767 21.4281 249.389 22.2119 249.295 23.0794L249.185 24.0619C249.091 24.8615 248.417 25.4677 247.612 25.4677C247.554 25.4677 247.497 25.4677 247.439 25.4572L244.952 25.175C244.748 25.8909 244.471 26.5912 244.131 27.2653L246.149 28.7547C246.849 29.2721 246.995 30.265 246.478 30.9652L245.892 31.7596C245.391 32.4337 244.356 32.5957 243.682 32.0888L241.665 30.5994C241.127 31.1168 240.536 31.5819 239.909 32L240.912 34.2993C241.257 35.0989 240.891 36.0343 240.097 36.3792L239.193 36.7764C238.994 36.8652 238.78 36.907 238.561 36.907C237.934 36.907 237.364 36.536 237.113 35.9559L236.11 33.6618C235.373 33.8447 234.626 33.9544 233.889 33.9962L233.607 36.4837C233.518 37.2833 232.844 37.8843 232.039 37.8843L232.034 37.879ZM227.513 32.0313L227.712 32.1358C228.485 32.5435 229.295 32.8622 230.11 33.0817L230.325 33.1392L229.995 36.0709C229.933 36.651 230.351 37.1736 230.926 37.2415L231.908 37.3512C232.499 37.4139 233.011 36.9959 233.079 36.421L233.408 33.4841L233.633 33.4737C234.479 33.4423 235.336 33.3117 236.183 33.0869L236.397 33.0295L237.578 35.7365C237.803 36.2538 238.446 36.5099 238.968 36.2852L239.872 35.888C240.405 35.6528 240.651 35.031 240.421 34.4927L239.24 31.7857L239.428 31.6655C240.16 31.2004 240.839 30.6622 241.445 30.0612L241.602 29.9044L243.98 31.6551C244.434 31.9895 245.124 31.885 245.459 31.4356L246.044 30.6412C246.389 30.1709 246.29 29.5125 245.825 29.1623L243.447 27.4117L243.551 27.2131C243.954 26.4501 244.272 25.6401 244.492 24.8144L244.549 24.5949L247.481 24.9294C248.04 24.9921 248.584 24.5688 248.652 23.994L248.761 23.0115C248.824 22.4314 248.406 21.9036 247.826 21.8409L244.894 21.5117L244.884 21.287C244.853 20.4352 244.722 19.5781 244.497 18.7368L244.44 18.5173L247.147 17.3362C247.408 17.2265 247.607 17.0175 247.706 16.7562C247.81 16.4949 247.805 16.2074 247.69 15.9461L247.298 15.0421C247.074 14.5247 246.431 14.2687 245.903 14.4934L243.196 15.6796L243.076 15.4915C242.611 14.7547 242.067 14.0805 241.466 13.4743L241.309 13.3175L243.065 10.9398C243.233 10.7098 243.3 10.4329 243.259 10.1559C243.217 9.87893 243.071 9.63332 242.841 9.46087L242.046 8.87557C241.592 8.54112 240.902 8.64563 240.567 9.09506L238.811 11.4728L238.613 11.3683C237.834 10.9607 237.029 10.6419 236.214 10.4277L235.995 10.3702L236.324 7.43324C236.387 6.85317 235.969 6.33058 235.394 6.26265L234.411 6.1529C233.831 6.08497 233.309 6.51349 233.246 7.0831L232.917 10.02L232.692 10.0305C231.845 10.0618 230.988 10.1925 230.142 10.4172L229.928 10.4747L228.746 7.76769C228.522 7.25033 227.879 6.98904 227.356 7.21898L226.452 7.61614C226.191 7.73111 225.992 7.93492 225.888 8.20144C225.783 8.46273 225.789 8.75015 225.904 9.00622L227.085 11.7184L226.897 11.8386C226.17 12.2985 225.491 12.842 224.879 13.4482L224.723 13.605L222.345 11.8439C221.89 11.5094 221.206 11.6139 220.871 12.0686L220.286 12.8629C219.941 13.3332 220.04 13.9969 220.505 14.3418L222.878 16.0925L222.773 16.2911C222.366 17.0645 222.052 17.8745 221.833 18.6897L221.775 18.9092L218.838 18.58C218.232 18.5068 217.736 18.9353 217.668 19.5102L217.558 20.4926C217.527 20.7748 217.605 21.0466 217.783 21.2713C217.96 21.4908 218.211 21.6319 218.488 21.6632L221.425 21.9977L221.436 22.2224C221.467 23.0794 221.597 23.9365 221.817 24.7674L221.874 24.9869L219.167 26.1679C218.634 26.4031 218.389 27.025 218.624 27.558L219.016 28.4621C219.246 28.9794 219.883 29.2355 220.406 29.0056L223.113 27.8245L223.233 28.0126C223.693 28.7338 224.231 29.4132 224.838 30.0246L224.994 30.1814L223.238 32.5591C223.071 32.7838 223.003 33.066 223.045 33.343C223.087 33.6252 223.238 33.8708 223.463 34.0381L224.257 34.6233C224.717 34.963 225.402 34.8585 225.736 34.4039L227.492 32.0261L227.513 32.0313ZM233.178 29.5908C232.885 29.5908 232.587 29.5752 232.295 29.5438C227.999 29.0578 224.895 25.1698 225.381 20.8794C225.83 16.9077 229.175 13.9133 233.162 13.9133C233.455 13.9133 233.753 13.929 234.051 13.9656C238.346 14.4516 241.451 18.3396 240.965 22.63C240.52 26.6017 237.171 29.5961 233.183 29.5961L233.178 29.5908ZM233.162 14.4359C229.442 14.4359 226.322 17.2317 225.904 20.9368C225.449 24.9451 228.344 28.5718 232.358 29.0265C232.629 29.0578 232.911 29.0735 233.183 29.0735C236.904 29.0735 240.029 26.2777 240.447 22.5725C240.902 18.5643 238.007 14.9376 233.993 14.4829C233.716 14.4516 233.439 14.4359 233.168 14.4359H233.162Z" fill="#69CF00"/>
<path d="M233.178 25.9643C233.021 25.9643 232.859 25.9539 232.703 25.9382C230.393 25.6769 228.726 23.5865 228.987 21.2767C229.248 18.9878 231.307 17.2946 233.648 17.5559C235.958 17.8172 237.625 19.9075 237.364 22.2174C237.124 24.3495 235.326 25.9591 233.178 25.9591V25.9643ZM233.168 18.0576C231.292 18.0576 229.713 19.4686 229.499 21.3394C229.389 22.3219 229.666 23.2834 230.283 24.0569C230.9 24.8251 231.778 25.3111 232.755 25.4208C234.814 25.6508 236.611 24.1718 236.841 22.1651C237.071 20.1427 235.608 18.3084 233.586 18.0785C233.445 18.0628 233.309 18.0576 233.168 18.0576Z" fill="#69CF00"/>
<mask id="mask0_642_5155" style="mask-type:luminance" maskUnits="userSpaceOnUse" x="141" y="84" width="15" height="36">
<path d="M146.367 111.353V92.6468L150.027 94.7545V109.245L146.367 111.353ZM141.365 84.002V119.998L155.029 112.127V91.873L141.365 84.002Z" fill="white"/>
</mask>
<g mask="url(#mask0_642_5155)">
<path d="M155.029 84.002H141.365V119.998H155.029V84.002Z" fill="url(#paint0_linear_642_5155)"/>
</g>
<path d="M130.001 94.7511V109.243L133.664 111.353V101.738L138.665 104.63V120L125 112.129V91.8706L138.654 84H138.665V89.7665L133.664 92.6414L132.437 93.3502L130.001 94.7511Z" fill="#8EF102"/>
<defs>
<linearGradient id="paint0_linear_642_5155" x1="141.422" y1="102.759" x2="155.174" y2="102.759" gradientUnits="userSpaceOnUse">
<stop stop-color="#8EF102"/>
<stop offset="1" stop-color="#528B01"/>
</linearGradient>
</defs>
</svg>
