<svg width="46" height="40" viewBox="0 0 46 40" fill="none" xmlns="http://www.w3.org/2000/svg">
<path d="M1.31257 16.8389C1.99063 17.517 2.91164 17.8986 3.87108 17.8986C4.59168 17.8986 5.29033 17.6831 5.88192 17.2891L3.30557 19.8655C2.62751 20.5435 2.24593 21.4646 2.24593 22.424C2.24593 23.3834 2.62751 24.3044 3.30557 24.9825C3.98363 25.6606 4.90463 26.0421 5.86408 26.0421C6.58468 26.0421 7.28333 25.8266 7.87492 25.4327L6.52292 26.7847C5.84486 27.4628 5.46328 28.3838 5.46328 29.3432C5.46328 30.3027 5.84486 31.2237 6.52292 31.9017C7.20098 32.5798 8.12198 32.9614 9.08142 32.9614C9.80203 32.9614 10.5007 32.7459 11.0923 32.3519L10.7615 32.6827C10.0834 33.3608 9.70183 34.2818 9.70183 35.2412C9.70183 36.2007 10.0834 37.1217 10.7615 37.7997C11.4395 38.4778 12.3605 38.8594 13.32 38.8594C14.2794 38.8594 15.2004 38.4778 15.8785 37.7997L19.3072 34.371C18.9119 34.9612 18.6978 35.6599 18.6978 36.3819C18.6978 37.3413 19.0794 38.2623 19.7574 38.9404C20.4355 39.6184 21.3565 40 22.3159 40C23.2754 40 24.1964 39.6184 24.8744 38.9404L30.0848 33.73C29.6895 34.3202 29.4754 35.0189 29.4754 35.7409C29.4754 36.7003 29.8569 37.6213 30.535 38.2994C31.2131 38.9774 32.1341 39.359 33.0935 39.359C34.0529 39.359 34.9739 38.9774 35.652 38.2994L43.7626 30.1887C44.4407 29.5107 44.8223 28.5897 44.8223 27.6302C44.8223 26.6708 44.4407 25.7498 43.7626 25.0717C43.0846 24.3937 42.1636 24.0121 41.2041 24.0121C40.4835 24.0121 39.7849 24.2276 39.1933 24.6215L40.8912 22.9236C41.5692 22.2456 41.9508 21.3245 41.9508 20.3651C41.9508 19.4057 41.5692 18.4847 40.8912 17.8066C40.2131 17.1285 39.2921 16.747 38.3327 16.747C37.6121 16.747 36.9134 16.9625 36.3218 17.3564L39.7506 13.9277C40.4286 13.2496 40.8102 12.3286 40.8102 11.3692C40.8102 10.4097 40.4286 9.48871 39.7506 8.81065C39.0725 8.13259 38.1515 7.75101 37.1921 7.75101C36.4714 7.75101 35.7728 7.96651 35.1812 8.36044L37.365 6.17665C38.0431 5.49859 38.4246 4.57759 38.4246 3.61815C38.4246 2.65871 38.0431 1.7377 37.365 1.05964C36.6869 0.38158 35.7659 0 34.8065 0C33.8471 0 32.926 0.38158 32.248 1.05964L27.3835 5.9241C27.7788 5.33388 27.993 4.63523 27.993 3.91325C27.993 2.95381 27.6114 2.0328 26.9333 1.35475C26.2553 0.676687 25.3343 0.295107 24.3748 0.295107C23.4154 0.295107 22.4944 0.676687 21.8163 1.35475L14.989 8.182C15.3844 7.59179 15.5985 6.89314 15.5985 6.17116C15.5985 5.21172 15.2169 4.29071 14.5388 3.61266C13.8608 2.9346 12.9398 2.55302 11.9803 2.55302C11.0209 2.55302 10.0999 2.9346 9.42183 3.61266L1.31257 11.7205C0.634509 12.3986 0.25293 13.3196 0.25293 14.279C0.25293 15.2385 0.634509 16.1595 1.31257 16.8376V16.8389Z" fill="white"/>
<path d="M44.7165 32.2613L44.4666 32.5112C44.3692 32.6086 44.3692 32.7678 44.4666 32.8653C44.5641 32.9627 44.7233 32.9627 44.8208 32.8653L45.0706 32.6155L45.3204 32.8653C45.4178 32.9627 45.5771 32.9627 45.6745 32.8653C45.772 32.7678 45.772 32.6086 45.6745 32.5112L45.4247 32.2613L45.6745 32.0115C45.772 31.9141 45.772 31.7549 45.6745 31.6574C45.6251 31.608 45.562 31.5847 45.4975 31.5847C45.4329 31.5847 45.3698 31.6094 45.3204 31.6574L45.0706 31.9072L44.8208 31.6574C44.7714 31.608 44.7082 31.5847 44.6437 31.5847C44.5792 31.5847 44.5161 31.6094 44.4666 31.6574C44.3692 31.7549 44.3692 31.9141 44.4666 32.0115L44.7165 32.2613Z" fill="white"/>
<path d="M8.94009 37.6556L8.69028 37.9054C8.59282 38.0029 8.59282 38.1621 8.69028 38.2596C8.78773 38.357 8.94695 38.357 9.04441 38.2596L9.29422 38.0098L9.54403 38.2596C9.64148 38.357 9.8007 38.357 9.89816 38.2596C9.99561 38.1621 9.99561 38.0029 9.89816 37.9054L9.64834 37.6556L9.89816 37.4058C9.99561 37.3084 9.99561 37.1491 9.89816 37.0517C9.84874 37.0023 9.7856 36.9789 9.72109 36.9789C9.65658 36.9789 9.59344 37.0036 9.54403 37.0517L9.29422 37.3015L9.04441 37.0517C8.99499 37.0023 8.93185 36.9789 8.86734 36.9789C8.80283 36.9789 8.73969 37.0036 8.69028 37.0517C8.59282 37.1491 8.59282 37.3084 8.69028 37.4058L8.94009 37.6556Z" fill="white"/>
<path d="M2.53384 15.4636L2.28403 15.7134C2.18657 15.8109 2.18657 15.9701 2.28403 16.0676C2.38148 16.165 2.5407 16.165 2.63816 16.0676L2.88797 15.8177L3.13778 16.0676C3.23523 16.165 3.39445 16.165 3.49191 16.0676C3.58936 15.9701 3.58936 15.8109 3.49191 15.7134L3.2421 15.4636L3.49191 15.2138C3.58936 15.1163 3.58936 14.9571 3.49191 14.8597C3.44249 14.8103 3.37935 14.7869 3.31484 14.7869C3.25033 14.7869 3.18719 14.8116 3.13778 14.8597L2.88797 15.1095L2.63816 14.8597C2.58874 14.8103 2.5256 14.7869 2.46109 14.7869C2.39658 14.7869 2.33344 14.8116 2.28403 14.8597C2.18657 14.9571 2.18657 15.1163 2.28403 15.2138L2.53384 15.4636Z" fill="white"/>
<path d="M32.6696 2.59557L32.4198 2.84538C32.3223 2.94284 32.3223 3.10206 32.4198 3.19951C32.5172 3.29696 32.6764 3.29696 32.7739 3.19951L33.0237 2.9497L33.2735 3.19951C33.371 3.29696 33.5302 3.29696 33.6276 3.19951C33.7251 3.10206 33.7251 2.94284 33.6276 2.84538L33.3778 2.59557L33.6276 2.34576C33.7251 2.24831 33.7251 2.08909 33.6276 1.99163C33.5782 1.94222 33.5151 1.91888 33.4506 1.91888C33.3861 1.91888 33.3229 1.94359 33.2735 1.99163L33.0237 2.24144L32.7739 1.99163C32.7245 1.94222 32.6613 1.91888 32.5968 1.91888C32.5323 1.91888 32.4692 1.94359 32.4198 1.99163C32.3223 2.08909 32.3223 2.24831 32.4198 2.34576L32.6696 2.59557Z" fill="white"/>
<path d="M28.0851 38.0043C28.4886 38.0043 28.8167 38.3323 28.8167 38.7359C28.8167 39.1394 28.4886 39.4675 28.0851 39.4675C27.6816 39.4675 27.3535 39.1394 27.3535 38.7359C27.3535 38.3323 27.6816 38.0043 28.0851 38.0043ZM28.0851 38.9665C28.2128 38.9665 28.3157 38.8635 28.3157 38.7359C28.3157 38.6082 28.2128 38.5053 28.0851 38.5053C27.9575 38.5053 27.8545 38.6082 27.8545 38.7359C27.8545 38.8635 27.9575 38.9665 28.0851 38.9665Z" fill="white"/>
<path d="M41.881 14.6799C42.2845 14.6799 42.6126 15.0079 42.6126 15.4115C42.6126 15.815 42.2845 16.1431 41.881 16.1431C41.4775 16.1431 41.1494 15.815 41.1494 15.4115C41.1494 15.0079 41.4775 14.6799 41.881 14.6799ZM41.881 15.6421C42.0087 15.6421 42.1116 15.5391 42.1116 15.4115C42.1116 15.2838 42.0087 15.1809 41.881 15.1809C41.7534 15.1809 41.6504 15.2838 41.6504 15.4115C41.6504 15.5391 41.7534 15.6421 41.881 15.6421Z" fill="white"/>
<path d="M11.2374 2.93182C11.641 2.93182 11.969 3.25987 11.969 3.66341C11.969 4.06696 11.641 4.395 11.2374 4.395C10.8339 4.395 10.5059 4.06696 10.5059 3.66341C10.5059 3.25987 10.8339 2.93182 11.2374 2.93182ZM11.2374 3.89401C11.3651 3.89401 11.468 3.79106 11.468 3.66341C11.468 3.53576 11.3651 3.43282 11.2374 3.43282C11.1098 3.43282 11.0069 3.53576 11.0069 3.66341C11.0069 3.79106 11.1098 3.89401 11.2374 3.89401Z" fill="white"/>
<path d="M2.71011 25.7869C3.11365 25.7869 3.4417 26.1149 3.4417 26.5185C3.4417 26.922 3.11365 27.25 2.71011 27.25C2.30656 27.25 1.97852 26.922 1.97852 26.5185C1.97852 26.1149 2.30656 25.7869 2.71011 25.7869ZM2.71011 26.749C2.83776 26.749 2.9407 26.6461 2.9407 26.5185C2.9407 26.3908 2.83776 26.2879 2.71011 26.2879C2.58245 26.2879 2.47951 26.3908 2.47951 26.5185C2.47951 26.6461 2.58245 26.749 2.71011 26.749Z" fill="white"/>
<path d="M1.31257 16.8389C1.99063 17.517 2.91164 17.8986 3.87108 17.8986C4.59168 17.8986 5.29033 17.6831 5.88192 17.2891L3.30557 19.8655C2.62751 20.5435 2.24593 21.4646 2.24593 22.424C2.24593 23.3834 2.62751 24.3044 3.30557 24.9825C3.98363 25.6606 4.90463 26.0421 5.86408 26.0421C6.58468 26.0421 7.28333 25.8266 7.87492 25.4327L6.52292 26.7847C5.84486 27.4628 5.46328 28.3838 5.46328 29.3432C5.46328 30.3027 5.84486 31.2237 6.52292 31.9017C7.20098 32.5798 8.12198 32.9614 9.08142 32.9614C9.80203 32.9614 10.5007 32.7459 11.0923 32.3519L10.7615 32.6827C10.0834 33.3608 9.70183 34.2818 9.70183 35.2412C9.70183 36.2007 10.0834 37.1217 10.7615 37.7997C11.4395 38.4778 12.3605 38.8594 13.32 38.8594C14.2794 38.8594 15.2004 38.4778 15.8785 37.7997L19.3072 34.371C18.9119 34.9612 18.6978 35.6599 18.6978 36.3819C18.6978 37.3413 19.0794 38.2623 19.7574 38.9404C20.4355 39.6184 21.3565 40 22.3159 40C23.2754 40 24.1964 39.6184 24.8744 38.9404L30.0848 33.73C29.6895 34.3202 29.4754 35.0189 29.4754 35.7409C29.4754 36.7003 29.8569 37.6213 30.535 38.2994C31.2131 38.9774 32.1341 39.359 33.0935 39.359C34.0529 39.359 34.9739 38.9774 35.652 38.2994L43.7626 30.1887C44.4407 29.5107 44.8223 28.5897 44.8223 27.6302C44.8223 26.6708 44.4407 25.7498 43.7626 25.0717C43.0846 24.3937 42.1636 24.0121 41.2041 24.0121C40.4835 24.0121 39.7849 24.2276 39.1933 24.6215L40.8912 22.9236C41.5692 22.2456 41.9508 21.3245 41.9508 20.3651C41.9508 19.4057 41.5692 18.4847 40.8912 17.8066C40.2131 17.1285 39.2921 16.747 38.3327 16.747C37.6121 16.747 36.9134 16.9625 36.3218 17.3564L39.7506 13.9277C40.4286 13.2496 40.8102 12.3286 40.8102 11.3692C40.8102 10.4097 40.4286 9.48871 39.7506 8.81065C39.0725 8.13259 38.1515 7.75101 37.1921 7.75101C36.4714 7.75101 35.7728 7.96651 35.1812 8.36044L37.365 6.17665C38.0431 5.49859 38.4246 4.57759 38.4246 3.61815C38.4246 2.65871 38.0431 1.7377 37.365 1.05964C36.6869 0.38158 35.7659 0 34.8065 0C33.8471 0 32.926 0.38158 32.248 1.05964L27.3835 5.9241C27.7788 5.33388 27.993 4.63523 27.993 3.91325C27.993 2.95381 27.6114 2.0328 26.9333 1.35475C26.2553 0.676687 25.3343 0.295107 24.3748 0.295107C23.4154 0.295107 22.4944 0.676687 21.8163 1.35475L14.989 8.182C15.3844 7.59179 15.5985 6.89314 15.5985 6.17116C15.5985 5.21172 15.2169 4.29071 14.5388 3.61266C13.8608 2.9346 12.9398 2.55302 11.9803 2.55302C11.0209 2.55302 10.0999 2.9346 9.42183 3.61266L1.31257 11.7205C0.634509 12.3986 0.25293 13.3196 0.25293 14.279C0.25293 15.2385 0.634509 16.1595 1.31257 16.8376V16.8389Z" fill="#E1FABB"/>
<path d="M44.7165 32.2613L44.4666 32.5112C44.3692 32.6086 44.3692 32.7678 44.4666 32.8653C44.5641 32.9627 44.7233 32.9627 44.8208 32.8653L45.0706 32.6155L45.3204 32.8653C45.4178 32.9627 45.5771 32.9627 45.6745 32.8653C45.772 32.7678 45.772 32.6086 45.6745 32.5112L45.4247 32.2613L45.6745 32.0115C45.772 31.9141 45.772 31.7549 45.6745 31.6574C45.6251 31.608 45.562 31.5847 45.4975 31.5847C45.4329 31.5847 45.3698 31.6094 45.3204 31.6574L45.0706 31.9072L44.8208 31.6574C44.7714 31.608 44.7082 31.5847 44.6437 31.5847C44.5792 31.5847 44.5161 31.6094 44.4666 31.6574C44.3692 31.7549 44.3692 31.9141 44.4666 32.0115L44.7165 32.2613Z" fill="#985431"/>
<path d="M8.94009 37.6556L8.69028 37.9054C8.59282 38.0029 8.59282 38.1621 8.69028 38.2596C8.78773 38.357 8.94695 38.357 9.04441 38.2596L9.29422 38.0098L9.54403 38.2596C9.64148 38.357 9.8007 38.357 9.89816 38.2596C9.99561 38.1621 9.99561 38.0029 9.89816 37.9054L9.64834 37.6556L9.89816 37.4058C9.99561 37.3084 9.99561 37.1491 9.89816 37.0517C9.84874 37.0023 9.7856 36.9789 9.72109 36.9789C9.65658 36.9789 9.59344 37.0036 9.54403 37.0517L9.29422 37.3015L9.04441 37.0517C8.99499 37.0023 8.93185 36.9789 8.86734 36.9789C8.80283 36.9789 8.73969 37.0036 8.69028 37.0517C8.59282 37.1491 8.59282 37.3084 8.69028 37.4058L8.94009 37.6556Z" fill="#985431"/>
<path d="M2.53384 15.4636L2.28403 15.7134C2.18657 15.8109 2.18657 15.9701 2.28403 16.0676C2.38148 16.165 2.5407 16.165 2.63816 16.0676L2.88797 15.8177L3.13778 16.0676C3.23523 16.165 3.39445 16.165 3.49191 16.0676C3.58936 15.9701 3.58936 15.8109 3.49191 15.7134L3.2421 15.4636L3.49191 15.2138C3.58936 15.1163 3.58936 14.9571 3.49191 14.8597C3.44249 14.8103 3.37935 14.7869 3.31484 14.7869C3.25033 14.7869 3.18719 14.8116 3.13778 14.8597L2.88797 15.1095L2.63816 14.8597C2.58874 14.8103 2.5256 14.7869 2.46109 14.7869C2.39658 14.7869 2.33344 14.8116 2.28403 14.8597C2.18657 14.9571 2.18657 15.1163 2.28403 15.2138L2.53384 15.4636Z" fill="#985431"/>
<path d="M32.6696 2.59557L32.4198 2.84538C32.3223 2.94284 32.3223 3.10206 32.4198 3.19951C32.5172 3.29696 32.6764 3.29696 32.7739 3.19951L33.0237 2.9497L33.2735 3.19951C33.371 3.29696 33.5302 3.29696 33.6276 3.19951C33.7251 3.10206 33.7251 2.94284 33.6276 2.84538L33.3778 2.59557L33.6276 2.34576C33.7251 2.24831 33.7251 2.08909 33.6276 1.99163C33.5782 1.94222 33.5151 1.91888 33.4506 1.91888C33.3861 1.91888 33.3229 1.94359 33.2735 1.99163L33.0237 2.24144L32.7739 1.99163C32.7245 1.94222 32.6613 1.91888 32.5968 1.91888C32.5323 1.91888 32.4692 1.94359 32.4198 1.99163C32.3223 2.08909 32.3223 2.24831 32.4198 2.34576L32.6696 2.59557Z" fill="#985431"/>
<path d="M28.0851 38.0043C28.4886 38.0043 28.8167 38.3323 28.8167 38.7359C28.8167 39.1394 28.4886 39.4675 28.0851 39.4675C27.6816 39.4675 27.3535 39.1394 27.3535 38.7359C27.3535 38.3323 27.6816 38.0043 28.0851 38.0043ZM28.0851 38.9665C28.2128 38.9665 28.3157 38.8635 28.3157 38.7359C28.3157 38.6082 28.2128 38.5053 28.0851 38.5053C27.9575 38.5053 27.8545 38.6082 27.8545 38.7359C27.8545 38.8635 27.9575 38.9665 28.0851 38.9665Z" fill="#985431"/>
<path d="M41.881 14.6799C42.2845 14.6799 42.6126 15.0079 42.6126 15.4115C42.6126 15.815 42.2845 16.1431 41.881 16.1431C41.4775 16.1431 41.1494 15.815 41.1494 15.4115C41.1494 15.0079 41.4775 14.6799 41.881 14.6799ZM41.881 15.6421C42.0087 15.6421 42.1116 15.5391 42.1116 15.4115C42.1116 15.2838 42.0087 15.1809 41.881 15.1809C41.7534 15.1809 41.6504 15.2838 41.6504 15.4115C41.6504 15.5391 41.7534 15.6421 41.881 15.6421Z" fill="#985431"/>
<path d="M11.2374 2.93182C11.641 2.93182 11.969 3.25987 11.969 3.66341C11.969 4.06696 11.641 4.395 11.2374 4.395C10.8339 4.395 10.5059 4.06696 10.5059 3.66341C10.5059 3.25987 10.8339 2.93182 11.2374 2.93182ZM11.2374 3.89401C11.3651 3.89401 11.468 3.79106 11.468 3.66341C11.468 3.53576 11.3651 3.43282 11.2374 3.43282C11.1098 3.43282 11.0069 3.53576 11.0069 3.66341C11.0069 3.79106 11.1098 3.89401 11.2374 3.89401Z" fill="#985431"/>
<path d="M2.71011 25.7869C3.11365 25.7869 3.4417 26.1149 3.4417 26.5185C3.4417 26.922 3.11365 27.25 2.71011 27.25C2.30656 27.25 1.97852 26.922 1.97852 26.5185C1.97852 26.1149 2.30656 25.7869 2.71011 25.7869ZM2.71011 26.749C2.83776 26.749 2.9407 26.6461 2.9407 26.5185C2.9407 26.3908 2.83776 26.2879 2.71011 26.2879C2.58245 26.2879 2.47951 26.3908 2.47951 26.5185C2.47951 26.6461 2.58245 26.749 2.71011 26.749Z" fill="#985431"/>
<g filter="url(#filter0_d_392_4123)">
<path d="M14.3638 33.2812C13.1463 33.2812 12.1553 32.2901 12.1553 31.0727V8.92181C12.1553 7.70433 13.1463 6.71332 14.3638 6.71332H26.039C26.2216 6.71332 26.3945 6.78469 26.5235 6.91372L32.7167 13.1068C32.8457 13.2359 32.9171 13.4088 32.9171 13.5914V31.0727C32.9171 32.2901 31.9261 33.2812 30.7086 33.2812H14.3638Z" fill="white"/>
</g>
<path d="M28.1738 14.2763C26.62 14.2763 25.3545 13.0121 25.3545 11.457V7.39824C25.3545 7.1196 25.5206 6.87117 25.7772 6.76548C25.861 6.73116 25.9488 6.71332 26.0394 6.71332C26.222 6.71332 26.3949 6.78469 26.5239 6.91372L32.7171 13.1068C32.8461 13.2359 32.9175 13.4088 32.9175 13.5914C32.9175 13.682 32.8996 13.7698 32.8653 13.8535C32.7596 14.1102 32.5112 14.2763 32.2325 14.2763H28.1738Z" fill="#B5B5B5"/>
<path d="M22.5377 25.4121L18.2909 29.6575L15.9932 27.3598L20.24 23.1144L15.9932 18.8676L18.2909 16.5699L22.5377 20.8167L26.7831 16.5699L29.0808 18.8676L24.8354 23.1144L29.0808 27.3598L26.7831 29.6575L22.5377 25.4121Z" fill="#FF6050"/>
<g style="mix-blend-mode:multiply">
<path d="M25.5374 23.4603L29.4287 19.569L29.7842 19.2135L27.131 16.5603L26.9539 16.7374L22.8855 20.8057L22.7167 20.6369L22.611 20.5312L22.5396 20.4598L22.2651 20.1853L18.6484 16.5699L18.6401 16.5617L18.4631 16.7387L15.9883 19.2135L15.9965 19.2218L19.8878 23.113L20.0649 23.2901L20.2337 23.4589L16.1653 27.5273L15.9883 27.7044L15.9965 27.7126L18.6401 30.3562L18.9956 30.0007L22.611 26.3839L22.8855 26.1094L26.4296 29.6534L26.7851 30.0089L27.1323 30.3548L29.43 28.0571L29.7856 27.7016L29.4397 27.3557L25.5401 23.4562L25.5374 23.4603ZM29.0732 27.7057L27.131 29.6479L26.9621 29.4791L26.7851 29.302L23.5156 26.0325L23.1683 25.6867L22.8842 25.4025L22.7071 25.5796L22.2542 26.0325L18.6374 29.6493L18.4686 29.4805L18.2915 29.3034L16.6952 27.7071L20.942 23.4617L16.6952 19.2149L18.6374 17.2727L22.8842 21.5195L23.5142 20.8895L27.1296 17.274L28.7259 18.8704L28.903 19.0474L29.0718 19.2163L24.825 23.4631L28.7245 27.3626L28.9016 27.5396L29.0704 27.7085L29.0732 27.7057Z" fill="#DDDDDD"/>
</g>
<g style="mix-blend-mode:multiply">
<path d="M33.4502 13.5928C33.4502 13.5928 33.4475 13.5845 33.4447 13.5804V13.5777C33.3967 13.4665 33.3294 13.3649 33.2416 13.2771L32.8957 12.9312L28.7381 8.77362L27.0485 7.08397C27.0265 7.062 27.0032 7.04142 26.9798 7.0222C26.9071 6.96181 26.8247 6.91377 26.7383 6.87808C26.6285 6.83415 26.5104 6.81082 26.3896 6.80945H14.7116C13.3555 6.80945 12.252 7.91301 12.252 9.26913V31.42C12.252 31.5504 12.2616 31.678 12.2822 31.8029V31.8112C12.3082 31.9635 12.3467 32.1118 12.3974 32.2545C12.4935 32.5194 12.6335 32.7637 12.8092 32.9779C12.8243 32.9957 12.8394 33.0135 12.8545 33.0314C13.0261 33.229 13.2279 33.3992 13.4543 33.5338H32.3137C32.5388 33.3992 32.742 33.229 32.9135 33.0314C33.0988 32.8173 33.2485 32.5716 33.3514 32.3025C33.4132 32.142 33.4585 31.9745 33.4859 31.8002C33.5051 31.6766 33.5147 31.549 33.5147 31.42V13.9387C33.5147 13.8179 33.4914 13.7012 33.4489 13.5928H33.4502ZM26.2208 7.34476C26.2743 7.3228 26.3306 7.31182 26.3869 7.31182C26.4994 7.31182 26.6106 7.35574 26.6943 7.43947L32.5402 13.2853L32.8861 13.6312C32.8957 13.6408 32.9053 13.6518 32.9135 13.6628C32.9135 13.6642 32.9163 13.6655 32.9177 13.6669C32.9396 13.6944 32.9575 13.7232 32.9726 13.7548C33 13.8124 33.0137 13.8755 33.0137 13.9387C33.0137 13.995 33.0028 14.0512 32.9808 14.1048C32.9643 14.1432 32.9437 14.1789 32.919 14.2105C32.8559 14.2887 32.7667 14.3436 32.6679 14.3642C32.639 14.3697 32.6102 14.3738 32.58 14.3738H28.5213C28.233 14.3738 27.9544 14.3257 27.695 14.2379C27.2393 14.0828 26.8412 13.8028 26.5406 13.4391C26.1728 12.9943 25.9531 12.4261 25.9531 11.8057V7.74693C25.9531 7.57124 26.0588 7.41339 26.2208 7.34613V7.34476ZM14.7116 33.3759C14.4742 33.3759 14.2477 33.3334 14.0377 33.2565C13.8826 33.1988 13.7357 33.122 13.6012 33.03C13.4365 32.9161 13.2896 32.7775 13.1661 32.6182C12.9081 32.2861 12.7543 31.8702 12.7543 31.4186V9.26776C12.7543 8.1889 13.6328 7.31044 14.7116 7.31044H25.5578C25.4892 7.44084 25.4521 7.58908 25.4521 7.74418V11.8029C25.4521 11.9869 25.4686 12.168 25.5002 12.3437C25.5976 12.89 25.8406 13.3869 26.1865 13.7918C26.7506 14.452 27.5879 14.872 28.5226 14.872H32.5814C32.6102 14.872 32.6404 14.872 32.6692 14.8679C32.7571 14.8597 32.8408 14.8405 32.9204 14.8089C32.9533 14.7965 32.9849 14.7814 33.0165 14.7663V31.4186C33.0165 31.549 33.0041 31.6753 32.9794 31.7988C32.9451 31.9759 32.8861 32.1433 32.8065 32.2998C32.6582 32.5922 32.4386 32.8433 32.1696 33.0286C31.8539 33.2469 31.471 33.3745 31.0592 33.3745H14.7116V33.3759Z" fill="#DDDDDD"/>
</g>
<path d="M32.8953 12.9298L28.7377 8.77223L27.0481 7.08257L26.7022 6.73668C26.5251 6.55961 26.2904 6.46216 26.0406 6.46216H14.364C13.0079 6.46216 11.9043 7.56572 11.9043 8.92184V31.0727C11.9043 31.3252 11.9427 31.5696 12.0141 31.7988C12.069 31.9758 12.1431 32.1433 12.2337 32.3012C12.3833 32.5592 12.5782 32.787 12.8075 32.9751C12.8294 32.9929 12.8528 33.0122 12.8761 33.0286C13.2892 33.3429 13.8053 33.531 14.364 33.531H30.7088C31.2674 33.531 31.7835 33.3443 32.1967 33.0286C32.4561 32.831 32.6743 32.5839 32.839 32.2998C32.9296 32.1419 33.0037 31.9745 33.0586 31.7974C33.13 31.5682 33.1685 31.3239 33.1685 31.0713V13.5914C33.1685 13.3416 33.071 13.1069 32.8939 12.9298H32.8953ZM13.1657 32.6182C12.7045 32.26 12.408 31.7 12.408 31.0727V8.92184C12.408 7.84298 13.2865 6.96453 14.3653 6.96453H26.0406C26.1531 6.96453 26.2643 7.00845 26.3481 7.09218L26.6939 7.43807L32.5398 13.2839C32.5604 13.3045 32.5782 13.3265 32.5947 13.3512C32.6112 13.3745 32.6235 13.4006 32.6345 13.4267C32.6565 13.4788 32.6675 13.5351 32.6675 13.5914V31.0727C32.6675 32.1515 31.789 33.03 30.7101 33.03H14.364C13.9124 33.03 13.4965 32.8763 13.1643 32.6182H13.1657Z" fill="#333333"/>
<path d="M32.8953 12.9298L28.7377 8.77223L27.0481 7.08257L26.7022 6.73668C26.5251 6.55961 26.2904 6.46216 26.0406 6.46216C25.9171 6.46216 25.7963 6.48549 25.6824 6.53353C25.5767 6.57746 25.482 6.63922 25.4023 6.71334C25.3708 6.74354 25.3406 6.77511 25.3131 6.80942C25.2733 6.85746 25.239 6.90962 25.2102 6.96453C25.1553 7.07022 25.1196 7.18826 25.1086 7.31042C25.1059 7.33924 25.1045 7.36807 25.1045 7.39826V11.457C25.1045 12.3917 25.5245 13.2304 26.1847 13.7932C26.7214 14.2502 27.4159 14.5275 28.175 14.5275H32.2337C32.3888 14.5275 32.5371 14.4904 32.6675 14.4218C32.7608 14.3724 32.8459 14.3079 32.9186 14.2296C32.9928 14.1487 33.0545 14.0553 33.0985 13.9496C33.1465 13.8357 33.1698 13.7149 33.1698 13.5914C33.1698 13.3416 33.0724 13.1069 32.8953 12.9298ZM26.5416 13.4377C25.9706 12.9669 25.6069 12.2531 25.6069 11.457V7.39826C25.6069 7.22257 25.7125 7.06473 25.8745 6.99747C25.928 6.97551 25.9843 6.96453 26.0406 6.96453C26.1532 6.96453 26.2643 7.00845 26.3481 7.09218L26.694 7.43807L32.5398 13.2839C32.5604 13.3045 32.5782 13.3265 32.5947 13.3512C32.6098 13.3745 32.6235 13.4006 32.6345 13.4267C32.6565 13.4788 32.6675 13.5351 32.6675 13.5914C32.6675 13.6477 32.6565 13.7039 32.6345 13.7575C32.5673 13.9194 32.4094 14.0251 32.2337 14.0251H28.175C27.5546 14.0251 26.9863 13.8041 26.5416 13.4377Z" fill="#333333"/>
<path d="M25.5368 23.4603L25.1895 23.1144L29.0808 19.2231L29.4363 18.8676L26.7831 16.2144L26.4276 16.5699L22.8122 20.1853L22.5363 20.4612L22.2618 20.1867L18.645 16.5713L18.6368 16.5631L18.2909 16.2172L17.9354 16.5727L15.9932 18.5149L15.6377 18.8704L15.985 19.2163L15.9932 19.2245L19.8845 23.1158L15.9932 27.0071L15.6377 27.3626L18.2909 30.0158L18.6464 29.6603L22.2632 26.0435L22.5377 25.769L22.8136 26.0449L22.885 26.1163L26.429 29.6603L26.7845 30.0158L27.14 29.6603L29.0822 27.7181L29.4377 27.3626L25.5382 23.4631L25.5368 23.4603ZM22.8836 25.4025L22.5377 25.0566L21.9077 25.6867L18.2909 29.3034L16.6946 27.7071L16.3487 27.3612L20.5955 23.1158L16.696 19.2163L16.3501 18.8704L18.2923 16.9282L18.6382 17.2741L22.5377 21.1736L23.1677 20.5436L26.7831 16.9282L27.1304 17.2754L28.7267 18.8717L24.4813 23.1185L24.8272 23.4644L28.7267 27.364L26.7845 29.3062L23.1691 25.6908L22.885 25.4066L22.8836 25.4025Z" fill="#333333"/>
<path d="M37.6707 33.2811C37.6707 33.4197 37.5581 33.5323 37.4195 33.5323H7.65353C7.5149 33.5323 7.40234 33.4197 7.40234 33.2811C7.40234 33.1425 7.5149 33.0299 7.65353 33.0299H37.4195C37.5581 33.0299 37.6707 33.1425 37.6707 33.2811Z" fill="#333333"/>
<path d="M6.61721 33.5323H5.47384C5.33521 33.5323 5.22266 33.4197 5.22266 33.2811C5.22266 33.1425 5.33521 33.0299 5.47384 33.0299H6.61721C6.75584 33.0299 6.86839 33.1425 6.86839 33.2811C6.86839 33.4197 6.75584 33.5323 6.61721 33.5323Z" fill="#333333"/>
<path d="M12.2471 32.3011H11.1037C10.9651 32.3011 10.8525 32.1885 10.8525 32.0499C10.8525 31.9113 10.9651 31.7987 11.1037 31.7987H12.2471C12.3857 31.7987 12.4983 31.9113 12.4983 32.0499C12.4983 32.1885 12.3857 32.3011 12.2471 32.3011Z" fill="#333333"/>
<path d="M10.0694 32.3011H8.92599C8.78736 32.3011 8.6748 32.1885 8.6748 32.0499C8.6748 31.9113 8.78736 31.7987 8.92599 31.7987H10.0694C10.208 31.7987 10.3205 31.9113 10.3205 32.0499C10.3205 32.1885 10.208 32.3011 10.0694 32.3011Z" fill="#333333"/>
<path d="M33.9678 32.3011H32.8244C32.6858 32.3011 32.5732 32.1885 32.5732 32.0499C32.5732 31.9113 32.6858 31.7987 32.8244 31.7987H33.9678C34.1064 31.7987 34.219 31.9113 34.219 32.0499C34.219 32.1885 34.1064 32.3011 33.9678 32.3011Z" fill="#333333"/>
<path d="M36.1475 32.3011H35.0041C34.8655 32.3011 34.7529 32.1885 34.7529 32.0499C34.7529 31.9113 34.8655 31.7987 35.0041 31.7987H36.1475C36.2861 31.7987 36.3987 31.9113 36.3987 32.0499C36.3987 32.1885 36.2861 32.3011 36.1475 32.3011Z" fill="#333333"/>
<path d="M39.5996 33.5323H38.4563C38.3176 33.5323 38.2051 33.4197 38.2051 33.2811C38.2051 33.1425 38.3176 33.0299 38.4563 33.0299H39.5996C39.7383 33.0299 39.8508 33.1425 39.8508 33.2811C39.8508 33.4197 39.7383 33.5323 39.5996 33.5323Z" fill="#333333"/>
<defs>
<filter id="filter0_d_392_4123" x="12.1553" y="6.71332" width="21.2617" height="27.0678" filterUnits="userSpaceOnUse" color-interpolation-filters="sRGB">
<feFlood flood-opacity="0" result="BackgroundImageFix"/>
<feColorMatrix in="SourceAlpha" type="matrix" values="0 0 0 0 0 0 0 0 0 0 0 0 0 0 0 0 0 0 127 0" result="hardAlpha"/>
<feOffset dx="0.5" dy="0.5"/>
<feComposite in2="hardAlpha" operator="out"/>
<feColorMatrix type="matrix" values="0 0 0 0 0 0 0 0 0 0 0 0 0 0 0 0 0 0 1 0"/>
<feBlend mode="normal" in2="BackgroundImageFix" result="effect1_dropShadow_392_4123"/>
<feBlend mode="normal" in="SourceGraphic" in2="effect1_dropShadow_392_4123" result="shape"/>
</filter>
</defs>
</svg>
