<svg width="14" height="17" viewBox="0 0 14 17" fill="none" xmlns="http://www.w3.org/2000/svg">
<path d="M6.73523 16.5053C4.7883 15.382 2.89483 14.2895 0.957098 13.1715C1.4088 13.0144 1.48021 12.7034 1.47863 12.3146C1.46823 9.76728 1.47053 7.21992 1.47672 4.67256C1.47759 4.3048 1.42277 3.99074 0.9375 3.84846C1.82266 3.33797 2.64045 2.86639 3.53268 2.35182C3.53268 2.65445 3.53268 2.86742 3.53268 3.08037C3.53483 6.12847 3.53482 9.1806 3.53482 12.2266C3.5315 12.6915 3.65383 12.9337 4.07086 13.1669C4.40776 13.3553 4.4583 13.3727 4.71601 13.5173C4.71601 13.3082 4.71744 13.1808 4.71601 13.0329C4.71601 9.39301 4.72316 5.8047 4.71601 2.0967C4.71515 1.7885 4.78529 1.60049 5.06862 1.45378C5.618 1.16942 6.1461 0.843906 6.73523 0.505371V16.5053Z" fill="#33CC99"/>
<path fill-rule="evenodd" clip-rule="evenodd" d="M12.4998 13.9159C11.0055 14.778 9.52481 15.6323 8.01172 16.5053V0.505371C8.18718 0.60619 8.35721 0.705855 8.52401 0.80362C8.9173 1.03414 9.29258 1.2541 9.67835 1.45378C9.96168 1.60049 10.0318 1.7885 10.0309 2.0967C10.0262 4.56932 10.0278 6.98873 10.0294 9.40569C10.0302 10.6132 10.0309 11.8202 10.0309 13.0329C10.03 13.127 10.0303 13.2129 10.0306 13.3168C10.0308 13.3761 10.0309 13.4413 10.0309 13.5173C10.1532 13.4487 10.2289 13.4087 10.3106 13.3655C10.4011 13.3177 10.4991 13.2659 10.6761 13.1669C11.0931 12.9337 11.2155 12.6915 11.2121 12.2266V12.2179C11.2121 9.17483 11.2121 6.12558 11.2143 3.08037V2.35182C11.586 2.56622 11.9449 2.77316 12.301 2.97856C12.7997 3.26612 13.2931 3.55067 13.8095 3.84846C13.3242 3.99074 13.2694 4.3048 13.2702 4.67256C13.2764 7.21992 13.2787 9.76728 13.2683 12.3146C13.2667 12.7034 13.3382 13.0144 13.7899 13.1715L12.4998 13.9159ZM9.24656 2.09258L9.01988 1.63275L8.79327 2.09258L8.28642 2.16629L8.65316 2.5242L8.56658 3.02955L9.01988 2.79094L9.47325 3.02955L9.38669 2.5242L9.75341 2.16629L9.24656 2.09258Z" fill="url(#paint0_linear_1413_12423)"/>
<defs>
<linearGradient id="paint0_linear_1413_12423" x1="8.01172" y1="8.50528" x2="13.8095" y2="8.50528" gradientUnits="userSpaceOnUse">
<stop stop-color="#07806D"/>
<stop offset="1" stop-color="#035663"/>
</linearGradient>
</defs>
</svg>
