<svg width="110" height="128" viewBox="0 0 110 128" fill="none" xmlns="http://www.w3.org/2000/svg">
<path d="M108.279 75.0856C108.279 76.1876 108.247 77.2816 108.183 78.3676C108.183 78.3916 108.183 78.3995 108.167 78.4235C108.064 80.1883 107.864 81.9211 107.569 83.6379C107.089 86.4648 106.379 89.2117 105.452 91.8709C104.55 94.4421 103.464 96.9256 102.178 99.2972C99.8707 103.585 96.9481 107.506 93.5543 110.932C92.2686 112.234 90.9191 113.463 89.4977 114.613C87.1021 116.578 84.5148 118.31 81.7838 119.82C81.2808 120.091 80.7697 120.363 80.2586 120.618C79.9552 120.77 79.6517 120.922 79.3483 121.057C75.6191 122.854 71.6424 124.212 67.474 125.05C64.4156 125.673 61.2694 126.016 58.0513 126.056C57.8118 126.056 57.5562 126.056 57.3167 126.056C56.614 126.056 55.9112 126.04 55.2165 126.016H55.2005C55.2005 126.016 55.1367 126.016 55.1047 126.016C54.9849 126.016 54.8731 126.016 54.7454 126C49.0279 125.713 43.5419 124.499 38.4632 122.463C35.4926 121.289 32.6578 119.828 29.9907 118.135C28.9287 117.464 27.8906 116.753 26.8924 116.003C25.8703 115.236 24.8721 114.438 23.9218 113.607C22.6841 112.529 21.4943 111.403 20.3763 110.213C20.2086 110.046 20.0409 109.87 19.8733 109.694C18.8352 108.568 17.845 107.394 16.9107 106.181C16.2719 105.35 15.657 104.496 15.0741 103.625C14.9463 103.458 14.8345 103.29 14.7307 103.122C11.5685 98.347 9.18884 92.9888 7.7914 87.2553C7.64767 86.7043 7.52788 86.1533 7.41609 85.6023C7.28832 84.9955 7.17653 84.3966 7.06473 83.7897C6.84913 82.52 6.67345 81.2184 6.55367 79.9168C6.40195 78.3277 6.33008 76.7146 6.33008 75.0856C6.33008 73.4566 6.40194 71.9873 6.53769 70.4621C6.55366 70.2704 6.56964 70.0788 6.60158 69.8951C6.77726 68.0665 7.05675 66.2698 7.43206 64.513C7.52789 64.0339 7.6317 63.5707 7.74349 63.1076C8.04694 61.8299 8.40628 60.5762 8.80555 59.3465C10.4665 54.2198 12.91 49.4526 16.0163 45.1884C19.5299 40.3572 23.858 36.1569 28.8249 32.8191C29.9668 32.0445 31.1406 31.3178 32.3464 30.6391C36.5787 28.2594 41.1702 26.4627 46.0333 25.3687C47.0634 25.1371 48.1015 24.9375 49.1556 24.7618C51.8068 24.3306 54.5298 24.115 57.3087 24.115C58.6422 24.115 59.9598 24.1629 61.2694 24.2747C64.4636 24.5143 67.5779 25.0573 70.5883 25.8718C75.8427 27.2772 80.7697 29.5131 85.2095 32.4278C87.3177 33.8092 89.314 35.3344 91.1906 37.0114L91.2066 37.0273C91.3024 37.1072 91.3982 37.195 91.494 37.2829C94.6722 40.1496 97.4911 43.4236 99.8627 47.017C100.086 47.3524 100.302 47.7038 100.518 48.0472C100.909 48.67 101.292 49.3009 101.643 49.9477C105.317 56.3839 107.616 63.7065 108.159 71.5162C108.199 72.2189 108.247 72.9296 108.255 73.6403C108.279 74.1274 108.287 74.6145 108.287 75.1096L108.279 75.0856Z" stroke="#E1FABB" stroke-width="2.5" stroke-linecap="round" stroke-linejoin="round"/>
<path d="M33.2798 9.40603C33.152 10.3483 34.246 10.9392 34.829 10.2445C36.2584 8.5516 38.7178 5.94837 40.7142 5.38141C43.7327 4.52697 43.6768 2.52265 42.0717 2.09144C40.4666 1.66023 35.6674 4.39921 34.0863 7.16214C33.5992 8.00859 33.3676 8.7672 33.2878 9.40603H33.2798Z" fill="#69CF00" stroke="#69CF00" stroke-width="2.5" stroke-linecap="round" stroke-linejoin="round"/>
<path d="M47.0227 4.54301C47.5018 4.23957 47.6615 3.60074 47.374 3.09766C47.0946 2.60257 46.4717 2.44286 45.9926 2.7463C45.5135 3.04975 45.3537 3.68858 45.6412 4.19165C45.9207 4.68675 46.5436 4.84645 47.0227 4.54301Z" fill="#69CF00" stroke="#69CF00" stroke-width="2.5" stroke-linecap="round" stroke-linejoin="round"/>
<path d="M12.7097 69.2165C12.7097 69.2165 3.67026 86.8721 8.25387 98.7703C12.4222 109.606 23.0348 105.789 23.8014 104.711C24.568 103.633 27.9218 72.6661 27.9218 72.6661L22.1005 69.6557C19.1858 68.1464 15.7521 67.9867 12.7097 69.2165Z" fill="#8CF009"/>
<path d="M12.4382 98.323C7.85459 86.4249 16.894 68.7692 16.894 68.7692L18.9143 67.9547L17.5089 67.2759L12.7097 69.2164C12.7097 69.2164 3.67026 86.872 8.25387 98.7702C11.3761 106.875 18.0918 106.788 21.6054 105.773C18.3074 105.534 14.5543 103.809 12.4462 98.331L12.4382 98.323Z" fill="white"/>
<path d="M17.5021 67.2759L12.7029 69.2164C12.7029 69.2164 3.66343 86.872 8.24703 98.7702C12.4154 109.606 23.0279 105.789 23.7945 104.711C24.5611 103.633 27.915 72.6661 27.915 72.6661L17.5021 67.2759Z" stroke="#000001" stroke-width="2.5" stroke-linecap="round" stroke-linejoin="round"/>
<path d="M81.7755 119.812C81.2724 120.083 80.7614 120.355 80.2503 120.61C79.9469 120.762 79.6434 120.914 79.34 121.049C75.6108 122.846 71.6341 124.204 67.4657 125.042C64.4073 125.665 61.2611 126.008 58.043 126.048C57.8034 126.048 57.5479 126.048 57.3084 126.048C56.6056 126.048 55.9029 126.032 55.2082 126.008H55.1922C55.1922 126.008 55.1283 126.008 55.0964 126.008C54.9766 126.008 54.8648 126.008 54.7371 125.992C49.0195 125.705 43.5336 124.491 38.4549 122.455C35.4843 121.281 32.6495 119.82 29.9824 118.127L65.9884 119.812H81.7755Z" stroke="#000001" stroke-width="2.5" stroke-linecap="round" stroke-linejoin="round"/>
<path d="M104.47 89.9624C104.454 90.0103 104.438 90.0582 104.414 90.0982C104.222 90.5054 103.703 90.5933 102.984 90.5214H102.968C102.306 90.4495 101.483 90.2339 100.605 89.9864C98.313 89.3555 95.7097 88.5091 94.7914 89.4913C94.6876 89.5951 94.6157 89.7229 94.5598 89.8826C94.5598 89.8985 94.5598 89.9065 94.5439 89.9145L94.5199 89.9784C94.5199 90.0263 94.488 90.0742 94.48 90.1221C93.9929 91.855 93.5936 93.5239 93.2742 95.121C91.9486 101.733 92.0365 107.107 93.5457 110.932C92.26 112.234 90.9105 113.463 89.4891 114.613C87.0935 116.578 84.5062 118.31 81.7753 119.82C81.2722 120.091 80.7611 120.363 80.25 120.618C79.9067 120.634 79.6112 120.786 79.3397 121.057C75.6105 122.854 71.6338 124.212 67.4655 125.05C64.4071 125.673 61.2608 126.016 58.0427 126.056C57.8032 126.056 57.5476 126.056 57.3081 126.056C56.6054 126.056 55.9027 126.04 55.2079 126.016H55.192C55.192 126.016 55.1281 126.016 55.0961 126.016C55.0642 126.016 55.0482 126 55.0163 125.992C54.9205 125.976 54.8326 125.992 54.7368 125.992C49.0193 125.705 43.5333 124.491 38.4546 122.455C35.4841 121.281 32.6493 119.82 29.9822 118.127C28.9201 117.456 27.882 116.745 26.8838 115.995C25.8617 115.228 24.8635 114.43 23.9133 113.599C22.6756 112.521 21.4857 111.395 20.3678 110.205L20.4317 110.038C20.9906 108.672 21.4777 107.299 21.7173 105.742C21.8131 105.159 21.877 104.552 21.885 103.913C21.885 103.074 21.9169 102.396 21.9489 101.917C22.0846 100.096 21.7652 97.9877 21.7812 95.2248C21.7812 94.9373 21.7812 94.6498 21.8051 94.3464C21.877 92.374 22.1405 90.0742 22.8592 87.3432C22.9151 87.1116 22.979 86.896 23.0429 86.6645C23.0429 86.6325 23.0668 86.5926 23.0748 86.5606C23.3383 85.6503 23.6498 84.6921 24.0251 83.6779C24.0251 83.6779 24.041 83.638 24.057 83.5821C24.057 83.5502 24.081 83.5023 24.089 83.4543C24.1209 83.3346 24.1768 83.1589 24.2167 82.9672C24.2487 82.8554 24.2886 82.7277 24.3126 82.5999L24.3764 82.3444C24.3924 82.2965 24.4084 82.2406 24.4164 82.1767C24.4164 82.1368 24.4323 82.0809 24.4483 82.0409C24.6479 81.1546 24.8076 80.2203 24.624 80.0606C23.5779 79.1183 22.3402 78.4555 20.9906 78.0003C20.5754 77.8646 20.1602 77.7448 19.7289 77.633C19.5373 77.5931 19.3456 77.5452 19.154 77.5132C19.0662 77.4893 18.9783 77.4813 18.8825 77.4573C18.084 77.3136 17.2615 77.2258 16.415 77.1619C15.8401 77.1299 15.2492 77.106 14.6662 77.106C13.7958 77.09 12.9094 77.1219 12.0231 77.1699C11.512 77.2018 11.0009 77.2337 10.4979 77.2737C10.3861 77.2737 10.2743 77.2976 10.1625 77.3056C10.0906 77.1858 10.0267 77.0341 9.97881 76.8744C9.95485 76.8345 9.94688 76.7786 9.93889 76.7227C9.91494 76.6748 9.90695 76.6189 9.89896 76.555C9.86702 76.4512 9.85105 76.3394 9.83508 76.2276C9.76321 75.7964 9.73926 75.2853 9.73926 74.6625C9.73926 74.2153 9.77918 73.7681 9.83508 73.3289C9.83508 73.273 9.83508 73.2331 9.85105 73.1772C9.91494 72.73 10.0028 72.2828 10.1066 71.8436C10.1625 71.628 10.2264 71.4124 10.2902 71.1968C10.3541 70.9812 10.426 70.7656 10.4979 70.55C10.6895 69.999 10.9211 69.456 11.1686 68.929C11.2086 68.8331 11.2565 68.7373 11.3044 68.6415C11.4082 68.4498 11.504 68.2582 11.5998 68.0665C11.5998 68.0426 11.6238 68.0266 11.6318 68.0106C11.7356 67.835 11.8314 67.6513 11.9352 67.4756C12.047 67.276 12.1668 67.0843 12.2786 66.8927C12.9813 65.7348 13.7719 64.6568 14.5544 63.6586C14.6822 63.4909 14.8179 63.3312 14.9457 63.1635C15.0176 63.0757 15.0894 62.9878 15.1613 62.892C15.3051 62.7243 15.4488 62.5486 15.5925 62.3889C16.0158 61.8779 16.423 61.3988 16.8143 60.9436C16.9261 60.8078 17.0459 60.6801 17.1497 60.5523C17.1816 60.5124 17.2215 60.4565 17.2615 60.4166C17.501 60.1211 17.7326 59.8496 17.9482 59.5861C18.0121 59.4982 18.084 59.4184 18.1478 59.3385C18.5471 58.8354 18.8506 58.4042 19.0183 58.0449C19.0582 57.965 19.0901 57.8932 19.1141 57.8213C19.146 57.7814 19.154 57.7255 19.162 57.6776C22.1485 45.4759 25.4465 38.6405 44.8908 37.7062C45.3859 37.6742 45.9289 37.5544 46.5199 37.3468C46.6317 37.3149 46.7514 37.267 46.8792 37.2191C47.1188 37.1232 47.3663 37.0274 47.6059 36.9156C47.7177 36.8757 47.8374 36.8198 47.9413 36.7639C48.4603 36.5243 48.9873 36.2369 49.5144 35.9334C49.7459 35.8056 49.9695 35.6779 50.2011 35.5421C50.4726 35.3824 50.7441 35.2227 51.0076 35.055C51.1993 34.9352 51.3909 34.8155 51.5826 34.6877C51.8142 34.544 52.0218 34.4082 52.2454 34.2645C52.453 34.1367 52.6526 34.0089 52.8443 33.8892C53.0758 33.7374 53.2914 33.5937 53.4991 33.4579C54.3455 32.9149 55.0642 32.4678 55.5593 32.2282C55.727 32.1483 55.8228 32.1084 55.8228 32.1084L63.4488 35.5421L64.2394 35.9015L65.1817 36.3247C65.1817 36.3247 71.9053 40.3573 75.6265 40.5969C75.8741 40.6128 76.1216 40.6288 76.3851 40.6608C76.5129 40.6767 76.6407 40.6927 76.7684 40.7087C76.984 40.7326 77.1996 40.7646 77.4153 40.8045C77.4153 40.8045 77.4392 40.8045 77.4472 40.8045H77.4632C78.2298 40.9323 79.0123 41.1079 79.7789 41.3395C80.0105 41.4034 80.2341 41.4753 80.4736 41.5551C80.7052 41.627 80.9288 41.7068 81.1604 41.7867C81.392 41.8745 81.6155 41.9544 81.8471 42.0422C82.0787 42.138 82.3023 42.2259 82.5339 42.3297C82.7654 42.4255 82.981 42.5293 83.2126 42.6331C83.4442 42.7369 83.6678 42.8567 83.8914 42.9605C84.5622 43.2959 85.2329 43.6632 85.8877 44.0785C86.1113 44.2142 86.3189 44.35 86.5345 44.4937C87.1334 44.869 87.7164 45.2843 88.2913 45.7315C88.3792 45.7794 88.459 45.8433 88.5309 45.9071C88.6826 46.0269 88.8343 46.1387 88.9781 46.2745C89.2096 46.4501 89.4492 46.6418 89.6808 46.8414C90.088 47.1848 90.4873 47.5441 90.8706 47.9115C91.0143 48.0392 91.1581 48.175 91.2938 48.3107C91.3497 48.3586 91.3976 48.4145 91.4535 48.4704C91.6452 48.6621 91.8288 48.8537 92.0205 49.0454C92.2041 49.237 92.3878 49.4367 92.5795 49.6363C92.7631 49.8359 92.9468 50.0356 93.1225 50.2432C93.4818 50.6584 93.8252 51.0737 94.1606 51.5049C94.3282 51.7205 94.4959 51.9361 94.6556 52.1517C94.8313 52.3833 95.015 52.6308 95.1827 52.8704C95.3184 53.078 95.4622 53.2856 95.6059 53.4932C98.7122 58.1248 100.701 63.6267 100.701 69.3362C100.701 70.2465 100.653 71.1649 100.541 72.0832C100.429 73.1053 100.421 74.0795 100.509 75.0138L100.397 83.5262C100.397 83.6859 100.397 83.8297 100.429 83.9734C100.445 84.1251 100.461 84.2688 100.501 84.4046C100.525 84.5244 100.557 84.6442 100.597 84.7639C100.629 84.8438 100.653 84.9236 100.693 84.9955C100.717 85.0674 100.748 85.1393 100.788 85.2111C100.884 85.4267 101.004 85.6343 101.132 85.826C101.164 85.8739 101.196 85.9218 101.228 85.9777C101.323 86.1215 101.435 86.2572 101.547 86.393C101.587 86.4489 101.643 86.5048 101.699 86.5686C102.026 86.9519 102.401 87.3193 102.769 87.6866L103.304 88.2456C103.511 88.4692 103.719 88.7007 103.903 88.9483C103.967 89.0361 104.022 89.116 104.07 89.1878C104.11 89.2357 104.15 89.2837 104.174 89.3396C104.206 89.3715 104.222 89.4114 104.254 89.4514C104.27 89.4753 104.286 89.4913 104.294 89.5232C104.31 89.5472 104.326 89.5552 104.326 89.5791C104.398 89.6909 104.462 89.8107 104.526 89.9385L104.47 89.9624Z" fill="#69CF00"/>
<path d="M104.418 90.0981C104.442 90.0582 104.458 90.0102 104.474 89.9623C104.29 89.603 104.067 89.2676 103.827 88.9562C103.971 89.3714 104.171 89.7467 104.418 90.0981Z" fill="white"/>
<path d="M56.83 32.5954L55.7839 32.1243C55.7839 32.1243 55.6881 32.1642 55.5204 32.2441C53.532 33.1784 47.9902 37.5464 44.8439 37.7061C25.3996 38.6324 22.1016 45.4758 19.1231 57.6775C19.1151 57.7254 19.1071 57.7733 19.0751 57.8212C18.2846 60.0731 10.8183 65.9982 9.8201 73.1771C9.75622 73.6642 9.70831 74.1593 9.70831 74.6544C9.70032 75.956 9.85205 76.7945 10.1475 77.3055C11.1377 77.2257 11.4571 77.1778 12.4473 77.1458C13.5333 70.0468 19.9376 64.1696 20.7201 61.9337C20.7521 61.8858 20.7601 61.0313 20.768 60.9834C23.7466 48.7818 27.0445 41.9383 46.4889 41.012C48.7168 40.9002 52.9491 39.0796 55.9436 37.6981C56.0554 35.9493 56.3588 34.2404 56.83 32.5954Z" fill="white"/>
<path d="M25.425 96.8777V96.8936C25.4091 100.942 25.3132 104.608 25.2094 106.029C25.1775 106.508 25.1455 107.187 25.1455 108.025C25.1136 110.141 24.5786 111.898 23.9078 113.599C22.6701 112.521 21.4803 111.395 20.3623 110.205L20.4262 110.038C20.9852 108.672 21.4723 107.299 21.7118 105.741C21.8077 105.159 21.8715 104.552 21.8795 103.913C21.8795 103.074 21.9115 102.396 21.9434 101.916C22.0792 100.096 21.7597 97.9876 21.7757 95.2247C21.7757 94.9372 21.7757 94.6498 21.7997 94.3463C21.8715 92.3739 22.1351 90.0661 22.8537 87.3352C22.9096 87.1116 22.9735 86.896 23.0374 86.6644C23.0374 86.6324 23.0614 86.5925 23.0693 86.5606C23.3329 85.6502 23.6443 84.692 24.0196 83.6779C24.0196 83.6779 24.0356 83.6379 24.0516 83.582C24.0516 83.5501 24.0755 83.5022 24.0835 83.4543C24.1154 83.3345 24.1713 83.1588 24.2113 82.9672C24.2432 82.8554 24.2751 82.7356 24.3071 82.5998L24.371 82.3443C24.371 82.2964 24.3949 82.2405 24.4029 82.1766C24.4908 82.2085 24.5706 82.3363 24.6345 82.52C24.9459 83.3345 25.1455 85.4825 25.2653 88.1736C25.3212 89.4593 25.3612 90.8727 25.3851 92.318C25.4011 93.2763 25.4091 94.2505 25.4091 95.2167C25.4091 95.7757 25.4091 96.3267 25.4091 96.8697L25.425 96.8777Z" fill="white"/>
<path d="M104.47 89.9624C104.454 90.0103 104.438 90.0582 104.414 90.0982C104.222 90.5054 103.703 90.5933 102.984 90.5214H102.968C102.306 90.4495 101.483 90.2339 100.605 89.9864C98.313 89.3555 95.7097 88.5091 94.7914 89.4913C94.6876 89.5951 94.6157 89.7228 94.5598 89.8826C94.5598 89.8985 94.5598 89.9065 94.5439 89.9145L94.5199 89.9784C94.5199 90.0263 94.4879 90.0742 94.48 90.1221C93.9929 91.8549 93.5936 93.5239 93.2742 95.121C91.9486 101.733 92.0365 107.107 93.5457 110.932C92.26 112.234 90.9105 113.463 89.4891 114.613C87.0935 116.578 84.5062 118.31 81.7753 119.82C81.2722 120.091 80.7611 120.363 80.25 120.618C79.9466 120.77 79.6432 120.922 79.3397 121.057C75.6105 122.854 71.6338 124.212 67.4655 125.05C64.4071 125.673 61.2608 126.016 58.0427 126.056C57.8032 126.056 57.5476 126.056 57.3081 126.056C56.6054 126.056 55.9027 126.04 55.2079 126.016H55.192C55.1361 125.992 55.0722 125.984 55.0163 125.984C54.9205 125.968 54.8326 125.984 54.7368 125.984C49.0193 125.697 43.5333 124.483 38.4546 122.447C35.4841 121.273 32.6493 119.812 29.9822 118.119C28.9201 117.448 27.882 116.737 26.8838 115.987C25.8617 115.22 24.8635 114.422 23.9133 113.591C22.6756 112.513 21.4857 111.387 20.3678 110.197L20.4317 110.03C20.9906 108.664 21.4777 107.291 21.7173 105.734C21.8131 105.151 21.877 104.544 21.885 103.905C21.885 103.066 21.9169 102.388 21.9489 101.909C22.0846 100.088 21.7652 97.9797 21.7812 95.2168C21.7812 94.9293 21.7812 94.6418 21.8051 94.3384C21.877 92.366 22.1405 90.0662 22.8592 87.3352C22.9151 87.1036 22.979 86.888 23.0429 86.6565C23.0429 86.6245 23.0668 86.5846 23.0748 86.5527C23.3383 85.6423 23.6498 84.6841 24.0251 83.6699C24.0251 83.6699 24.041 83.63 24.057 83.5741C24.057 83.5422 24.081 83.4943 24.089 83.4464C24.1209 83.3266 24.1768 83.1509 24.2167 82.9592C24.2487 82.8474 24.2886 82.7197 24.3126 82.5919L24.3764 82.3364C24.3924 82.2885 24.4084 82.2326 24.4164 82.1687C24.4164 82.1288 24.4323 82.0729 24.4483 82.0329C24.6479 81.1466 24.8076 80.2123 24.624 80.0526C23.5779 79.1103 22.3402 78.4475 20.9906 77.9923C20.5754 77.8566 20.1602 77.7368 19.7289 77.625C19.5373 77.5851 19.3456 77.5372 19.154 77.5052C19.0662 77.4813 18.9783 77.4733 18.8825 77.4493C18.084 77.3056 17.2615 77.2178 16.415 77.1539C15.8401 77.1219 15.2492 77.098 14.6662 77.098C13.7958 77.082 12.9094 77.114 12.0231 77.1619C11.512 77.1938 11.0009 77.2257 10.4979 77.2657C10.3861 77.2657 10.2743 77.2896 10.1625 77.2976C10.0906 77.1778 10.0267 77.0261 9.97881 76.8664C9.95485 76.8265 9.94688 76.7706 9.93889 76.7147C9.91494 76.6668 9.90695 76.6109 9.89896 76.547C9.86702 76.4432 9.85105 76.3314 9.83508 76.2196C9.76321 75.7884 9.73926 75.2773 9.73926 74.6545C9.73926 74.2073 9.77918 73.7601 9.83508 73.3209C9.83508 73.265 9.83508 73.2251 9.85105 73.1692C9.91494 72.722 10.0028 72.2748 10.1066 71.8356C10.1625 71.62 10.2264 71.4044 10.2902 71.1888C10.3541 70.9732 10.426 70.7576 10.4979 70.542C10.6895 69.991 10.9211 69.448 11.1686 68.921C11.2086 68.8251 11.2565 68.7293 11.3044 68.6335C11.4082 68.4418 11.504 68.2502 11.5998 68.0585C11.5998 68.0346 11.6238 68.0186 11.6318 68.0026C11.7356 67.827 11.8314 67.6433 11.9352 67.4676C12.047 67.268 12.1668 67.0763 12.2786 66.8847C12.9813 65.7268 13.7719 64.6488 14.5544 63.6506C14.6822 63.4829 14.8179 63.3232 14.9457 63.1555C15.0176 63.0677 15.0894 62.9798 15.1613 62.884C15.3051 62.7163 15.4488 62.5407 15.5925 62.3809C16.0158 61.8699 16.423 61.3908 16.8143 60.9356C16.9261 60.7998 17.0459 60.6721 17.1497 60.5443C17.1816 60.5044 17.2215 60.4485 17.2615 60.4086C17.501 60.1131 17.7326 59.8416 17.9482 59.5781C18.0121 59.4902 18.084 59.4104 18.1478 59.3305C18.5471 58.8275 18.8506 58.3962 19.0183 58.0369C19.0582 57.9571 19.0901 57.8852 19.1141 57.8133C19.146 57.7734 19.154 57.7175 19.162 57.6696C22.1485 45.4679 25.4465 38.6325 44.8908 37.6982C45.3859 37.6662 45.9289 37.5464 46.5199 37.3388C46.6317 37.3069 46.7514 37.259 46.8792 37.2111C47.1188 37.1152 47.3663 37.0194 47.6059 36.9076C47.7177 36.8677 47.8374 36.8118 47.9413 36.7559C48.4603 36.5163 48.9873 36.2289 49.5144 35.9254C49.7459 35.7977 49.9695 35.6699 50.2011 35.5341C50.4726 35.3744 50.7441 35.2147 51.0076 35.047C51.1993 34.9272 51.3909 34.8075 51.5826 34.6797C51.8142 34.536 52.0218 34.4002 52.2454 34.2565C52.453 34.1287 52.6526 34.0009 52.8443 33.8812C53.0758 33.7294 53.2914 33.5857 53.4991 33.45C54.3455 32.9069 55.0642 32.4598 55.5593 32.2202C55.727 32.1404 55.8228 32.1004 55.8228 32.1004L63.4488 35.5341L64.2394 35.8935L65.1817 36.3167C65.1817 36.3167 71.9053 40.3493 75.6265 40.5889C75.8741 40.6048 76.1216 40.6208 76.3851 40.6528C76.5129 40.6687 76.6407 40.6847 76.7684 40.7007C76.984 40.7246 77.1996 40.7566 77.4152 40.7965C77.4152 40.7965 77.4392 40.7965 77.4472 40.7965H77.4632C78.2298 40.9243 79.0123 41.0999 79.7789 41.3315C80.0105 41.3954 80.2341 41.4673 80.4736 41.5471C80.7052 41.619 80.9288 41.6988 81.1604 41.7787C81.392 41.8665 81.6155 41.9464 81.8471 42.0342C82.0787 42.1301 82.3023 42.2179 82.5339 42.3217C82.7654 42.4175 82.981 42.5213 83.2126 42.6251C83.4442 42.729 83.6678 42.8487 83.8914 42.9525C84.5622 43.2879 85.2329 43.6553 85.8877 44.0705C86.1113 44.2062 86.3189 44.342 86.5345 44.4857C87.1334 44.861 87.7164 45.2763 88.2913 45.7235C88.3792 45.7714 88.459 45.8353 88.5309 45.8991C88.6826 46.0189 88.8343 46.1307 88.9781 46.2665C89.2096 46.4421 89.4492 46.6338 89.6808 46.8334C90.088 47.1768 90.4873 47.5361 90.8706 47.9035C91.0143 48.0312 91.1581 48.167 91.2938 48.3027C91.3497 48.3507 91.3976 48.4066 91.4535 48.4624C91.6452 48.6541 91.8288 48.8457 92.0205 49.0374C92.2041 49.229 92.3878 49.4287 92.5795 49.6283C92.7631 49.8279 92.9468 50.0276 93.1225 50.2352C93.4818 50.6504 93.8252 51.0657 94.1606 51.4969C94.3282 51.7125 94.4959 51.9281 94.6556 52.1437C94.8313 52.3753 95.015 52.6228 95.1827 52.8624C95.3184 53.07 95.4622 53.2776 95.6059 53.4852C98.7122 58.1168 100.701 63.6187 100.701 69.3282C100.701 70.2386 100.653 71.1569 100.541 72.0752C100.429 73.0973 100.421 74.0715 100.509 75.0058L100.397 83.5182C100.397 83.6779 100.397 83.8217 100.429 83.9654C100.445 84.1171 100.461 84.2609 100.501 84.3966C100.525 84.5164 100.557 84.6362 100.597 84.756C100.629 84.8358 100.653 84.9157 100.693 84.9875C100.717 85.0594 100.748 85.1313 100.788 85.2031C100.884 85.4187 101.004 85.6264 101.132 85.818C101.164 85.8659 101.196 85.9138 101.228 85.9697C101.323 86.1135 101.435 86.2492 101.547 86.385C101.587 86.4409 101.643 86.4968 101.699 86.5606C102.026 86.9439 102.401 87.3113 102.769 87.6786L103.304 88.2376C103.511 88.4612 103.719 88.6927 103.903 88.9403C103.967 89.0281 104.022 89.108 104.07 89.1798C104.11 89.2278 104.15 89.2757 104.174 89.3316C104.206 89.3635 104.222 89.4034 104.254 89.4434C104.27 89.4673 104.286 89.4833 104.294 89.5152C104.31 89.5392 104.326 89.5472 104.326 89.5711C104.398 89.6829 104.462 89.8027 104.526 89.9305L104.47 89.9624Z" stroke="#000001" stroke-width="2.5" stroke-linecap="round" stroke-linejoin="round"/>
<path d="M50.9929 41.9944C51.5519 44.358 54.0593 45.0128 56.9021 43.7511C57.2455 43.5994 57.5968 43.4078 57.9482 43.2001C58.052 43.1363 58.1638 43.0724 58.2676 43.0005C58.5151 42.8408 58.7627 42.6651 58.9943 42.4895C61.9409 40.2376 63.7855 36.6282 63.1866 34.0888C62.8273 32.5796 61.6774 31.7571 60.1601 31.7012C60.0883 31.7012 60.0084 31.7012 59.9286 31.7012C59.8247 31.7012 59.713 31.7012 59.6012 31.7172C58.4832 31.7891 57.2056 32.2442 55.9119 33.0827C52.5501 35.2707 50.3461 39.2554 51.0009 41.9944H50.9929Z" fill="#000001" stroke="#000001" stroke-width="2.5" stroke-linecap="round" stroke-linejoin="round"/>
<path d="M66.0041 24.2111C66.06 24.4906 66.1079 24.778 66.1558 25.0655C66.1957 25.353 66.2277 25.6325 66.2596 25.912C66.2596 25.92 66.2596 25.9359 66.2596 25.9439C66.2836 26.1755 66.2835 26.415 66.3075 26.6466V26.7025C66.3394 27.5011 66.3235 28.2756 66.2516 29.0342C65.5888 35.4465 61.125 40.4853 55.2478 40.8526C48.4442 41.2918 42.3594 35.2948 41.6327 27.4771C41.4251 25.1773 41.6886 22.9893 42.3674 21.0409C42.3913 20.9451 42.4233 20.8652 42.4552 20.7694C42.6389 20.2424 42.8465 19.7393 43.094 19.2522C43.2058 19.0126 43.3336 18.7651 43.4614 18.5495C43.5412 18.3818 43.637 18.2221 43.7329 18.0783C45.5935 15.0838 48.5241 13.0156 51.9897 12.5844C52.1894 12.5524 52.397 12.5365 52.6046 12.5205C52.6126 12.5205 52.6286 12.5205 52.6366 12.5205C52.7963 12.5205 52.9719 12.5045 53.1556 12.5205C54.7926 12.4806 56.3897 12.8239 57.867 13.4787C61.8676 15.2515 65.0298 19.2602 66.0041 24.2111Z" fill="#FD874A"/>
<path d="M41.6179 27.477C41.3464 24.4665 41.8974 21.6317 43.0872 19.26C43.207 19.0205 43.3267 18.7889 43.4545 18.5653C43.5423 18.3976 43.6302 18.2379 43.726 18.0862C45.6984 14.908 48.8925 12.7759 52.6377 12.5363C52.7016 12.5363 52.7654 12.5363 52.8293 12.5363C50.4098 13.4307 48.3655 15.1555 46.9601 17.4314C46.8643 17.5831 46.7764 17.7428 46.6886 17.9105C46.5608 18.1341 46.441 18.3657 46.3213 18.6052C45.1314 20.9769 44.5804 23.8117 44.8519 26.8222C45.5786 34.584 51.5756 40.541 58.3153 40.2057C57.3491 40.573 56.3189 40.7966 55.2329 40.8684C48.4294 41.3076 42.3445 35.3026 41.6099 27.485L41.6179 27.477Z" fill="white"/>
<path d="M55.2417 40.8525C61.111 40.4771 65.5828 35.4384 66.2376 29.0341C66.3094 28.2595 66.3254 27.461 66.3015 26.6465C66.2855 26.4069 66.2695 26.1514 66.2535 25.9038C66.1976 25.3369 66.1178 24.7539 66.006 24.203C64.6325 17.2397 58.931 12.1211 52.6465 12.5204C48.8933 12.7599 45.6992 14.892 43.7348 18.0702C43.639 18.2219 43.5511 18.3816 43.4633 18.5493C43.3355 18.7729 43.2157 19.0045 43.096 19.244C41.9061 21.6157 41.3552 24.4505 41.6267 27.461C42.3533 35.2787 48.4462 41.2757 55.2497 40.8445L55.2417 40.8525Z" stroke="#000001" stroke-width="2.5" stroke-linecap="round" stroke-linejoin="round"/>
<path d="M92.8271 95.2248C92.8271 95.2248 105.731 92.3101 104.917 91.1922C104.11 90.0742 94.528 89.9784 94.528 89.9784L92.8271 95.2248Z" fill="#000001" stroke="#000001" stroke-width="2.5" stroke-linecap="round" stroke-linejoin="round"/>
<path d="M70.3018 41.7628C72.5936 41.0201 75.0371 40.8764 77.4327 40.8285" stroke="#000001" stroke-width="2.5" stroke-linecap="round" stroke-linejoin="round"/>
<path d="M89.154 71.8038C86.2234 73.2891 82.8456 73.896 79.6035 74.1275" stroke="#000001" stroke-width="2.5" stroke-linecap="round" stroke-linejoin="round"/>
<path d="M89.7284 67.1483C88.6823 67.811 87.5324 68.2822 86.3506 68.6255" stroke="#000001" stroke-width="2.5" stroke-linecap="round" stroke-linejoin="round"/>
<path d="M49.8994 47.1927C52.0395 49.245 55.2257 49.4446 57.789 48.0791" stroke="#000001" stroke-width="2.5" stroke-linecap="round" stroke-linejoin="round"/>
<path d="M94.6819 89.4833C92.5418 96.1032 89.156 106.931 87.1996 109.119C79.9329 117.24 73.5446 122.032 48.5345 104.312C37.5067 96.5025 24.4666 82.2086 22.1109 79.4457C16.6888 73.1373 16.4493 65.0561 18.1102 60.8398C18.8209 59.0111 21.9751 60.1291 24.5225 60.7919H24.5304C24.77 60.8558 25.0016 60.8398 25.2332 60.7759C26.1914 60.4884 27.0938 59.2507 28.028 58.524C28.028 58.524 27.9961 58.4761 27.9322 58.4122C27.9083 58.3963 27.8763 58.3723 27.8444 58.3404C27.8444 58.3404 27.8444 58.3404 27.8364 58.3404C27.8364 58.3404 27.8204 58.3244 27.8124 58.3164C27.8124 58.3164 27.8124 58.3084 27.7965 58.2925L27.7086 58.2046C27.7086 58.2046 27.6288 58.1168 27.5809 58.0769L27.2694 57.7654C27.2135 57.7015 27.1576 57.6456 27.0938 57.5897C26.9899 57.478 26.8702 57.3422 26.7424 57.2144C26.4869 56.9669 26.1754 56.6315 25.8321 56.2402C25.7442 56.1444 25.6644 56.0486 25.5765 55.9528C25.5047 55.8649 25.4328 55.7771 25.3529 55.6892C25.2731 55.5934 25.1932 55.4976 25.1214 55.3938C24.9776 55.2261 24.8419 55.0504 24.7061 54.8667C24.6103 54.739 24.5225 54.6112 24.4426 54.4914C24.3308 54.3317 24.219 54.164 24.1152 54.0043C24.0194 53.8526 23.9315 53.7089 23.8597 53.5651C23.7958 53.4613 23.7479 53.3575 23.692 53.2537C23.5802 53.0461 23.4924 52.8464 23.4285 52.6468C23.3885 52.567 23.3646 52.4791 23.3406 52.3913C23.2129 52.008 23.157 51.6407 23.1969 51.2973C23.2208 51.0897 23.2847 50.89 23.3885 50.7143C23.5243 50.4508 23.7479 50.2272 24.0673 50.0436C24.4905 49.796 24.9696 49.7002 25.4887 49.7401C25.5446 49.7401 25.6005 49.7561 25.6644 49.7641C25.7522 49.7641 25.848 49.788 25.9359 49.812C26.0557 49.836 26.1754 49.8679 26.2952 49.8998C26.415 49.9318 26.5348 49.9717 26.6625 50.0196C26.8063 50.0755 26.95 50.1394 27.1017 50.2033C27.1257 50.2033 27.1497 50.2272 27.1736 50.2432C27.3253 50.3071 27.477 50.3869 27.6288 50.4668C27.8044 50.5626 27.9801 50.6664 28.1558 50.7782C28.8745 51.2174 29.5932 51.7684 30.2639 52.3354C30.4237 52.4711 30.5754 52.6149 30.7351 52.7506C30.9267 52.9183 31.1104 53.094 31.2941 53.2697C31.5656 53.5252 31.8291 53.7807 32.0686 54.0283L32.2683 54.2279C32.3401 54.2918 32.404 54.3637 32.4599 54.4275C32.5877 54.5473 32.6995 54.6671 32.8033 54.7789C33.482 55.5056 33.9292 56.0406 34.0011 56.1284H34.0091C34.0091 56.1284 35.5902 55.7292 37.6265 57.997C39.2155 59.7777 39.3912 60.8079 39.3593 61.2391C39.6547 61.271 40.2377 61.4227 41.3556 61.7901C44.5258 62.8282 45.516 67.827 45.516 67.827L64.8326 84.9476C64.8326 84.9476 76.3715 88.4452 79.9808 89.0601C79.9968 89.0601 80.0128 89.0601 80.0287 89.0601C83.3507 89.6191 87.016 89.9784 91.1045 89.659C91.1683 89.659 91.2322 89.659 91.2961 89.643C92.5019 89.5392 93.6358 89.4833 94.6819 89.4833Z" fill="#FD874A"/>
<path d="M32.0137 59.3145C30.8638 60.2089 29.5143 60.9914 28.5241 61.5744C26.3201 62.868 25.7532 61.6622 25.2341 60.7758C25.1543 60.656 25.0824 60.5363 25.0105 60.4324C24.9946 60.4165 24.9866 60.4005 24.9786 60.3845C25.4737 59.9613 26.0407 59.5541 26.6635 59.1708C26.7114 59.1308 26.7593 59.0989 26.8152 59.067C26.8232 59.067 26.8392 59.051 26.8472 59.043C27.1985 58.8274 27.5659 58.6198 27.9332 58.4121C27.9092 58.3962 27.8773 58.3722 27.8454 58.3403H27.8374C27.8374 58.3403 27.8214 58.3163 27.8134 58.3083C27.8134 58.3083 27.8134 58.3004 27.7974 58.2844L27.7096 58.1965C27.7096 58.1965 27.6297 58.1087 27.5818 58.0688L27.2704 57.7573C27.2145 57.6935 27.1586 57.6376 27.0947 57.5817C26.9909 57.4699 26.8711 57.3341 26.7434 57.2064C26.4878 56.9588 26.1764 56.6234 25.833 56.2321C25.7452 56.1363 25.6654 56.0405 25.5775 55.9447C25.5056 55.8568 25.4338 55.769 25.3539 55.6812C25.2741 55.5853 25.1942 55.4895 25.1223 55.3857C25.0904 55.3458 25.0585 55.3138 25.0265 55.2739C24.9866 55.234 24.9546 55.194 24.9227 55.1541C24.9227 55.1541 24.9201 55.1488 24.9147 55.1381C24.8429 55.0423 24.779 54.9465 24.7071 54.8587C24.6113 54.7309 24.5234 54.6031 24.4436 54.4833C24.3238 54.3236 24.22 54.1559 24.1162 53.9962C24.0204 53.8445 23.9325 53.7008 23.8607 53.557C23.7968 53.4532 23.7489 53.3494 23.693 53.2456C23.5812 53.038 23.4933 52.8384 23.4294 52.6387C23.3895 52.5589 23.3656 52.471 23.3416 52.3832C23.2857 52.2315 23.2538 52.0877 23.2218 51.936C23.2059 51.8641 23.1979 51.7923 23.1899 51.7204C23.1739 51.5687 23.1819 51.425 23.1899 51.2892C23.2138 51.0816 23.2777 50.8819 23.3815 50.7063C23.5173 50.4428 23.7409 50.2192 24.0603 50.0355C24.4835 49.7879 24.9626 49.6921 25.4817 49.7321C25.5376 49.7321 25.5935 49.748 25.6574 49.756C25.7452 49.756 25.841 49.78 25.9289 49.8039C26.0486 49.8279 26.1684 49.8598 26.2882 49.8918C26.408 49.9237 26.5278 49.9636 26.6555 50.0115C26.7993 50.0674 26.943 50.1313 27.0947 50.1952C27.1187 50.1952 27.1426 50.2192 27.1666 50.2351C27.3183 50.299 27.47 50.3789 27.6218 50.4587C27.7974 50.5545 27.9731 50.6584 28.1488 50.7702C28.1169 50.7861 28.0769 50.7941 28.045 50.8181C27.7336 51.0017 27.51 51.2253 27.3662 51.4888C27.2704 51.6645 27.2065 51.8641 27.1826 52.0798C27.0308 53.5171 28.4922 55.5135 29.8177 57.0147C29.9216 57.1425 30.0254 57.2543 30.1212 57.3661C30.3448 57.6136 30.5524 57.8212 30.7201 57.9969C30.8558 58.1247 30.9756 58.2524 31.0794 58.3642C31.1353 58.4201 31.1992 58.484 31.2551 58.5399L31.5665 58.8513C31.6145 58.8913 31.6544 58.9392 31.6943 58.9791L31.7821 59.067L31.7981 59.0909C31.9339 59.2107 32.0057 59.2985 32.0057 59.3145H32.0137Z" fill="white"/>
<path d="M83.9759 89.8346C83.9759 89.8346 84.0078 89.8426 84.0238 89.8426C87.1461 90.3696 90.5718 90.713 94.3648 90.4814C94.4766 90.1381 94.5804 89.8027 94.6842 89.4833C93.6302 89.4833 92.5042 89.5312 91.2984 89.635C91.2346 89.643 91.1707 89.643 91.1068 89.651C87.5853 89.9305 84.3751 89.6989 81.4365 89.2677C82.4587 89.5232 83.345 89.7228 83.9839 89.8266L83.9759 89.8346Z" fill="white"/>
<path d="M52.5295 105.095C41.5017 97.2849 28.4616 82.9911 26.1059 80.2361C20.6838 73.9277 20.4522 65.8465 22.1052 61.6222C22.3927 60.8876 23.0714 60.632 23.9418 60.632C21.5223 59.9772 18.7673 59.1547 18.1125 60.8397C16.4596 65.0559 16.6911 73.1371 22.1132 79.4536C24.4769 82.2085 37.509 96.5023 48.5368 104.312C60.0038 112.441 67.5499 115.827 73.0678 116.33C67.9971 114.869 61.4491 111.419 52.5215 105.095H52.5295Z" fill="white"/>
<path d="M94.6819 89.4833C92.5418 96.1032 89.156 106.931 87.1996 109.119C79.9329 117.24 73.5446 122.032 48.5345 104.312C37.5067 96.5025 24.4666 82.2086 22.1109 79.4457C16.6888 73.1373 16.4493 65.0561 18.1102 60.8398C18.8209 59.0111 21.9751 60.1291 24.5225 60.7919H24.5304C24.5304 60.7919 24.5544 60.7679 24.5624 60.7679C24.6902 60.6322 24.8259 60.5124 24.9776 60.3846C25.4727 59.9614 26.0397 59.5542 26.6625 59.1709C26.7104 59.1309 26.7584 59.099 26.8143 59.067C26.8222 59.067 26.8382 59.0511 26.8462 59.0431C27.1976 58.8275 27.5649 58.6199 27.9322 58.4122C27.9083 58.3963 27.8763 58.3723 27.8444 58.3404H27.8364C27.8364 58.3404 27.8124 58.3404 27.7885 58.3404C27.7965 58.3244 27.8044 58.3244 27.8124 58.3164C27.8124 58.3164 27.8124 58.3084 27.7965 58.2925L27.7086 58.2046C27.6767 58.1567 27.6288 58.1168 27.5809 58.0769C27.5409 58.021 27.493 57.9731 27.4371 57.9251C27.3892 57.8692 27.3253 57.8133 27.2694 57.7654C27.2135 57.7015 27.1576 57.6456 27.0938 57.5897C26.9899 57.478 26.8702 57.3422 26.7424 57.2144C26.4869 56.9669 26.1754 56.6315 25.8321 56.2402C25.7442 56.1444 25.6644 56.0486 25.5765 55.9528C25.5047 55.8649 25.4328 55.7771 25.3529 55.6892C25.2332 55.5615 25.1214 55.4257 25.0255 55.282C24.9856 55.2421 24.9537 55.2021 24.9217 55.1622C24.9217 55.1622 24.9191 55.1569 24.9137 55.1462C24.0913 54.1001 23.3726 52.9423 23.2208 51.9441C23.2049 51.8722 23.1969 51.8004 23.1889 51.7285C23.1729 51.5768 23.1809 51.433 23.1889 51.2973C23.2049 51.0897 23.2688 50.89 23.3806 50.7143C23.5163 50.4508 23.7399 50.2272 24.0593 50.0436C24.4825 49.796 24.9617 49.7002 25.4807 49.7401C25.5366 49.7401 25.5925 49.7561 25.6564 49.7641C25.7442 49.7641 25.84 49.788 25.9279 49.812C26.0477 49.836 26.1675 49.8679 26.2872 49.8998C26.407 49.9318 26.5268 49.9717 26.6546 50.0196C26.7983 50.0755 26.942 50.1394 27.0938 50.2033C27.1177 50.2033 27.1417 50.2272 27.1656 50.2432C27.3173 50.3071 27.4691 50.3869 27.6208 50.4668C27.7965 50.5626 27.9721 50.6664 28.1478 50.7782C28.8665 51.2174 29.5852 51.7684 30.256 52.3354C30.4157 52.4711 30.5674 52.6149 30.7271 52.7506C30.9187 52.9183 31.1024 53.094 31.2861 53.2697C31.5576 53.5252 31.8211 53.7807 32.0607 54.0283L32.2603 54.2279C32.3322 54.2918 32.396 54.3637 32.4519 54.4275C32.5717 54.5473 32.6835 54.6671 32.7953 54.7789C33.4741 55.5056 33.9212 56.0406 33.9931 56.1284H34.0011C34.0011 56.1284 35.5822 55.7292 37.6185 57.997C39.2075 59.7777 39.3832 60.8079 39.3513 61.2391C39.6468 61.271 40.2297 61.4227 41.3476 61.7901C44.5178 62.8282 45.508 67.827 45.508 67.827L64.8246 84.9476C64.8246 84.9476 76.3635 88.4452 79.9729 89.0601C79.9888 89.0601 80.0048 89.0601 80.0208 89.0601C83.3427 89.6191 87.008 89.9784 91.0965 89.659C91.1604 89.659 91.2242 89.659 91.2881 89.643C92.4939 89.5392 93.6278 89.4833 94.6739 89.4833H94.6819Z" stroke="#000001" stroke-width="2.5" stroke-linecap="round" stroke-linejoin="round"/>
<path d="M34.0089 56.1203H34.0009C32.8829 56.3359 31.5094 56.7751 30.128 57.366C29.3853 57.6775 28.6427 58.0288 27.932 58.4121C27.5647 58.6197 27.1973 58.8274 26.846 59.043C26.838 59.043 26.822 59.0589 26.814 59.0669C26.7581 59.0989 26.7102 59.1308 26.6623 59.1707C26.0394 59.554 25.4725 59.9613 24.9774 60.3845C24.8257 60.5123 24.6899 60.6321 24.5622 60.7678C24.5542 60.7678 24.5382 60.7838 24.5302 60.7918H24.5222C23.029 62.2371 22.5019 63.7623 24.0591 65.008C26.1912 66.7089 33.3301 62.1413 37.2429 61.6302" stroke="#000001" stroke-width="2.5" stroke-linecap="round" stroke-linejoin="round"/>
<path d="M27.668 66.6691C27.668 66.6691 29.0494 65.0481 31.9801 63.5388C33.8167 62.5886 34.8388 61.9657 39.3665 61.239" stroke="#000001" stroke-width="2.5" stroke-linecap="round" stroke-linejoin="round"/>
<path d="M28.874 65.5831L27.0294 67.252C25.1049 68.9849 25.9993 74.4389 35.2144 71.2607L39.4306 70.2386" stroke="#000001" stroke-width="2.5" stroke-linecap="round" stroke-linejoin="round"/>
<path d="M27.668 71.6439C34.9586 69.1285 32.2196 63.2114 32.4033 63.3152" stroke="#000001" stroke-width="2.5" stroke-linecap="round" stroke-linejoin="round"/>
<path d="M26.4802 65.2717C26.4802 65.7188 23.8051 67.8909 19.9082 66.6691" stroke="#000001" stroke-width="2.5" stroke-linecap="round" stroke-linejoin="round"/>
<path d="M104.917 91.1921C104.774 91.1282 103.496 90.5533 101.156 90.0901C100.11 89.8745 98.8566 89.6829 97.3793 89.5791C96.5488 89.5152 95.6465 89.4832 94.6802 89.4832C93.6262 89.4832 92.5002 89.5312 91.2944 89.635C91.2306 89.643 91.1667 89.6429 91.1028 89.6509C87.0143 89.9703 83.349 89.611 80.0271 89.052C80.0111 89.052 79.9951 89.044 79.9792 89.044C76.3698 88.4292 66.436 85.4985 65.1184 84.6681C65.0785 84.6441 65.0385 84.6201 65.0066 84.5962C64.4955 84.2848 64.1602 84.0612 64.1602 84.0612C64.1602 84.0612 67.0668 76.9302 67.4581 72.8018C67.5619 71.7637 67.498 70.9252 67.2026 70.4222" stroke="#000001" stroke-width="2.5" stroke-linecap="round" stroke-linejoin="round"/>
<path d="M100.486 72.1071L100.446 74.926V75.0378L100.334 83.5502C100.35 86.4808 103.233 87.5269 104.47 89.9624C104.622 90.2579 104.75 90.5933 104.854 90.9446L104.918 91.1842V91.2002" stroke="#000001" stroke-width="2.5" stroke-linecap="round" stroke-linejoin="round"/>
<path d="M32.9867 95.2248H19.8348C19.164 95.2248 18.5412 94.8175 18.1818 94.1787C18.1259 94.0749 18.078 93.9631 18.0301 93.8513L17.9023 93.4919L13.5982 81.5857L13.5423 81.426L9.50173 70.2625L9.34203 69.7993L8.52752 67.5475L6.66692 62.3969C6.13989 60.9436 7.08216 59.3305 8.46363 59.3305H22.0308C23.4282 59.3305 24.6819 60.2808 25.2169 61.7581L35.6618 90.6651C36.4444 92.8371 35.0469 95.2168 32.9867 95.2168V95.2248Z" fill="#000001" stroke="#000001" stroke-width="2.5" stroke-linecap="round" stroke-linejoin="round"/>
<path d="M24.3537 87.2873C24.5054 87.3991 24.6571 87.5189 24.8009 87.6546C24.8967 87.7425 24.9845 87.8303 25.0644 87.9261C25.1442 88.0219 25.2241 88.1178 25.3039 88.2296C25.3758 88.3254 25.4397 88.4292 25.5036 88.541C25.5754 88.6608 25.6553 88.7885 25.7112 88.9243C26.2223 90.1061 26.3181 91.248 25.5515 92.1504C25.4876 92.2302 25.4157 92.3021 25.3439 92.374C24.0822 93.5957 22.0379 94.4182 19.9218 94.8494C19.8499 94.8654 19.786 94.8734 19.7142 94.8894C19.4427 94.9453 19.1712 94.9852 18.8997 95.0251C18.6521 95.0571 18.4126 95.089 18.173 95.113H18.157C18.0133 95.1289 17.8775 95.1449 17.7418 95.1529C17.6619 95.1529 17.5821 95.1529 17.5022 95.1688C17.4304 95.1688 17.3585 95.1848 17.2946 95.1848H17.2467C17.1349 95.1928 17.0231 95.1928 16.9113 95.1928H16.8474C16.6079 95.1928 16.3603 95.1928 16.1288 95.1928H16.0489C16.001 95.1928 15.9531 95.1928 15.9052 95.1848C15.8014 95.1848 15.7055 95.1848 15.6097 95.1848C15.5059 95.1848 15.4021 95.1688 15.2983 95.1529C15.1226 95.1449 14.9469 95.1209 14.7792 95.097C14.5636 95.065 14.356 95.0251 14.1643 94.9852C13.7731 94.8973 13.4137 94.7855 13.1023 94.6498C13.0224 94.6179 12.9506 94.5859 12.8787 94.546C12.735 94.4741 12.6072 94.3943 12.4874 94.3064C12.3756 94.2186 12.2718 94.1228 12.184 94.0269C10.4671 92.0705 10.3793 89.3156 10.3793 89.3156C10.3793 89.3156 8.89401 89.2916 7.37679 86.6085C6.17898 84.5004 6.171 83.4783 6.25884 83.063C6.01129 82.9672 5.50023 82.6717 4.534 82.0329C3.7115 81.4899 3.12058 80.6674 2.70534 79.7731C2.68937 79.7491 2.68139 79.7251 2.6734 79.7012C2.56959 79.4776 2.48176 79.254 2.4019 79.0304L2.37795 78.9585C1.65128 76.6508 2.24219 74.1194 3.83128 72.2908C4.0948 71.9714 4.39824 71.6759 4.73363 71.4124L7.27297 69.3362C7.27297 69.3362 7.3129 69.3362 7.3129 69.3122L8.75825 68.2262L9.52485 70.3184L10.3873 74.5985C10.3873 74.5985 16.536 75.1575 17.9334 76.0359C17.9814 76.0599 18.0213 76.0918 18.0612 76.1237C18.0852 76.1397 18.1011 76.1557 18.1331 76.1637C18.4924 76.3873 18.7959 76.6029 19.0354 76.8185C19.0354 76.8265 19.0514 76.8265 19.0514 76.8344C19.0514 76.8344 19.0913 76.8664 19.1073 76.8744C19.2271 76.9941 19.3309 77.1059 19.4187 77.2177C21.0477 79.1502 18.3966 80.7073 18.0213 80.915C18.0053 80.915 17.9973 80.9309 17.9893 80.9309C17.9814 80.9469 17.9734 80.9469 17.9734 80.9469C17.9734 80.9469 18.4764 80.875 19.1792 80.915C19.9937 80.9549 21.0477 81.1545 21.8622 81.8013L21.8782 81.8253C22.1657 82.0569 22.4292 82.3523 22.6288 82.7117C23.6031 84.4445 22.8924 85.6583 22.525 86.1055C22.4452 86.2093 22.3813 86.2731 22.3653 86.3131C22.3733 86.3131 22.3813 86.329 22.3973 86.337" fill="#FD874A"/>
<path d="M18.157 95.113C18.0133 95.1289 17.8775 95.1449 17.7418 95.1529C17.5981 95.1529 17.4623 95.1768 17.3266 95.1768C17.1908 95.1768 17.0471 95.1928 16.9113 95.1928H16.8474C16.6079 95.1928 16.3603 95.1928 16.1288 95.1928H16.0489C16.001 95.1928 15.9531 95.1928 15.9052 95.1848C15.8014 95.1848 15.7055 95.1848 15.6097 95.1848C15.5059 95.1848 15.4021 95.1688 15.2983 95.1529C15.1226 95.1449 14.9469 95.1209 14.7792 95.097C14.5636 95.065 14.356 95.0251 14.1643 94.9852C13.7731 94.8973 13.4137 94.7855 13.1023 94.6498C13.0224 94.6179 12.9506 94.5859 12.8787 94.546C12.735 94.4741 12.6072 94.3943 12.4874 94.3064C12.3756 94.2186 12.2718 94.1228 12.184 94.0269C10.4671 92.0705 10.3793 89.3156 10.3793 89.3156C10.3793 89.3156 8.894 89.2916 7.37678 86.6085C6.17898 84.5004 6.171 83.4783 6.25884 83.063C6.01129 82.9672 5.50022 82.6717 4.534 82.0329C3.7115 81.4899 3.12058 80.6674 2.70534 79.7731C2.68937 79.7491 2.68139 79.7251 2.6734 79.7012C2.56959 79.4776 2.48176 79.254 2.4019 79.0304L2.37795 78.9585C1.65128 76.6508 2.24219 74.1194 3.83128 72.2908C4.0948 71.9714 4.39824 71.6759 4.73363 71.4124L7.27297 69.3362C7.27297 69.3362 7.3129 69.3362 7.3129 69.3122L8.75825 68.2262L9.52485 70.3184L6.99349 72.2828C6.21891 72.8098 5.62798 73.5764 5.38842 74.4867C5.00513 75.9081 5.04506 77.4813 5.54814 78.9506C5.55613 78.9745 5.55612 78.9985 5.5641 79.0224C5.64396 79.246 5.7318 79.4696 5.83561 79.6932C5.85159 79.7172 5.85957 79.7411 5.86755 79.7651C6.29078 80.6594 6.88169 81.4819 7.69619 82.0249C8.67041 82.6638 9.1735 82.9592 9.42903 83.055C9.34119 83.4703 9.34918 84.4924 10.539 86.6005C12.0562 89.2836 13.5415 89.3076 13.5415 89.3076C13.5415 89.3076 13.6293 92.0625 15.3462 94.019C15.8572 94.5939 16.8794 94.9612 18.157 95.113Z" fill="white"/>
<path d="M25.5515 92.1504C25.4876 92.2303 25.4157 92.3022 25.3439 92.374C24.0822 93.5958 22.0379 94.4183 19.9218 94.8495C19.8499 94.8655 19.786 94.8734 19.7142 94.8894C19.4427 94.9453 19.1712 94.9852 18.8997 95.0252C18.6521 95.0571 18.4126 95.089 18.173 95.113H18.157C18.0133 95.129 17.8775 95.1449 17.7418 95.1529C17.6619 95.1529 17.5821 95.1529 17.5022 95.1689C17.4384 95.1689 17.3825 95.1689 17.3266 95.1689C17.3266 95.1689 17.3026 95.1689 17.2946 95.1689H17.2467C17.1349 95.1769 17.0231 95.1769 16.9113 95.1769H16.8474C16.6079 95.1769 16.3603 95.1769 16.1288 95.1769H16.0489C16.001 95.1769 15.9531 95.1769 15.9052 95.1689C15.8573 95.1689 15.8093 95.1689 15.7614 95.1689C15.6017 95.1689 15.45 95.1529 15.2983 95.137C15.1226 95.129 14.9469 95.105 14.7792 95.0811C14.5636 95.0491 14.356 95.0092 14.1643 94.9693C13.7731 94.8814 13.4137 94.7696 13.1023 94.6339C13.0224 94.6019 12.9506 94.57 12.8787 94.5301C12.735 94.4582 12.6072 94.3783 12.4874 94.2905C12.3756 94.2027 12.2718 94.1068 12.184 94.011C10.4671 92.0546 10.3793 89.2996 10.3793 89.2996C10.3793 89.2996 8.89401 89.2757 7.37679 86.5926C6.17898 84.4845 6.171 83.4624 6.25884 83.0471C6.01129 82.9513 5.50023 82.6558 4.534 82.017C3.7115 81.474 3.12058 80.6515 2.70534 79.7571C2.68937 79.7332 2.68139 79.7092 2.6734 79.6853C2.56959 79.4617 2.48176 79.2381 2.4019 79.0145L2.37795 78.9426C1.65128 76.6349 2.24219 74.1035 3.83128 72.2748C4.0948 71.9554 4.39824 71.66 4.73363 71.3965L7.27297 69.3203C7.27297 69.3203 7.3129 69.3203 7.3129 69.2963L8.75825 68.2103L9.52485 70.3025L10.3873 74.5826C10.3873 74.5826 16.536 75.1416 17.9334 76.02C17.9814 76.0439 18.0213 76.0759 18.0612 76.1078C18.0852 76.1238 18.1011 76.1398 18.1331 76.1478C18.4924 76.3713 18.7959 76.5869 19.0354 76.8026C19.0354 76.8105 19.0514 76.8105 19.0514 76.8185C19.0514 76.8185 19.0913 76.8505 19.1073 76.8585C19.2271 76.9782 19.3309 77.09 19.4187 77.2018C21.0477 79.1343 18.3966 80.6914 18.0213 80.899C18.0053 80.899 17.9973 80.915 17.9893 80.915C17.9814 80.931 17.9734 80.931 17.9734 80.931C17.9734 80.931 18.4764 80.8591 19.1792 80.899C19.9937 80.939 21.0477 81.1386 21.8622 81.7854L21.8782 81.8094C22.1657 82.041 22.4292 82.3364 22.6288 82.6958C23.6031 84.4286 22.8924 85.6424 22.525 86.0895C22.4452 86.1933 22.3813 86.2572 22.3653 86.2972H22.3573H22.3414C22.3414 86.2972 22.3653 86.2972 22.3973 86.3131C22.6209 86.369 23.5072 86.6325 24.3537 87.2634C24.5054 87.3752 24.6571 87.495 24.8009 87.6307C24.8967 87.7185 24.9845 87.8064 25.0644 87.9022C25.1442 87.998 25.2241 88.0939 25.3039 88.2057C25.3758 88.3015 25.4397 88.4053 25.5036 88.5171C25.5754 88.6369 25.6553 88.7646 25.7112 88.9004C26.2223 90.0822 26.3181 91.2241 25.5515 92.1265V92.1504Z" stroke="#000001" stroke-width="2.5" stroke-linecap="round" stroke-linejoin="round"/>
<path d="M22.3508 86.3211C22.3508 86.3211 19.3562 90.0103 10.3887 89.3076" stroke="#000001" stroke-width="2.5" stroke-linecap="round" stroke-linejoin="round"/>
<path d="M17.9711 80.9469C15.5276 82.4561 12.4692 82.9832 9.5625 83.0151" stroke="#000001" stroke-width="2.5" stroke-linecap="round" stroke-linejoin="round"/>
<path d="M15.7698 81.977C16.9276 81.2983 18.7802 80.7233 19.2753 79.27C20.002 77.114 15.9135 73.9917 8 74.7822" stroke="#000001" stroke-width="2.5" stroke-linecap="round" stroke-linejoin="round"/>
<path d="M18.06 76.1237C11.0728 76.6587 12.9254 82.9033 12.7816 82.7595" stroke="#000001" stroke-width="2.5" stroke-linecap="round" stroke-linejoin="round"/>
<path d="M66.0063 24.2109C66.0622 24.4904 66.1101 24.7779 66.158 25.0653C66.1979 25.3528 66.2299 25.6323 66.2618 25.9118C66.2618 25.9198 66.2618 25.9357 66.2618 25.9437C66.2858 26.1753 66.2858 26.4149 66.3097 26.6464V26.7023C65.7507 26.878 65.2237 27.1575 64.7605 27.5408C64.4331 27.8043 64.3373 27.8762 63.7704 28.2675C63.2673 28.6108 62.6923 28.8424 62.0934 28.9063C59.0191 29.2337 56.7033 27.1814 56.2561 24.6581C56.0485 23.4762 55.1142 22.526 53.9563 22.2305C52.9182 21.983 51.984 22.0389 51.9121 22.0628C49.4446 22.7176 46.2105 22.6458 43.4636 21.3202C43.0962 21.2643 42.7289 21.1685 42.3696 21.0407C40.5809 20.3619 39.1435 18.701 38.9518 16.2894C38.872 15.2433 39.1515 14.1813 39.7504 13.3188C41.5471 10.7635 44.4937 10.3323 46.6897 11.4982C48.2787 12.3287 50.0355 12.8557 51.8083 12.6002L51.9919 12.5842C52.1916 12.5523 52.3992 12.5363 52.6068 12.5203C52.6068 12.5203 52.6228 12.5203 52.6388 12.5203C52.7985 12.5203 52.9741 12.5043 53.1578 12.5203C54.4195 12.5523 56.0964 12.9435 57.8133 13.4626L57.8692 13.4786C61.8698 15.2513 65.032 19.26 66.0063 24.2109Z" fill="#000001" stroke="#000001" stroke-width="2.5" stroke-linecap="round" stroke-linejoin="round"/>
</svg>
