<svg width="260" height="201" viewBox="0 0 260 201" fill="none" xmlns="http://www.w3.org/2000/svg">
<path opacity="0.2" d="M23.3974 47.4041C23.3974 48.4466 24.402 49.2909 25.6423 49.2909H32.3771C33.6174 49.2909 34.622 48.4466 34.622 47.4041C34.622 46.3617 33.6174 45.5174 32.3771 45.5174H25.6423C24.402 45.5174 23.3974 46.3617 23.3974 47.4041ZM16.6627 19.1029H23.3974C24.6377 19.1029 25.6423 18.2586 25.6423 17.2162C25.6423 16.1737 24.6377 15.3294 23.3974 15.3294H16.6627C15.4223 15.3294 14.4177 16.1737 14.4177 17.2162C14.4177 18.2586 15.4223 19.1029 16.6627 19.1029ZM45.8466 4.00893H75.0305C76.2708 4.00893 77.2754 3.16461 77.2754 2.12218C77.2754 1.07975 76.2708 0.23543 75.0305 0.23543H45.8466C44.6063 0.23543 43.6017 1.07975 43.6017 2.12218C43.6017 3.16461 44.6063 4.00893 45.8466 4.00893ZM14.4177 87.0258H21.1525C22.3928 87.0258 23.3974 86.1815 23.3974 85.1391C23.3974 84.0967 22.3928 83.2523 21.1525 83.2523H14.4177C13.1774 83.2523 12.1728 84.0967 12.1728 85.1391C12.1728 86.1815 13.1774 87.0258 14.4177 87.0258ZM18.9076 145.515C18.9076 144.473 17.903 143.628 16.6627 143.628H3.19316C1.95284 143.628 0.948242 144.473 0.948242 145.515C0.948242 146.557 1.95284 147.402 3.19316 147.402H16.6627C17.903 147.402 18.9076 146.557 18.9076 145.515ZM16.6627 132.308H21.1525C22.3928 132.308 23.3974 131.463 23.3974 130.421C23.3974 129.379 22.3928 128.534 21.1525 128.534H16.6627C15.4223 128.534 14.4177 129.379 14.4177 130.421C14.4177 131.463 15.4223 132.308 16.6627 132.308ZM236.664 98.3463C235.424 98.3463 234.42 99.1906 234.42 100.233C234.42 101.275 235.424 102.12 236.664 102.12H245.644C246.884 102.12 247.889 101.275 247.889 100.233C247.889 99.1906 246.884 98.3463 245.644 98.3463H236.664ZM12.1728 109.667H30.1322C31.3725 109.667 32.3771 108.822 32.3771 107.78C32.3771 106.738 31.3725 105.893 30.1322 105.893H12.1728C10.9325 105.893 9.92791 106.738 9.92791 107.78C9.92791 108.822 10.9325 109.667 12.1728 109.667ZM182.786 4.00893H196.256C197.496 4.00893 198.501 3.16461 198.501 2.12218C198.501 1.07975 197.496 0.23543 196.256 0.23543H182.786C181.546 0.23543 180.542 1.07975 180.542 2.12218C180.542 3.16461 181.546 4.00893 182.786 4.00893ZM52.5813 188.91H30.1322C28.8918 188.91 27.8872 189.755 27.8872 190.797C27.8872 191.839 28.8918 192.684 30.1322 192.684H52.5813C53.8216 192.684 54.8262 191.839 54.8262 190.797C54.8262 189.755 53.8216 188.91 52.5813 188.91ZM243.399 62.4981C243.399 61.4557 242.395 60.6114 241.154 60.6114H227.685C226.445 60.6114 225.44 61.4557 225.44 62.4981C225.44 63.5405 226.445 64.3849 227.685 64.3849H241.154C242.395 64.3849 243.399 63.5405 243.399 62.4981ZM207.481 11.5559H229.93C231.17 11.5559 232.175 10.7116 232.175 9.66917C232.175 8.62674 231.17 7.78242 229.93 7.78242H207.481C206.24 7.78242 205.236 8.62674 205.236 9.66917C205.236 10.7116 206.24 11.5559 207.481 11.5559ZM220.95 26.6499H225.44C226.68 26.6499 227.685 25.8056 227.685 24.7632C227.685 23.7207 226.68 22.8764 225.44 22.8764H220.95C219.71 22.8764 218.705 23.7207 218.705 24.7632C218.705 25.8056 219.71 26.6499 220.95 26.6499ZM220.95 17.2162C220.95 16.1737 219.945 15.3294 218.705 15.3294H211.97C210.73 15.3294 209.725 16.1737 209.725 17.2162C209.725 18.2586 210.73 19.1029 211.97 19.1029H218.705C219.945 19.1029 220.95 18.2586 220.95 17.2162ZM225.44 75.7053C224.2 75.7053 223.195 76.5497 223.195 77.5921C223.195 78.6345 224.2 79.4788 225.44 79.4788H229.93C231.17 79.4788 232.175 78.6345 232.175 77.5921C232.175 76.5497 231.17 75.7053 229.93 75.7053H225.44ZM236.664 153.062C236.664 152.02 235.66 151.175 234.42 151.175H227.685C226.445 151.175 225.44 152.02 225.44 153.062C225.44 154.104 226.445 154.949 227.685 154.949H234.42C235.66 154.949 236.664 154.104 236.664 153.062ZM207.481 53.0644C206.24 53.0644 205.236 53.9087 205.236 54.9511C205.236 55.9935 206.24 56.8379 207.481 56.8379H211.97C213.211 56.8379 214.215 55.9935 214.215 54.9511C214.215 53.9087 213.211 53.0644 211.97 53.0644H207.481ZM39.1118 173.816H34.622C33.3817 173.816 32.3771 174.661 32.3771 175.703C32.3771 176.745 33.3817 177.59 34.622 177.59H39.1118C40.3521 177.59 41.3567 176.745 41.3567 175.703C41.3567 174.661 40.3521 173.816 39.1118 173.816ZM50.3364 64.3849C51.5767 64.3849 52.5813 63.5405 52.5813 62.4981C52.5813 61.4557 51.5767 60.6114 50.3364 60.6114H43.6017C42.3613 60.6114 41.3567 61.4557 41.3567 62.4981C41.3567 63.5405 42.3613 64.3849 43.6017 64.3849H50.3364ZM243.399 181.363H236.664C235.424 181.363 234.42 182.208 234.42 183.25C234.42 184.292 235.424 185.137 236.664 185.137H243.399C244.64 185.137 245.644 184.292 245.644 183.25C245.644 182.208 244.64 181.363 243.399 181.363ZM256.869 98.3463H252.379C251.139 98.3463 250.134 99.1906 250.134 100.233C250.134 101.275 251.139 102.12 252.379 102.12H256.869C258.109 102.12 259.114 101.275 259.114 100.233C259.114 99.1906 258.109 98.3463 256.869 98.3463ZM250.134 120.987H232.175C230.934 120.987 229.93 121.832 229.93 122.874C229.93 123.916 230.934 124.761 232.175 124.761H250.134C251.374 124.761 252.379 123.916 252.379 122.874C252.379 121.832 251.374 120.987 250.134 120.987ZM48.0915 26.6499C49.3318 26.6499 50.3364 25.8056 50.3364 24.7632C50.3364 23.7207 49.3318 22.8764 48.0915 22.8764H39.1118C37.8715 22.8764 36.8669 23.7207 36.8669 24.7632C36.8669 25.8056 37.8715 26.6499 39.1118 26.6499H48.0915ZM30.1322 79.4788H34.622C35.8623 79.4788 36.8669 78.6345 36.8669 77.5921C36.8669 76.5497 35.8623 75.7053 34.622 75.7053H30.1322C28.8918 75.7053 27.8872 76.5497 27.8872 77.5921C27.8872 78.6345 28.8918 79.4788 30.1322 79.4788ZM214.215 196.457H185.031C183.791 196.457 182.786 197.302 182.786 198.344C182.786 199.386 183.791 200.231 185.031 200.231H214.215C215.456 200.231 216.46 199.386 216.46 198.344C216.46 197.302 215.456 196.457 214.215 196.457ZM39.1118 183.25C39.1118 184.292 40.1164 185.137 41.3567 185.137H48.0915C49.3318 185.137 50.3364 184.292 50.3364 183.25C50.3364 182.208 49.3318 181.363 48.0915 181.363H41.3567C40.1164 181.363 39.1118 182.208 39.1118 183.25ZM77.2754 196.457H63.8059C62.5656 196.457 61.561 197.302 61.561 198.344C61.561 199.386 62.5656 200.231 63.8059 200.231H77.2754C78.5157 200.231 79.5203 199.386 79.5203 198.344C79.5203 197.302 78.5157 196.457 77.2754 196.457ZM227.657 160.293C227.477 159.364 226.439 158.722 225.322 158.722H197.592C196.475 158.722 195.437 158.081 195.257 157.152C195.027 155.968 196.11 154.949 197.474 154.949H218.593C219.71 154.949 220.748 154.307 220.928 153.378C221.158 152.194 220.075 151.175 218.711 151.175H202.777C201.661 151.175 200.622 150.534 200.443 149.605C200.213 148.421 201.296 147.402 202.66 147.402H241.042C242.159 147.402 243.197 146.76 243.377 145.831C243.607 144.647 242.524 143.628 241.16 143.628H185.155C184.038 143.628 183 142.987 182.82 142.058C182.59 140.874 183.673 139.855 185.037 139.855H229.817C230.934 139.855 231.973 139.213 232.152 138.284C232.382 137.1 231.299 136.081 229.935 136.081H204.506C203.389 136.081 202.351 135.44 202.171 134.511C201.941 133.327 203.024 132.308 204.388 132.308H234.302C235.419 132.308 236.457 131.666 236.636 130.737C236.867 129.553 235.783 128.534 234.42 128.534H197.586C196.469 128.534 195.431 127.893 195.251 126.964C195.021 125.78 196.104 124.761 197.468 124.761H225.322C226.439 124.761 227.477 124.119 227.657 123.19C227.887 122.006 226.804 120.987 225.44 120.987H209.692C208.575 120.987 207.537 120.346 207.357 119.417C207.127 118.233 208.21 117.214 209.574 117.214H241.036C242.153 117.214 243.192 116.572 243.371 115.643C243.601 114.459 242.518 113.44 241.154 113.44H187.394C186.277 113.44 185.239 112.799 185.059 111.87C184.829 110.686 185.913 109.667 187.276 109.667H220.832C221.949 109.667 222.987 109.025 223.167 108.096C223.397 106.912 222.314 105.893 220.95 105.893H206.235C205.118 105.893 204.08 105.252 203.9 104.323C203.67 103.139 204.753 102.12 206.117 102.12H229.812C230.929 102.12 231.967 101.478 232.147 100.549C232.377 99.3652 231.294 98.3463 229.93 98.3463H196.374C195.257 98.3463 194.219 97.7048 194.039 96.7756C193.809 95.5917 194.892 94.5728 196.256 94.5728H227.567C228.684 94.5728 229.722 93.9313 229.902 93.0021C230.132 91.8182 229.049 90.7993 227.685 90.7993H200.864C199.747 90.7993 198.709 90.1578 198.529 89.2286C198.299 88.0447 199.382 87.0258 200.746 87.0258H214.097C215.214 87.0258 216.253 86.3843 216.432 85.4551C216.662 84.2712 215.579 83.2523 214.215 83.2523H180.659C179.543 83.2523 178.504 82.6108 178.325 81.6816C178.095 80.4977 179.178 79.4788 180.542 79.4788H218.587C219.704 79.4788 220.742 78.8373 220.922 77.9081C221.152 76.7242 220.069 75.7053 218.705 75.7053H182.904C181.788 75.7053 180.749 75.0639 180.57 74.1346C180.34 72.9507 181.423 71.9318 182.786 71.9318H200.628C201.745 71.9318 202.783 71.2904 202.963 70.3611C203.193 69.1772 202.11 68.1584 200.746 68.1584H169.435C168.318 68.1584 167.28 67.5169 167.1 66.5876C166.87 65.4037 167.953 64.3849 169.317 64.3849H218.587C219.704 64.3849 220.742 63.7434 220.922 62.8141C221.152 61.6302 220.069 60.6114 218.705 60.6114H144.741C143.624 60.6114 142.586 59.9699 142.406 59.0406C142.176 57.8567 143.259 56.8379 144.623 56.8379H200.628C201.745 56.8379 202.783 56.1964 202.963 55.2672C203.193 54.0832 202.11 53.0644 200.746 53.0644H194.011C192.771 53.0644 191.766 52.2201 191.766 51.1776C191.766 50.1352 192.771 49.2909 194.011 49.2909H238.792C239.908 49.2909 240.947 48.6494 241.126 47.7202C241.356 46.5362 240.273 45.5174 238.909 45.5174H194.129C193.012 45.5174 191.974 44.8759 191.794 43.9467C191.564 42.7627 192.647 41.7439 194.011 41.7439H223.077C224.194 41.7439 225.232 41.1024 225.412 40.1732C225.642 38.9892 224.559 37.9704 223.195 37.9704H167.19C166.073 37.9704 165.035 37.3289 164.855 36.3997C164.625 35.2157 165.708 34.1969 167.072 34.1969H243.281C244.398 34.1969 245.437 33.5554 245.616 32.6262C245.846 31.4422 244.763 30.4234 243.399 30.4234H203.367C202.458 30.4234 201.571 30.0649 201.077 29.4187C200.695 28.9234 200.701 28.4989 200.813 28.1027C200.336 27.6121 199.853 27.1263 199.365 26.6452H211.853C212.969 26.6452 214.008 26.0037 214.187 25.0745C214.417 23.8905 213.334 22.8717 211.97 22.8717H160.455C159.338 22.8717 158.3 22.2302 158.12 21.301C157.89 20.117 158.974 19.0982 160.337 19.0982H202.873C203.99 19.0982 205.028 18.4567 205.208 17.5275C205.438 16.3435 204.355 15.3247 202.991 15.3247H176.17C175.053 15.3247 174.014 14.6832 173.835 13.754C173.605 12.57 174.688 11.5512 176.052 11.5512H193.893C195.01 11.5512 196.048 10.9097 196.228 9.98048C196.458 8.79655 195.375 7.7777 194.011 7.7777H151.476C150.359 7.7777 149.32 7.13621 149.141 6.20699C148.911 5.02305 149.994 4.00421 151.358 4.00421H175.934C177.051 4.00421 178.089 3.36271 178.269 2.43349C178.499 1.24956 177.416 0.230713 176.052 0.230713H86.3729C85.2561 0.230713 84.2178 0.872207 84.0382 1.80143C83.8081 2.98536 84.8913 4.00421 86.2551 4.00421H106.341C107.458 4.00421 108.497 4.6457 108.676 5.57493C108.906 6.75886 107.823 7.7777 106.459 7.7777H59.4339C58.3171 7.7777 57.2788 8.4192 57.0992 9.34842C56.8691 10.5324 57.9523 11.5512 59.3161 11.5512H101.852C102.968 11.5512 104.007 12.1927 104.186 13.1219C104.416 14.3059 103.333 15.3247 101.969 15.3247H34.7398C33.623 15.3247 32.5847 15.9662 32.4051 16.8954C32.175 18.0793 33.2582 19.0982 34.622 19.0982H77.1575C78.2744 19.0982 79.3127 19.7397 79.4923 20.6689C79.7224 21.8528 78.6392 22.8717 77.2754 22.8717H54.9441C53.8273 22.8717 52.789 23.5132 52.6094 24.4424C52.3793 25.6263 53.4625 26.6452 54.8262 26.6452H65.933C67.0498 26.6452 68.0881 27.2867 68.2677 28.2159C68.4978 29.3998 67.4146 30.4187 66.0508 30.4187H43.7195C42.6027 30.4187 41.5644 31.0602 41.3848 31.9894C41.1547 33.1733 42.2379 34.1922 43.6017 34.1922H86.1372C87.2541 34.1922 88.2923 34.8337 88.4719 35.7629C88.702 36.9468 87.6189 37.9657 86.2551 37.9657H34.7398C33.623 37.9657 32.5847 38.6072 32.4051 39.5364C32.175 40.7203 33.2582 41.7392 34.622 41.7392H62.4758C63.5926 41.7392 64.6309 42.3807 64.8105 43.3099C65.0406 44.4938 63.9574 45.5127 62.5937 45.5127H41.4746C40.3578 45.5127 39.3195 46.1542 39.1399 47.0834C38.9098 48.2673 39.993 49.2862 41.3567 49.2862H77.2754C78.5157 49.2862 79.5203 50.1305 79.5203 51.1729C79.5203 52.2153 78.5157 53.0597 77.2754 53.0597H36.9848C35.8679 53.0597 34.8296 53.7011 34.6501 54.6304C34.4199 55.8143 35.5031 56.8332 36.8669 56.8332H104.097C105.213 56.8332 106.252 57.4746 106.431 58.4039C106.661 59.5878 105.578 60.6066 104.214 60.6066H57.189C56.0722 60.6066 55.0339 61.2481 54.8543 62.1774C54.6242 63.3613 55.7074 64.3801 57.0712 64.3801H74.9126C76.0295 64.3801 77.0677 65.0216 77.2473 65.9509C77.4774 67.1348 76.3943 68.1536 75.0305 68.1536H21.2703C20.1535 68.1536 19.1152 68.7951 18.9356 69.7244C18.7055 70.9083 19.7887 71.9271 21.1525 71.9271H99.6067C100.724 71.9271 101.762 72.5686 101.941 73.4979C102.172 74.6818 101.088 75.7006 99.7246 75.7006H50.4543C49.3374 75.7006 48.2991 76.3421 48.1196 77.2713C47.8895 78.4553 48.9726 79.4741 50.3364 79.4741H65.933C67.0498 79.4741 68.0881 80.1156 68.2677 81.0448C68.4978 82.2288 67.4146 83.2476 66.0508 83.2476H30.25C29.1332 83.2476 28.0949 83.8891 27.9153 84.8183C27.6852 86.0023 28.7684 87.0211 30.1322 87.0211H108.586C109.703 87.0211 110.742 87.6626 110.921 88.5918C111.151 89.7758 110.068 90.7946 108.704 90.7946H36.9848C35.8679 90.7946 34.8296 91.4361 34.6501 92.3653C34.4199 93.5493 35.5031 94.5681 36.8669 94.5681H50.2186C51.3354 94.5681 52.3737 95.2096 52.5533 96.1388C52.7834 97.3228 51.7002 98.3416 50.3364 98.3416H32.4949C31.3781 98.3416 30.3398 98.9831 30.1602 99.9123C29.9301 101.096 31.0133 102.115 32.3771 102.115H79.7392C80.856 102.115 81.8943 102.757 82.0739 103.686C82.304 104.87 81.2209 105.889 79.8571 105.889H36.9848C35.8679 105.889 34.8296 106.53 34.6501 107.459C34.4199 108.643 35.5031 109.662 36.8669 109.662H59.1982C60.3151 109.662 61.3533 110.304 61.5329 111.233C61.763 112.417 60.6799 113.436 59.3161 113.436H36.9848C35.8679 113.436 34.8296 114.077 34.6501 115.006C34.4199 116.19 35.5031 117.209 36.8669 117.209H78.0106C79.1275 117.209 80.1657 117.851 80.3453 118.78C80.5754 119.964 79.4923 120.983 78.1285 120.983H21.2703C20.1535 120.983 19.1152 121.624 18.9356 122.553C18.7055 123.737 19.7887 124.756 21.1525 124.756H43.4838C44.6006 124.756 45.6389 125.398 45.8185 126.327C46.0486 127.511 44.9654 128.53 43.6017 128.53H30.25C29.1332 128.53 28.0949 129.171 27.9153 130.1C27.6852 131.284 28.7684 132.303 30.1322 132.303H72.8193C73.9361 132.303 74.9744 132.945 75.154 133.874C75.3841 135.058 74.3009 136.077 72.9371 136.077H36.9848C35.8679 136.077 34.8296 136.718 34.6501 137.647C34.4199 138.831 35.5031 139.85 36.8669 139.85H95.1169C96.2337 139.85 97.272 140.492 97.4516 141.421C97.6817 142.605 96.5985 143.624 95.2347 143.624H28.0051C26.8883 143.624 25.85 144.265 25.6704 145.194C25.4403 146.378 26.5235 147.397 27.8872 147.397H47.9736C49.0905 147.397 50.1288 148.039 50.3083 148.968C50.5384 150.152 49.4553 151.171 48.0915 151.171H21.2703C20.1535 151.171 19.1152 151.812 18.9356 152.741C18.7055 153.925 19.7887 154.944 21.1525 154.944H65.933C67.0498 154.944 68.0881 155.586 68.2677 156.515C68.4978 157.699 67.4146 158.718 66.0508 158.718H36.9848C35.8679 158.718 34.8296 159.359 34.6501 160.288C34.4199 161.472 35.5031 162.491 36.8669 162.491H92.872C93.9888 162.491 95.0271 163.133 95.2067 164.062C95.4368 165.246 94.3536 166.265 92.9898 166.265H16.7805C15.6637 166.265 14.6254 166.906 14.4458 167.835C14.2157 169.019 15.2989 170.038 16.6627 170.038H56.6951C57.6043 170.038 58.4911 170.397 58.985 171.043C59.3666 171.538 59.361 171.963 59.2487 172.359C59.7258 172.849 60.2084 173.335 60.6967 173.816H48.2094C47.0925 173.816 46.0542 174.458 45.8746 175.387C45.6445 176.571 46.7277 177.59 48.0915 177.59H99.6067C100.724 177.59 101.762 178.231 101.941 179.16C102.172 180.344 101.088 181.363 99.7246 181.363H57.189C56.0722 181.363 55.0339 182.005 54.8543 182.934C54.6242 184.118 55.7074 185.137 57.0712 185.137H83.8923C85.0091 185.137 86.0474 185.778 86.227 186.707C86.4571 187.891 85.3739 188.91 84.0102 188.91H66.1687C65.0518 188.91 64.0136 189.552 63.834 190.481C63.6039 191.665 64.687 192.684 66.0508 192.684H108.586C109.703 192.684 110.742 193.325 110.921 194.254C111.151 195.438 110.068 196.457 108.704 196.457H84.128C83.0112 196.457 81.9729 197.099 81.7933 198.028C81.5632 199.212 82.6464 200.231 84.0102 200.231H173.689C174.806 200.231 175.844 199.589 176.024 198.66C176.254 197.476 175.171 196.457 173.807 196.457H153.72C152.604 196.457 151.565 195.816 151.386 194.887C151.156 193.703 152.239 192.684 153.603 192.684H200.628C201.745 192.684 202.783 192.042 202.963 191.113C203.193 189.929 202.11 188.91 200.746 188.91H158.21C157.093 188.91 156.055 188.269 155.876 187.34C155.645 186.156 156.729 185.137 158.092 185.137H225.322C226.439 185.137 227.477 184.495 227.657 183.566C227.887 182.382 226.804 181.363 225.44 181.363H182.904C181.788 181.363 180.749 180.722 180.57 179.793C180.34 178.609 181.423 177.59 182.786 177.59H205.118C206.235 177.59 207.273 176.948 207.453 176.019C207.683 174.835 206.599 173.816 205.236 173.816H194.129C193.012 173.816 191.974 173.175 191.794 172.246C191.564 171.062 192.647 170.043 194.011 170.043H216.342C217.459 170.043 218.498 169.401 218.677 168.472C218.907 167.288 217.824 166.269 216.46 166.269H173.925C172.808 166.269 171.77 165.628 171.59 164.699C171.36 163.515 172.443 162.496 173.807 162.496H225.44C226.804 162.496 227.881 161.472 227.657 160.293ZM211.97 173.816C210.73 173.816 209.725 174.661 209.725 175.703C209.725 176.745 210.73 177.59 211.97 177.59H220.95C222.19 177.59 223.195 176.745 223.195 175.703C223.195 174.661 222.19 173.816 220.95 173.816H211.97Z" fill="#7EA32E"/>
<path d="M130.031 24.0082C135.03 24.0082 139.083 19.9556 139.083 14.9564C139.083 9.95728 135.03 5.90466 130.031 5.90466C125.032 5.90466 120.979 9.95728 120.979 14.9564C120.979 19.9556 125.032 24.0082 130.031 24.0082Z" fill="#FD874A"/>
<path d="M125.505 19.4823C125.505 14.4812 129.556 10.4305 134.557 10.4305C135.885 10.4305 137.144 10.7247 138.276 11.2377C136.858 8.09972 133.705 5.90466 130.031 5.90466C125.03 5.90466 120.979 9.95533 120.979 14.9564C120.979 18.6299 123.167 21.783 126.312 23.2011C125.8 22.0621 125.505 20.8099 125.505 19.4823Z" fill="white"/>
<path d="M83.2783 72.2842C88.6339 51.4652 107.537 36.0771 130.031 36.0771C152.524 36.0771 171.427 51.4652 176.783 72.2842H83.2783Z" fill="#BFD196"/>
<path d="M140.591 39.0944C143.284 39.0944 145.924 39.3207 148.496 39.7431C142.809 37.3821 136.571 36.0771 130.031 36.0771C107.537 36.0771 88.6339 51.4652 83.2783 72.2842H94.7288C101.065 53.0115 119.199 39.0944 140.591 39.0944Z" fill="white"/>
<path d="M190.376 96.4223H69.6862C63.0181 96.4223 57.6172 91.0215 57.6172 84.3533C57.6172 77.6852 63.0181 72.2843 69.6862 72.2843H190.376C197.045 72.2843 202.445 77.6852 202.445 84.3533C202.445 91.0215 197.045 96.4223 190.376 96.4223Z" fill="#8CF009"/>
<path d="M89.1547 76.433H81.2344V92.2736H89.1547V76.433Z" fill="white"/>
<g style="mix-blend-mode:multiply">
<path d="M172.273 72.2843H166.238V96.4223H172.273V72.2843Z" fill="#A0BE71"/>
</g>
<g style="mix-blend-mode:multiply">
<path d="M190.376 96.4223H178.307V72.2843H190.376C197.044 72.2843 202.445 77.6852 202.445 84.3533C202.445 91.0215 197.044 96.4223 190.376 96.4223Z" fill="#A0BE71"/>
</g>
<path d="M77.8396 92.2736H69.9193C65.5443 92.2736 61.999 88.7283 61.999 84.3533C61.999 79.9783 65.5443 76.433 69.9193 76.433H77.8396V92.2736Z" fill="white"/>
<path d="M130.03 67.6603C138.021 67.6603 144.498 63.4591 144.498 58.2766C144.498 53.0942 138.021 48.8929 130.03 48.8929C122.04 48.8929 115.562 53.0942 115.562 58.2766C115.562 63.4591 122.04 67.6603 130.03 67.6603Z" fill="#1C2D0B"/>
<path d="M131.539 59.3252C131.177 57.2584 139.874 55.018 141.195 56.1646C142.515 57.3112 138.388 60.7961 135.439 60.9243C132.49 61.0526 131.637 59.9135 131.532 59.3252H131.539Z" fill="#AFC67E"/>
<path d="M128.522 59.3252C128.884 57.2584 120.187 55.018 118.867 56.1646C117.547 57.3112 121.673 60.7961 124.622 60.9243C127.571 61.0526 128.424 59.9135 128.529 59.3252H128.522Z" fill="#AFC67E"/>
<path d="M148.587 71.2809C148.187 66.1592 140.04 62.0632 130.031 62.0632C120.021 62.0632 111.874 66.1592 111.475 71.2809H148.587Z" fill="#1C2D0B"/>
<path d="M148.783 79.3824H92.3154V76.433H148.783C149.598 76.433 150.262 77.0968 150.262 77.9114C150.262 78.7261 149.598 79.3899 148.783 79.3899V79.3824Z" fill="white"/>
<path d="M196.021 119.214H64.041V192.85H196.021V119.214Z" fill="#FD874A"/>
<path d="M187.772 186.713V125.35H72.2897V186.713H187.772Z" fill="white"/>
<path d="M196.021 194.192H64.0407C63.0457 194.192 62.2363 193.59 62.2363 192.85V119.214C62.2363 118.474 63.0457 117.872 64.0407 117.872H196.021C197.016 117.872 197.825 118.474 197.825 119.214V192.85C197.825 193.59 197.016 194.192 196.021 194.192ZM65.8452 191.507H194.217V120.556H65.8452V191.507Z" fill="#1E360D"/>
<path d="M187.773 188.056H72.2898C71.2948 188.056 70.4854 187.454 70.4854 186.713V125.35C70.4854 124.61 71.2948 124.008 72.2898 124.008H187.773C188.768 124.008 189.577 124.61 189.577 125.35V186.713C189.577 187.454 188.768 188.056 187.773 188.056ZM74.0942 185.371H185.968V126.693H74.0942V185.371Z" fill="#1E360D"/>
<path d="M79.2644 118.263L71.0146 124.4L73.5665 126.298L81.8162 120.161L79.2644 118.263Z" fill="#1E360D"/>
<path d="M95.7614 118.264L87.5117 124.401L90.0636 126.299L98.3133 120.162L95.7614 118.264Z" fill="#1E360D"/>
<path d="M112.262 118.265L104.013 124.402L106.565 126.3L114.814 120.163L112.262 118.265Z" fill="#1E360D"/>
<path d="M128.759 118.262L120.509 124.399L123.061 126.297L131.31 120.16L128.759 118.262Z" fill="#1E360D"/>
<path d="M145.255 118.263L137.005 124.4L139.557 126.298L147.806 120.161L145.255 118.263Z" fill="#1E360D"/>
<path d="M161.751 118.264L153.501 124.401L156.053 126.299L164.303 120.162L161.751 118.264Z" fill="#1E360D"/>
<path d="M178.252 118.265L170.002 124.402L172.554 126.3L180.803 120.163L178.252 118.265Z" fill="#1E360D"/>
<path d="M194.748 118.262L186.498 124.399L189.05 126.297L197.3 120.16L194.748 118.262Z" fill="#1E360D"/>
<path d="M194.743 130.525L186.495 136.663L189.047 138.561L197.296 132.423L194.743 130.525Z" fill="#1E360D"/>
<path d="M194.743 142.796L186.495 148.934L189.047 150.832L197.296 144.694L194.743 142.796Z" fill="#1E360D"/>
<path d="M194.744 155.069L186.496 161.208L189.048 163.106L197.297 156.967L194.744 155.069Z" fill="#1E360D"/>
<path d="M194.745 167.339L186.497 173.478L189.049 175.376L197.298 169.237L194.745 167.339Z" fill="#1E360D"/>
<path d="M194.746 179.613L186.498 185.751L189.05 187.649L197.299 181.511L194.746 179.613Z" fill="#1E360D"/>
<path d="M71.0198 185.752L62.7715 191.89L65.3238 193.788L73.572 187.65L71.0198 185.752Z" fill="#1E360D"/>
<path d="M71.0188 173.482L62.7705 179.62L65.3228 181.518L73.5711 175.38L71.0188 173.482Z" fill="#1E360D"/>
<path d="M71.0178 161.208L62.7695 167.346L65.3218 169.244L73.5701 163.106L71.0178 161.208Z" fill="#1E360D"/>
<path d="M71.0168 148.938L62.7686 155.076L65.3208 156.974L73.5691 150.836L71.0168 148.938Z" fill="#1E360D"/>
<path d="M71.0168 136.664L62.7686 142.802L65.3208 144.7L73.5691 138.562L71.0168 136.664Z" fill="#1E360D"/>
<path d="M71.0158 124.394L62.7676 130.532L65.3199 132.43L73.5681 126.292L71.0158 124.394Z" fill="#1E360D"/>
<path d="M87.5188 185.752L79.2705 191.89L81.8228 193.788L90.0711 187.65L87.5188 185.752Z" fill="#1E360D"/>
<path d="M104.013 185.751L95.7646 191.889L98.3169 193.787L106.565 187.649L104.013 185.751Z" fill="#1E360D"/>
<path d="M120.512 185.751L112.264 191.889L114.816 193.787L123.064 187.649L120.512 185.751Z" fill="#1E360D"/>
<path d="M137.006 185.75L128.758 191.888L131.31 193.786L139.558 187.648L137.006 185.75Z" fill="#1E360D"/>
<path d="M153.506 185.75L145.258 191.888L147.81 193.786L156.058 187.648L153.506 185.75Z" fill="#1E360D"/>
<path d="M170 185.749L161.752 191.887L164.304 193.785L172.553 187.647L170 185.749Z" fill="#1E360D"/>
<path d="M186.499 185.749L178.251 191.887L180.803 193.785L189.052 187.647L186.499 185.749Z" fill="#1E360D"/>
<path d="M132.671 96.422H127.391V120.56H132.671V96.422Z" fill="#588439"/>
<path d="M159.169 94.6683L155.195 98.1456L176.318 122.282L180.291 118.805L159.169 94.6683Z" fill="#588439"/>
<path d="M100.894 94.6938L79.7715 118.83L83.745 122.307L104.867 98.1711L100.894 94.6938Z" fill="#588439"/>
<path d="M190.376 99.0622H69.6857C61.5768 99.0622 54.9766 92.4619 54.9766 84.353C54.9766 76.2442 61.5768 69.6439 69.6857 69.6439H190.376C198.485 69.6439 205.085 76.2442 205.085 84.353C205.085 92.4619 198.485 99.0622 190.376 99.0622ZM69.6857 74.9241C64.4885 74.9241 60.2568 79.1558 60.2568 84.353C60.2568 89.5503 64.4885 93.782 69.6857 93.782H190.376C195.573 93.782 199.805 89.5503 199.805 84.353C199.805 79.1558 195.573 74.9241 190.376 74.9241H69.6857Z" fill="#588439"/>
<path d="M180.185 74.9242H79.876L80.7208 71.6278C86.5064 49.1417 106.782 33.4369 130.03 33.4369C153.278 33.4369 173.554 49.1417 179.34 71.6278L180.185 74.9242ZM86.8157 69.644H173.245C167.014 51.2689 149.71 38.7171 130.03 38.7171C110.35 38.7171 93.0463 51.2689 86.8157 69.644Z" fill="#588439"/>
<path d="M132.671 24.0079H127.391V36.077H132.671V24.0079Z" fill="#588439"/>
<path d="M130.031 26.648C123.581 26.648 118.339 21.4055 118.339 14.9561C118.339 8.50676 123.581 3.26428 130.031 3.26428C136.48 3.26428 141.723 8.50676 141.723 14.9561C141.723 21.4055 136.48 26.648 130.031 26.648ZM130.031 8.54448C126.493 8.54448 123.619 11.4184 123.619 14.9561C123.619 18.4939 126.493 21.3678 130.031 21.3678C133.568 21.3678 136.442 18.4939 136.442 14.9561C136.442 11.4184 133.568 8.54448 130.031 8.54448Z" fill="#588439"/>
<path d="M103.463 23.2536C102.279 23.2536 101.155 22.5521 100.672 21.3904L97.2173 13.0327C96.5837 11.4939 97.3154 9.72876 98.8542 9.09513C100.393 8.46151 102.158 9.19319 102.792 10.732L106.246 19.0898C106.88 20.6286 106.148 22.3937 104.61 23.0273C104.232 23.1857 103.84 23.2536 103.456 23.2536H103.463Z" fill="#588439"/>
<path d="M80.9549 38.2946C80.1855 38.2946 79.4085 38.0004 78.8201 37.4121L72.4236 31.0155C71.2468 29.8388 71.2468 27.9303 72.4236 26.7461C73.6003 25.5693 75.5087 25.5693 76.693 26.7461L83.0896 33.1427C84.2663 34.3194 84.2663 36.2278 83.0896 37.4121C82.5012 38.0004 81.7318 38.2946 80.9549 38.2946Z" fill="#588439"/>
<path d="M65.9139 60.8032C65.5292 60.8032 65.137 60.7278 64.7598 60.5769L56.402 57.1221C54.8632 56.4885 54.1316 54.7234 54.7652 53.1846C55.3988 51.6458 57.1714 50.9141 58.7027 51.5478L67.0605 55.0025C68.5993 55.6361 69.331 57.4012 68.6974 58.94C68.2146 60.1017 67.0907 60.8032 65.9064 60.8032H65.9139Z" fill="#588439"/>
<path d="M194.147 60.8032C192.963 60.8032 191.839 60.1017 191.356 58.94C190.722 57.4012 191.454 55.6361 192.993 55.0025L201.351 51.5478C202.889 50.9141 204.655 51.6458 205.288 53.1846C205.922 54.7234 205.19 56.4885 203.651 57.1221L195.294 60.5769C194.916 60.7353 194.524 60.8032 194.139 60.8032H194.147Z" fill="#588439"/>
<path d="M179.106 38.2946C178.337 38.2946 177.56 38.0004 176.971 37.4121C175.795 36.2353 175.795 34.3269 176.971 33.1427L183.368 26.7461C184.545 25.5693 186.453 25.5693 187.637 26.7461C188.814 27.9228 188.814 29.8312 187.637 31.0155L181.241 37.4121C180.652 38.0004 179.883 38.2946 179.106 38.2946Z" fill="#588439"/>
<path d="M156.597 23.2536C156.212 23.2536 155.82 23.1782 155.443 23.0273C153.904 22.3937 153.173 20.6286 153.806 19.0898L157.261 10.732C157.895 9.19319 159.66 8.46151 161.198 9.09513C162.737 9.72876 163.469 11.4939 162.835 13.0327L159.381 21.3904C158.898 22.5521 157.774 23.2536 156.59 23.2536H156.597Z" fill="#588439"/>
<path d="M158.896 162.224L161.316 164.757V166.966H159.796V165.362L157.742 163.209L156.321 164.419V166.966H154.801V157.144H156.321V162.435L159.43 159.775H161.752L158.896 162.224Z" fill="#212121"/>
<path d="M152.403 161.14L152.685 161.844L151.291 162.421L151.01 161.717C150.94 161.534 150.813 161.379 150.644 161.295H148.913L148.111 162.013V166.98H146.605V161.337L148.336 159.775H150.658C151.474 159.775 152.122 160.465 152.403 161.14Z" fill="#212121"/>
<path d="M142.373 159.522L144.104 161.084V165.418L142.373 166.98H138.067L136.336 165.418V161.084L138.067 159.522H142.373ZM142.584 164.743V161.759L141.796 161.042H138.644L137.842 161.759V164.743L138.644 165.46H141.796L142.584 164.743Z" fill="#212121"/>
<path d="M132.353 159.775H133.873V164.039C133.859 165.066 133.296 166.009 132.395 166.516L131.143 167.233L129.187 166.094L127.217 167.233L126.119 166.586C125.964 166.502 125.824 166.417 125.683 166.319C124.881 165.671 124.501 164.968 124.501 163.898V159.775H126.021V163.898C126.007 163.997 126.021 164.109 126.021 164.208C126.077 164.574 126.302 164.883 126.584 165.109C126.682 165.165 126.781 165.235 126.879 165.277L127.217 165.489L128.441 164.771L128.54 161.576H129.834L129.933 164.771L131.143 165.489L131.621 165.207C132.058 164.982 132.339 164.532 132.353 164.039V159.775Z" fill="#212121"/>
<path d="M122.232 161.309H118.461V164.743L119.263 165.46H122.232V166.98H118.686L116.955 165.418V157.144H118.461V159.789H122.232V161.309Z" fill="#212121"/>
<path d="M109.47 164.855C109.47 165.193 109.709 165.46 110.061 165.46H113.79V166.98H110.061C108.893 166.98 107.95 166.023 107.95 164.855V161.9C107.95 160.732 108.893 159.789 110.061 159.775H112.861L114.592 161.337V164.138H109.47V164.855ZM109.47 161.9V162.632H113.086L113.072 162.013L112.284 161.295H110.075C109.737 161.295 109.47 161.562 109.47 161.9Z" fill="#212121"/>
<path d="M103.718 159.775L105.435 161.337V166.98H103.929V162.013L103.127 161.295H101.241L100.439 162.013V166.98H98.9336V161.337L100.664 159.775H103.718Z" fill="#212121"/>
<path d="M145.322 145.703L147.038 147.265V152.908H145.533V147.941L144.731 147.223H142.845L142.043 147.941V152.908H140.537V147.265L142.268 145.703H145.322Z" fill="#212121"/>
<path d="M133.052 150.783C133.052 151.121 133.291 151.388 133.643 151.388H137.372V152.908H133.643C132.475 152.908 131.532 151.951 131.532 150.783V147.828C131.532 146.66 132.475 145.717 133.643 145.703H136.443L138.174 147.265V150.066H133.052V150.783ZM133.052 147.828V148.56H136.669L136.654 147.941L135.866 147.223H133.657C133.319 147.223 133.052 147.49 133.052 147.828Z" fill="#212121"/>
<path d="M128.154 144.549C127.732 144.549 127.395 144.212 127.395 143.789C127.395 143.381 127.732 143.044 128.154 143.044H128.197C128.619 143.044 128.957 143.381 128.957 143.789C128.957 144.212 128.619 144.549 128.197 144.549H128.154ZM128.957 145.703L128.928 152.88L127.409 152.866L127.437 145.703H128.957Z" fill="#212121"/>
<path d="M124.693 152.767H123.188V143.198H124.693V152.767Z" fill="#212121"/>
<path d="M113.379 152.894H111.789L115.11 143.044L117.939 143.058L121.189 152.894H119.599L118.642 149.981H114.364L113.379 152.894ZM116.208 144.563L114.8 148.729H118.22L116.841 144.563H116.208Z" fill="#212121"/>
</svg>
