<svg width="17" height="16" viewBox="0 0 17 16" fill="none" xmlns="http://www.w3.org/2000/svg">
<rect x="0.5" y="-0.5" width="15" height="15" rx="7.5" transform="matrix(1 0 0 -1 0.375 15)" stroke="#00B58D"/>
<path d="M12.4547 7.49286C12.3883 7.55981 12.3093 7.61294 12.2222 7.64921C12.1352 7.68547 12.0418 7.70414 11.9476 7.70414C11.8533 7.70414 11.7599 7.68547 11.6729 7.64921C11.5858 7.61294 11.5068 7.55981 11.4404 7.49286L9.09041 5.14286V12.2857C9.09041 12.4752 9.01515 12.6568 8.8812 12.7908C8.74724 12.9247 8.56556 13 8.37612 13C8.18668 13 8.005 12.9247 7.87105 12.7908C7.73709 12.6568 7.66184 12.4752 7.66184 12.2857V5.14286L5.31184 7.49286C5.24544 7.55981 5.16644 7.61294 5.07939 7.64921C4.99235 7.68547 4.89899 7.70414 4.8047 7.70414C4.7104 7.70414 4.61704 7.68547 4.53 7.64921C4.44296 7.61294 4.36395 7.55981 4.29755 7.49286C4.16452 7.35903 4.08984 7.17799 4.08984 6.98929C4.08984 6.80058 4.16452 6.61954 4.29755 6.48571L7.36898 3.42143C7.63566 3.15315 7.99785 3.00159 8.37612 3C8.75191 3.00348 9.1112 3.15489 9.37612 3.42143L12.4476 6.48571C12.5815 6.6186 12.6575 6.79911 12.6588 6.98781C12.6602 7.17652 12.5868 7.35809 12.4547 7.49286Z" fill="#00B58D"/>
</svg>
