<svg width="17" height="17" viewBox="0 0 17 17" fill="none" xmlns="http://www.w3.org/2000/svg">
<path d="M12.9726 5.59149C12.9106 5.529 12.8369 5.4794 12.7556 5.44556C12.6744 5.41171 12.5872 5.39429 12.4992 5.39429C12.4112 5.39429 12.3241 5.41171 12.2428 5.44556C12.1616 5.4794 12.0879 5.529 12.0259 5.59149L8.97256 8.64481C8.91058 8.7073 8.83685 8.75689 8.75561 8.79074C8.67437 8.82459 8.58723 8.84201 8.49923 8.84201C8.41122 8.84201 8.32408 8.82459 8.24284 8.79074C8.1616 8.75689 8.08787 8.7073 8.02589 8.64481L4.97256 5.59149C4.91058 5.529 4.83685 5.4794 4.75561 5.44556C4.67437 5.41171 4.58723 5.39429 4.49923 5.39429C4.41122 5.39429 4.32408 5.41171 4.24284 5.44556C4.1616 5.4794 4.08787 5.529 4.02589 5.59149C3.90173 5.71639 3.83203 5.88536 3.83203 6.06148C3.83203 6.23761 3.90173 6.40658 4.02589 6.53148L7.08589 9.59148C7.46089 9.96601 7.96922 10.1764 8.49923 10.1764C9.02923 10.1764 9.53756 9.96601 9.91256 9.59148L12.9726 6.53148C13.0967 6.40658 13.1664 6.23761 13.1664 6.06148C13.1664 5.88536 13.0967 5.71639 12.9726 5.59149Z" fill="black"/>
</svg>
