<svg width="17" height="16" viewBox="0 0 17 16" fill="none" xmlns="http://www.w3.org/2000/svg">
<rect x="1" y="0.5" width="15" height="15" rx="7.5" stroke="#FE5300"/>
<path d="M12.5797 8.50714C12.5133 8.44019 12.4343 8.38706 12.3472 8.35079C12.2602 8.31453 12.1668 8.29586 12.0726 8.29586C11.9783 8.29586 11.8849 8.31453 11.7979 8.35079C11.7108 8.38706 11.6318 8.44019 11.5654 8.50714L9.21541 10.8571V3.71429C9.21541 3.52485 9.14015 3.34316 9.0062 3.20921C8.87224 3.07526 8.69056 3 8.50112 3C8.31168 3 8.13 3.07526 7.99605 3.20921C7.86209 3.34316 7.78684 3.52485 7.78684 3.71429V10.8571L5.43684 8.50714C5.37044 8.44019 5.29144 8.38706 5.20439 8.35079C5.11735 8.31453 5.02399 8.29586 4.9297 8.29586C4.8354 8.29586 4.74204 8.31453 4.655 8.35079C4.56796 8.38706 4.48895 8.44019 4.42255 8.50714C4.28952 8.64097 4.21484 8.82201 4.21484 9.01071C4.21484 9.19942 4.28952 9.38046 4.42255 9.51429L7.49398 12.5786C7.76066 12.8468 8.12285 12.9984 8.50112 13C8.87691 12.9965 9.2362 12.8451 9.50112 12.5786L12.5726 9.51429C12.7065 9.3814 12.7825 9.20089 12.7838 9.01219C12.7852 8.82348 12.7118 8.64191 12.5797 8.50714Z" fill="#FE5300"/>
</svg>
