<svg width="16" height="16" viewBox="0 0 16 16" fill="none" xmlns="http://www.w3.org/2000/svg">
<g clip-path="url(#clip0_2796_9985)">
<path d="M15.5138 6.2792C14.912 5.29369 14.1528 4.41337 13.2665 3.6732L15.1331 1.80654C15.2546 1.6808 15.3218 1.5124 15.3202 1.3376C15.3187 1.1628 15.2486 0.995595 15.125 0.871989C15.0014 0.748384 14.8342 0.678271 14.6594 0.676752C14.4846 0.675234 14.3162 0.74243 14.1905 0.863869L12.1605 2.89654C10.9021 2.14908 9.4634 1.75951 7.99979 1.76987C3.87246 1.76987 1.52046 4.5952 0.48579 6.2792C0.166142 6.79621 -0.00317383 7.39203 -0.00317383 7.99987C-0.00317383 8.60771 0.166142 9.20353 0.48579 9.72054C1.08763 10.7061 1.84678 11.5864 2.73312 12.3265L0.866457 14.1932C0.802783 14.2547 0.751995 14.3283 0.717056 14.4096C0.682117 14.4909 0.663726 14.5784 0.662956 14.6669C0.662187 14.7555 0.679055 14.8432 0.712576 14.9252C0.746096 15.0071 0.795598 15.0815 0.858193 15.1441C0.920789 15.2067 0.995223 15.2562 1.07715 15.2898C1.15908 15.3233 1.24687 15.3401 1.33539 15.3394C1.42391 15.3386 1.51139 15.3202 1.59273 15.2853C1.67406 15.2503 1.74763 15.1995 1.80912 15.1359L3.84379 13.1012C5.10064 13.8485 6.53757 14.2388 7.99979 14.2299C12.1271 14.2299 14.4791 11.4045 15.5138 9.72054C15.8334 9.20353 16.0028 8.60771 16.0028 7.99987C16.0028 7.39203 15.8334 6.79621 15.5138 6.2792ZM1.62179 9.02254C1.43188 8.71523 1.33129 8.36112 1.33129 7.99987C1.33129 7.63862 1.43188 7.28451 1.62179 6.9772C2.51112 5.5332 4.52112 3.1032 7.99979 3.1032C9.10664 3.097 10.1979 3.36376 11.1771 3.87987L9.83512 5.22187C9.19508 4.79694 8.42773 4.60653 7.66328 4.68297C6.89883 4.7594 6.18437 5.09796 5.64112 5.6412C5.09788 6.18445 4.75932 6.89891 4.68289 7.66336C4.60645 8.42781 4.79686 9.19516 5.22179 9.8352L3.68179 11.3752C2.86519 10.715 2.16835 9.91917 1.62179 9.02254ZM9.99979 7.99987C9.99979 8.5303 9.78908 9.03901 9.414 9.41408C9.03893 9.78916 8.53022 9.99987 7.99979 9.99987C7.7028 9.99872 7.40992 9.93034 7.14312 9.79987L9.79979 7.1432C9.93026 7.41 9.99864 7.70288 9.99979 7.99987ZM5.99979 7.99987C5.99979 7.46944 6.2105 6.96073 6.58558 6.58565C6.96065 6.21058 7.46936 5.99987 7.99979 5.99987C8.29678 6.00102 8.58966 6.06939 8.85646 6.19987L6.19979 8.85653C6.06932 8.58974 6.00094 8.29686 5.99979 7.99987ZM14.3778 9.02254C13.4885 10.4665 11.4785 12.8965 7.99979 12.8965C6.89294 12.9027 5.80163 12.636 4.82246 12.1199L6.16446 10.7779C6.8045 11.2028 7.57185 11.3932 8.3363 11.3168C9.10075 11.2403 9.81521 10.9018 10.3585 10.3585C10.9017 9.81529 11.2403 9.10083 11.3167 8.33638C11.3931 7.57193 11.2027 6.80458 10.7778 6.16454L12.3178 4.62454C13.1344 5.28472 13.8312 6.08057 14.3778 6.9772C14.5677 7.28451 14.6683 7.63862 14.6683 7.99987C14.6683 8.36112 14.5677 8.71523 14.3778 9.02254Z" fill="#69CF00"/>
</g>
<defs>
<clipPath id="clip0_2796_9985">
<rect width="16" height="16" fill="white"/>
</clipPath>
</defs>
</svg>
