<svg width="16" height="16" viewBox="0 0 16 16" fill="none" xmlns="http://www.w3.org/2000/svg">
<g clip-path="url(#clip0_2796_9613)">
<path d="M15.514 6.27923C14.48 4.59523 12.128 1.7699 8.00003 1.7699C3.87203 1.7699 1.52003 4.59523 0.486034 6.27923C0.166386 6.79624 -0.00292969 7.39206 -0.00292969 7.9999C-0.00292969 8.60774 0.166386 9.20356 0.486034 9.72056C1.52003 11.4046 3.87203 14.2299 8.00003 14.2299C12.128 14.2299 14.48 11.4046 15.514 9.72056C15.8337 9.20356 16.003 8.60774 16.003 7.9999C16.003 7.39206 15.8337 6.79624 15.514 6.27923ZM14.3774 9.02256C13.4894 10.4666 11.4794 12.8966 8.00003 12.8966C4.5207 12.8966 2.5107 10.4666 1.6227 9.02256C1.43279 8.71526 1.3322 8.36115 1.3322 7.9999C1.3322 7.63865 1.43279 7.28453 1.6227 6.97723C2.5107 5.53323 4.5207 3.10323 8.00003 3.10323C11.4794 3.10323 13.4894 5.53056 14.3774 6.97723C14.5673 7.28453 14.6679 7.63865 14.6679 7.9999C14.6679 8.36115 14.5673 8.71526 14.3774 9.02256Z" fill="#69CF00"/>
<path d="M8.00033 4.66656C7.34106 4.66656 6.69659 4.86206 6.14843 5.22833C5.60026 5.5946 5.17302 6.1152 4.92073 6.72429C4.66844 7.33337 4.60243 8.0036 4.73104 8.6502C4.85966 9.2968 5.17713 9.89075 5.6433 10.3569C6.10948 10.8231 6.70342 11.1406 7.35003 11.2692C7.99663 11.3978 8.66685 11.3318 9.27594 11.0795C9.88503 10.8272 10.4056 10.4 10.7719 9.8518C11.1382 9.30364 11.3337 8.65917 11.3337 7.9999C11.3326 7.11617 10.9811 6.26894 10.3562 5.64404C9.73129 5.01915 8.88406 4.66762 8.00033 4.66656ZM8.00033 9.9999C7.60476 9.9999 7.21808 9.8826 6.88919 9.66284C6.56029 9.44308 6.30394 9.13072 6.15257 8.76527C6.00119 8.39981 5.96159 7.99768 6.03876 7.60972C6.11593 7.22176 6.30641 6.86539 6.58611 6.58568C6.86582 6.30598 7.22218 6.1155 7.61015 6.03833C7.99811 5.96116 8.40024 6.00076 8.76569 6.15214C9.13115 6.30351 9.4435 6.55986 9.66327 6.88876C9.88303 7.21766 10.0003 7.60434 10.0003 7.9999C10.0003 8.53033 9.78961 9.03904 9.41454 9.41411C9.03947 9.78919 8.53076 9.9999 8.00033 9.9999Z" fill="#69CF00"/>
</g>
<defs>
<clipPath id="clip0_2796_9613">
<rect width="16" height="16" fill="white"/>
</clipPath>
</defs>
</svg>
