<svg xmlns="http://www.w3.org/2000/svg" width="134" height="94" viewBox="0 0 134 94" fill="none"><g clip-path="url(#clip0_70_5775)"><path d="M129.005 88.6441H114.093C112.831 88.6441 111.808 89.6737 111.808 90.9438V90.9466C111.808 92.2167 112.831 93.2463 114.093 93.2463H129.005C130.267 93.2463 131.29 92.2167 131.29 90.9466V90.9438C131.29 89.6737 130.267 88.6441 129.005 88.6441Z" fill="white" stroke="black" stroke-width="1.5" stroke-linecap="round" stroke-linejoin="round"></path><path d="M128.312 88.9355V91.6151" stroke="black" stroke-width="1.5" stroke-linecap="round" stroke-linejoin="round"></path><path d="M116.761 90.2753V92.9549" stroke="black" stroke-width="1.5" stroke-linecap="round" stroke-linejoin="round"></path><path d="M127.827 83.9534H112.918C111.655 83.9534 110.633 84.9846 110.633 86.253C110.633 87.5242 111.658 88.5527 112.918 88.5527H127.827C129.09 88.5527 130.112 87.5214 130.112 86.253C130.112 84.9818 129.087 83.9534 127.827 83.9534Z" fill="white" stroke="black" stroke-width="1.5" stroke-linecap="round" stroke-linejoin="round"></path><path d="M131.36 79.2627H116.449C115.187 79.2627 114.164 80.2923 114.164 81.5623V81.5652C114.164 82.8353 115.187 83.8649 116.449 83.8649H131.36C132.622 83.8649 133.645 82.8353 133.645 81.5652V81.5623C133.645 80.2923 132.622 79.2627 131.36 79.2627Z" fill="white" stroke="black" stroke-width="1.5" stroke-linecap="round" stroke-linejoin="round"></path><path d="M130.115 79.5541V82.2337" stroke="black" stroke-width="1.5" stroke-linecap="round" stroke-linejoin="round"></path><path d="M126.022 80.8939V83.5734" stroke="black" stroke-width="1.5" stroke-linecap="round" stroke-linejoin="round"></path><path d="M118.563 80.8939V83.5734" stroke="black" stroke-width="1.5" stroke-linecap="round" stroke-linejoin="round"></path><path d="M129.005 74.5748H114.096C112.833 74.5748 111.811 75.6061 111.811 76.8745C111.811 78.1457 112.836 79.1741 114.096 79.1741H129.005C130.268 79.1741 131.289 78.1429 131.289 76.8745C131.289 75.6032 130.265 74.5748 129.005 74.5748Z" fill="white" stroke="black" stroke-width="1.5" stroke-linecap="round" stroke-linejoin="round"></path><path d="M115.776 74.8662V77.5458" stroke="black" stroke-width="1.5" stroke-linecap="round" stroke-linejoin="round"></path><path d="M119.866 76.206V78.8856" stroke="black" stroke-width="1.5" stroke-linecap="round" stroke-linejoin="round"></path><path d="M124.838 76.206V78.8856" stroke="black" stroke-width="1.5" stroke-linecap="round" stroke-linejoin="round"></path><path d="M109.299 88.6441H94.3873C93.1255 88.6441 92.1025 89.6737 92.1025 90.9438V90.9466C92.1025 92.2167 93.1255 93.2463 94.3873 93.2463H109.299C110.561 93.2463 111.584 92.2167 111.584 90.9466V90.9438C111.584 89.6737 110.561 88.6441 109.299 88.6441Z" fill="white" stroke="black" stroke-width="1.5" stroke-linecap="round" stroke-linejoin="round"></path><path d="M100.379 90.2753V92.9549" stroke="black" stroke-width="1.5" stroke-linecap="round" stroke-linejoin="round"></path><path d="M107.837 90.2753V92.9549" stroke="black" stroke-width="1.5" stroke-linecap="round" stroke-linejoin="round"></path><path d="M86.9994 88.6441H72.0875C70.8257 88.6441 69.8027 89.6737 69.8027 90.9438V90.9466C69.8027 92.2167 70.8257 93.2463 72.0875 93.2463H86.9994C88.2612 93.2463 89.2841 92.2167 89.2841 90.9466V90.9438C89.2841 89.6737 88.2612 88.6441 86.9994 88.6441Z" fill="white" stroke="black" stroke-width="1.5" stroke-linecap="round" stroke-linejoin="round"></path><path d="M73.4753 88.6441V91.3237" stroke="black" stroke-width="1.5" stroke-linecap="round" stroke-linejoin="round"></path><path d="M77.568 89.9839V92.6635" stroke="black" stroke-width="1.5" stroke-linecap="round" stroke-linejoin="round"></path><path d="M85.0269 89.9839V92.6635" stroke="black" stroke-width="1.5" stroke-linecap="round" stroke-linejoin="round"></path><path d="M106.157 83.9534H91.2481C89.9851 83.9534 88.9634 84.9847 88.9634 86.2531C88.9634 87.5243 89.988 88.5527 91.2481 88.5527H106.157C107.42 88.5527 108.442 87.5215 108.442 86.2531C108.442 84.9818 107.417 83.9534 106.157 83.9534Z" fill="white" stroke="black" stroke-width="1.5" stroke-linecap="round" stroke-linejoin="round"></path><path d="M103.966 84.2448V86.9244" stroke="black" stroke-width="1.5" stroke-linecap="round" stroke-linejoin="round"></path><path d="M97.3872 85.5846V88.2642" stroke="black" stroke-width="1.5" stroke-linecap="round" stroke-linejoin="round"></path><path d="M92.4147 85.5846V88.2642" stroke="black" stroke-width="1.5" stroke-linecap="round" stroke-linejoin="round"></path><path d="M109.299 79.2627H94.3873C93.1255 79.2627 92.1025 80.2923 92.1025 81.5623V81.5652C92.1025 82.8353 93.1255 83.8649 94.3873 83.8649H109.299C110.561 83.8649 111.584 82.8353 111.584 81.5652V81.5623C111.584 80.2923 110.561 79.2627 109.299 79.2627Z" fill="white" stroke="black" stroke-width="1.5" stroke-linecap="round" stroke-linejoin="round"></path><path d="M96.0675 79.5541V82.2337" stroke="black" stroke-width="1.5" stroke-linecap="round" stroke-linejoin="round"></path><path d="M100.157 80.8939V83.5734" stroke="black" stroke-width="1.5" stroke-linecap="round" stroke-linejoin="round"></path><path d="M107.619 80.8939V83.5734" stroke="black" stroke-width="1.5" stroke-linecap="round" stroke-linejoin="round"></path><path d="M95.1109 28.6705C95.1109 29.1133 94.6398 29.399 94.2509 29.1847L86.4657 24.9282C86.1791 24.774 85.8271 24.8797 85.6767 25.1625L60.2635 76.0261C60.1187 76.2946 59.7923 76.4061 59.517 76.2832L46.1236 70.3441C45.8369 70.2184 45.5048 70.3413 45.3658 70.6212L35.4235 90.9238C35.3043 91.1695 35.029 92.615 34.7679 92.555C34.7679 92.555 33.6837 92.555 32.0319 92.5464C26.5825 92.5321 14.926 92.4636 15.0708 92.2036L36.3176 52.8754C36.4708 52.6097 36.8001 52.5011 37.0754 52.6354L51.6836 61.0198C51.9532 61.1455 52.2768 61.0484 52.4329 60.797L75.1442 19.8147C75.3258 19.5119 75.2066 19.1206 74.8887 18.9749L66.8254 15.2869C66.3741 15.0812 66.3684 14.4356 66.8169 14.2242L92.0996 1.24044C92.4856 1.06047 92.9312 1.34614 92.9312 1.77464L95.1109 28.6705Z" fill="#FD874A"></path><path d="M72.1924 17.2436L66.499 14.6412C66.4536 14.8897 66.5586 15.164 66.8254 15.2868L72.5217 17.8892C72.5728 17.6321 72.4479 17.3608 72.1924 17.2436Z" fill="white"></path><path d="M92.9312 1.77171C92.9312 1.3432 92.4884 1.05753 92.1025 1.24036L90.4052 2.11165L92.4203 26.9393C92.4203 27.3849 91.9492 27.6677 91.5604 27.4535L83.7723 23.197C83.4913 23.0427 83.1366 23.1484 82.9833 23.4312L57.5729 74.2977C57.4281 74.5662 57.1046 74.6748 56.8264 74.552L43.4358 68.6129C43.1492 68.4872 42.8171 68.6072 42.678 68.89C42.678 68.89 31.4132 92.0807 30.8711 92.5435C33.5929 92.552 34.7793 92.552 34.7793 92.552C35.0433 92.6149 35.3129 91.1665 35.4349 90.9237L45.3771 70.6183C45.5162 70.3355 45.8483 70.2155 46.1349 70.3412L59.5256 76.2803C59.8037 76.4031 60.1273 76.2917 60.272 76.026L85.6824 25.1595C85.8357 24.8767 86.1905 24.771 86.4715 24.9253L94.2595 29.1818C94.6483 29.3932 95.1195 29.1104 95.1195 28.6676L92.9369 1.76885L92.9312 1.77171Z" fill="white"></path><path d="M95.1109 28.6705C95.1109 29.1133 94.6398 29.399 94.2509 29.1847L86.4657 24.9282C86.1791 24.774 85.8271 24.8797 85.6767 25.1625L60.2635 76.0261C60.1187 76.2946 59.7923 76.406 59.517 76.2832L46.1236 70.3441C45.8369 70.2184 45.5048 70.3413 45.3658 70.6212L35.4235 90.9238C35.3043 91.1695 35.029 92.615 34.7679 92.555C34.7679 92.555 33.6837 92.555 32.0319 92.5464C26.5825 92.5321 14.926 92.4636 15.0708 92.2036L36.3176 52.8754C36.4708 52.6097 36.8001 52.5011 37.0754 52.6354L51.6836 61.0198C51.9532 61.1455 52.2768 61.0484 52.4329 60.797L75.1442 19.8147C75.3258 19.5119 75.2066 19.1206 74.8887 18.9749L66.8254 15.2869C66.3741 15.0812 66.3684 14.4356 66.8169 14.2242L92.0996 1.24044C92.4856 1.06047 92.9312 1.34614 92.9312 1.77464L95.1109 28.6705Z" stroke="black" stroke-width="1.5" stroke-linecap="round" stroke-linejoin="round"></path><path d="M92.5508 28.6362L88.2651 37.9062" stroke="black" stroke-width="1.5" stroke-linecap="round" stroke-linejoin="round"></path><path d="M86.5566 31.1158L81.5415 41.697" stroke="black" stroke-width="1.5" stroke-linecap="round" stroke-linejoin="round"></path><path d="M52.9637 74.0406L48.8029 83.5306" stroke="black" stroke-width="1.5" stroke-linecap="round" stroke-linejoin="round"></path><path d="M48.7574 71.8181L45.9646 78.0514" stroke="black" stroke-width="1.5" stroke-linecap="round" stroke-linejoin="round"></path><path d="M67.3647 16.2038L64.2114 21.9172" stroke="black" stroke-width="1.5" stroke-linecap="round" stroke-linejoin="round"></path><path d="M71.2161 17.4064L66.1981 26.7421" stroke="black" stroke-width="1.5" stroke-linecap="round" stroke-linejoin="round"></path><path d="M10.8761 89.8039C10.6689 89.8325 10.4475 89.7668 10.2857 89.6068C10.0189 89.3383 7.74836 86.7587 10.5894 78.6313C11.3472 76.4603 12.017 74.7548 12.6045 73.2522C14.1599 69.2785 14.9404 67.2845 14.7616 63.4651C14.7417 63.0766 15.0425 62.7481 15.4257 62.7309C15.8117 62.7138 16.1381 63.0109 16.1551 63.3994C16.3509 67.5188 15.4796 69.7384 13.9044 73.7664C13.3197 75.2576 12.6584 76.9516 11.9063 79.097C9.3491 86.4159 11.2479 88.587 11.2677 88.607C11.5402 88.8812 11.543 89.324 11.2706 89.6011C11.1599 89.7154 11.018 89.7811 10.8732 89.8011L10.8761 89.8039Z" fill="white" stroke="#41341E" stroke-width="1.5" stroke-linecap="round" stroke-linejoin="round"></path><path d="M15.4542 63.1748C19.6718 62.9337 22.8851 59.0914 22.6313 54.5927C22.3775 50.094 18.7527 46.6425 14.5351 46.8835C10.3175 47.1246 7.10418 50.9669 7.35798 55.4656C7.61178 59.9643 11.2366 63.4158 15.4542 63.1748Z" fill="white" stroke="#41341E" stroke-width="1.5" stroke-linecap="round" stroke-linejoin="round"></path><path d="M15.343 61.204C18.5403 61.0213 20.9762 58.1086 20.7838 54.6983C20.5914 51.2881 17.8435 48.6716 14.6463 48.8544C11.4491 49.0371 9.01314 51.9498 9.20554 55.3601C9.39793 58.7703 12.1458 61.3867 15.343 61.204Z" fill="white" stroke="#41341E" stroke-width="1.5" stroke-linecap="round" stroke-linejoin="round"></path><path d="M14.7757 58.4144L14.736 57.6945C14.2592 57.7002 13.7909 57.5888 13.5099 57.4374L13.6745 56.5404C13.9839 56.6975 14.4096 56.8318 14.8722 56.8061C15.2781 56.7832 15.5449 56.6004 15.5279 56.2976C15.5108 56.0091 15.2753 55.8405 14.7388 55.6834C13.964 55.4549 13.4248 55.1064 13.3822 54.3722C13.3453 53.7066 13.754 53.1581 14.5061 52.9553L14.4664 52.2354L15.1617 52.1954L15.1986 52.861C15.6754 52.8553 16.0018 52.9438 16.2431 53.0524L16.0841 53.918C15.894 53.8465 15.5591 53.6894 15.0482 53.718C14.5856 53.7437 14.4493 53.9637 14.4607 54.1779C14.4749 54.4265 14.7332 54.5722 15.3491 54.7807C16.2119 55.0492 16.5752 55.4463 16.6149 56.1291C16.6518 56.8032 16.2374 57.4031 15.4285 57.6003L15.4711 58.3716L14.7757 58.4116V58.4144Z" fill="#41341E"></path><path d="M9.01702 85.2246C9.01702 85.2246 8.75307 83.2621 6.89688 81.5595C4.10409 78.9999 1.49295 80.1197 2.03504 82.2451C2.57998 84.3676 5.72754 84.7447 7.3737 84.9847L9.01986 85.2246H9.01702Z" fill="#a0ff2a" stroke="#41341E" stroke-width="1.5" stroke-linecap="round" stroke-linejoin="round"></path><path d="M12.2611 78.697C12.2611 78.697 12.4626 76.7287 14.262 74.9661C16.9697 72.3151 19.6177 73.3521 19.1409 75.4918C18.6669 77.6315 15.5307 78.1085 13.8959 78.4028L12.2611 78.697Z" fill="#a0ff2a"></path><path d="M16.473 73.5464C17.6111 73.6092 18.3121 74.4577 18.0482 75.646C17.5742 77.7857 14.438 78.2656 12.8032 78.557C12.6017 78.5942 12.4229 78.6256 12.2696 78.6542C12.2668 78.6799 12.2639 78.697 12.2639 78.697L13.8987 78.4028C15.5335 78.1085 18.6697 77.6315 19.1437 75.4918C19.4843 73.9549 18.2156 72.9865 16.4701 73.5464H16.473Z" fill="white"></path><path d="M12.2611 78.697C12.2611 78.697 12.4626 76.7287 14.262 74.9661C16.9697 72.3151 19.6177 73.3521 19.1409 75.4918C18.6669 77.6315 15.5307 78.1085 13.8959 78.4028L12.2611 78.697Z" stroke="#41341E" stroke-width="1.5" stroke-linecap="round" stroke-linejoin="round"></path><path d="M15.7776 68.6414C15.7776 68.6414 16.0841 65.6276 18.84 62.9309C22.9866 58.8743 27.0339 60.4598 26.3073 63.7364C25.5808 67.0131 20.7842 67.7444 18.2781 68.1929L15.7748 68.6443L15.7776 68.6414Z" fill="#a0ff2a"></path><path d="M22.4417 60.6912C24.3007 60.6998 25.4701 62.0224 25.0529 63.9107C24.3263 67.1874 19.5297 67.9187 17.0236 68.3672C16.5099 68.4586 16.104 68.5329 15.7805 68.59C15.7776 68.6214 15.7748 68.6386 15.7748 68.6386L18.2781 68.1872C20.7814 67.7358 25.5808 67.0074 26.3073 63.7308C26.8154 61.4454 24.9961 59.9856 22.4417 60.6884V60.6912Z" fill="white"></path><path d="M15.7776 68.6414C15.7776 68.6414 16.0841 65.6276 18.84 62.9309C22.9866 58.8743 27.0339 60.4598 26.3073 63.7364C25.5808 67.0131 20.7842 67.7444 18.2781 68.1929L15.7748 68.6443L15.7776 68.6414Z" stroke="#41341E" stroke-width="1.5" stroke-linecap="round" stroke-linejoin="round"></path><path d="M10.9556 83.502C10.9556 83.502 11.0861 82.2165 12.2611 81.0653C14.0293 79.3341 15.7578 80.0111 15.4484 81.4081C15.1391 82.805 13.0927 83.1164 12.0227 83.3106L10.9556 83.502Z" fill="#a0ff2a" stroke="#41341E" stroke-width="1.5" stroke-linecap="round" stroke-linejoin="round"></path><path d="M10.1835 78.917C10.1835 78.917 11.1967 76.9088 10.5524 74.1063C9.58462 69.8898 6.42003 69.2385 5.56289 71.581C4.70575 73.9235 7.4134 76.3231 8.79844 77.6201L10.1835 78.917Z" fill="#a0ff2a" stroke="#41341E" stroke-width="1.5" stroke-linecap="round" stroke-linejoin="round"></path><path d="M12.9678 71.5324C12.9678 71.5324 13.9214 69.7041 13.3679 67.1245C12.5307 63.2451 9.6357 62.6081 8.82114 64.7449C8.00658 66.8817 10.4588 69.1185 11.7133 70.3269L12.9678 71.5324Z" fill="#a0ff2a" stroke="#41341E" stroke-width="1.5" stroke-linecap="round" stroke-linejoin="round"></path><path d="M16.175 68.57C15.7776 68.6415 19.1011 64.1193 23.3953 63.5137" stroke="#41341E" stroke-width="1.5" stroke-linecap="round" stroke-linejoin="round"></path><path d="M12.9082 78.1857C13.9697 77.3515 15.1532 76.6488 16.4389 76.2317" stroke="#41341E" stroke-width="1.5" stroke-linecap="round" stroke-linejoin="round"></path><path d="M13.1835 71.1982C12.9082 69.6299 12.3548 68.0701 11.3643 66.8103" stroke="#41341E" stroke-width="1.5" stroke-linecap="round" stroke-linejoin="round"></path><path d="M10.4531 78.8227C10.192 77.1801 9.63571 75.5375 8.59692 74.2206" stroke="#41341E" stroke-width="1.5" stroke-linecap="round" stroke-linejoin="round"></path><path d="M35.8465 93.4719C35.3611 92.432 34.4331 91.6236 33.3091 91.3179C32.4946 91.0951 31.7141 91.1465 31.013 91.3779C30.1729 89.3439 28.1805 87.9127 25.856 87.9127C24.6186 87.9127 23.4804 88.3212 22.5552 89.0069C21.4483 85.9702 18.5505 83.8019 15.1503 83.8019C12.0084 83.8019 9.29794 85.6502 8.02926 88.327C7.22889 88.0013 6.34053 87.8499 5.40393 87.9384C2.6452 88.2013 0.451266 90.5438 0.351929 93.3319C0.351929 93.3805 0.354767 93.429 0.351929 93.4776H35.8465V93.4719Z" fill="white" stroke="#41341E" stroke-width="1.5" stroke-linecap="round" stroke-linejoin="round"></path><path d="M21.1588 90.6809C21.7492 89.1497 23.4805 88.3955 24.8797 87.9956" stroke="#41341E" stroke-width="1.5" stroke-linecap="round" stroke-linejoin="round"></path><path d="M9.46253 89.464C8.49755 88.1413 6.63569 87.8671 5.12292 87.9699" stroke="#41341E" stroke-width="1.5" stroke-linecap="round" stroke-linejoin="round"></path></g><defs><clipPath id="clip0_70_5775"><rect width="134" height="93" fill="white" transform="translate(0 0.828979)"></rect></clipPath></defs></svg>