<svg width="24" height="24" viewBox="0 0 24 24" fill="none" xmlns="http://www.w3.org/2000/svg">
<path fill-rule="evenodd" clip-rule="evenodd" d="M12 3.04977C12.2848 3.04977 12.5156 3.28063 12.5156 3.5654V6.66286C12.5156 6.94763 12.2848 7.17848 12 7.17848C11.7152 7.17848 11.4844 6.94763 11.4844 6.66286V3.5654C11.4844 3.28063 11.7152 3.04977 12 3.04977Z" fill="#8EF102"/>
<path fill-rule="evenodd" clip-rule="evenodd" d="M12 16.8215C12.2848 16.8215 12.5156 17.0524 12.5156 17.3372V20.4346C12.5156 20.7194 12.2848 20.9502 12 20.9502C11.7152 20.9502 11.4844 20.7194 11.4844 20.4346V17.3372C11.4844 17.0524 11.7152 16.8215 12 16.8215Z" fill="#8EF102"/>
<path fill-rule="evenodd" clip-rule="evenodd" d="M3.0498 12C3.0498 11.7152 3.28066 11.4844 3.56543 11.4844H6.66289C6.94766 11.4844 7.17851 11.7152 7.17851 12C7.17851 12.2848 6.94766 12.5156 6.66289 12.5156H3.56543C3.28066 12.5156 3.0498 12.2848 3.0498 12Z" fill="#8EF102"/>
<path fill-rule="evenodd" clip-rule="evenodd" d="M16.8213 12C16.8213 11.7152 17.0521 11.4844 17.3369 11.4844H20.4344C20.7191 11.4844 20.95 11.7152 20.95 12C20.95 12.2848 20.7191 12.5156 20.4344 12.5156H17.3369C17.0521 12.5156 16.8213 12.2848 16.8213 12Z" fill="#8EF102"/>
<path fill-rule="evenodd" clip-rule="evenodd" d="M11.9997 9.84705C10.8106 9.84705 9.84668 10.811 9.84668 12C9.84668 13.1891 10.8106 14.153 11.9997 14.153C13.1887 14.153 14.1526 13.1891 14.1526 12C14.1526 10.811 13.1887 9.84705 11.9997 9.84705ZM8.81543 12C8.81543 10.2414 10.2411 8.8158 11.9997 8.8158C13.7582 8.8158 15.1839 10.2414 15.1839 12C15.1839 13.7586 13.7582 15.1842 11.9997 15.1842C10.2411 15.1842 8.81543 13.7586 8.81543 12Z" fill="#8EF102"/>
<path fill-rule="evenodd" clip-rule="evenodd" d="M12.0005 1.03125C11.4431 1.03125 10.9912 1.48312 10.9912 2.04052C10.9912 2.59792 11.4431 3.04978 12.0005 3.04978C12.5579 3.04978 13.0097 2.59792 13.0097 2.04052C13.0097 1.48312 12.5579 1.03125 12.0005 1.03125ZM9.95996 2.04052C9.95996 0.913571 10.8735 0 12.0005 0C13.1274 0 14.041 0.913571 14.041 2.04052C14.041 3.16746 13.1274 4.08104 12.0005 4.08104C10.8735 4.08104 9.95996 3.16746 9.95996 2.04052Z" fill="#8EF102"/>
<path fill-rule="evenodd" clip-rule="evenodd" d="M12.0005 20.9502C11.4431 20.9502 10.9912 21.4021 10.9912 21.9595C10.9912 22.5169 11.4431 22.9688 12.0005 22.9688C12.5579 22.9688 13.0097 22.5169 13.0097 21.9595C13.0097 21.4021 12.5579 20.9502 12.0005 20.9502ZM9.95996 21.9595C9.95996 20.8325 10.8735 19.919 12.0005 19.919C13.1274 19.919 14.041 20.8325 14.041 21.9595C14.041 23.0864 13.1274 24 12.0005 24C10.8735 24 9.95996 23.0864 9.95996 21.9595Z" fill="#8EF102"/>
<path fill-rule="evenodd" clip-rule="evenodd" d="M2.04052 10.9907C1.48312 10.9907 1.03125 11.4426 1.03125 12C1.03125 12.5574 1.48312 13.0093 2.04052 13.0093C2.59792 13.0093 3.04978 12.5574 3.04978 12C3.04978 11.4426 2.59792 10.9907 2.04052 10.9907ZM0 12C0 10.873 0.913571 9.95947 2.04052 9.95947C3.16746 9.95947 4.08104 10.873 4.08104 12C4.08104 13.1269 3.16746 14.0405 2.04052 14.0405C0.913571 14.0405 0 13.1269 0 12Z" fill="#8EF102"/>
<path fill-rule="evenodd" clip-rule="evenodd" d="M21.9595 10.9907C21.4021 10.9907 20.9502 11.4426 20.9502 12C20.9502 12.5574 21.4021 13.0093 21.9595 13.0093C22.5169 13.0093 22.9687 12.5574 22.9687 12C22.9687 11.4426 22.5169 10.9907 21.9595 10.9907ZM19.9189 12C19.9189 10.873 20.8325 9.95947 21.9595 9.95947C23.0864 9.95947 24 10.873 24 12C24 13.1269 23.0864 14.0405 21.9595 14.0405C20.8325 14.0405 19.9189 13.1269 19.9189 12Z" fill="#8EF102"/>
<path fill-rule="evenodd" clip-rule="evenodd" d="M4.95751 3.94833C4.40011 3.94833 3.94824 4.4002 3.94824 4.9576C3.94824 5.515 4.40011 5.96687 4.95751 5.96687C5.51491 5.96687 5.96678 5.515 5.96678 4.9576C5.96678 4.4002 5.51491 3.94833 4.95751 3.94833ZM2.91699 4.9576C2.91699 3.83065 3.83056 2.91708 4.95751 2.91708C6.08446 2.91708 6.99803 3.83065 6.99803 4.9576C6.99803 6.08455 6.08446 6.99812 4.95751 6.99812C3.83056 6.99812 2.91699 6.08455 2.91699 4.9576Z" fill="#8EF102"/>
<path fill-rule="evenodd" clip-rule="evenodd" d="M5.67153 5.67126C5.8729 5.46989 6.19937 5.46989 6.40074 5.67126L8.59097 7.86149C8.79234 8.06286 8.79234 8.38933 8.59097 8.5907C8.38961 8.79206 8.06313 8.79206 7.86177 8.5907L5.67153 6.40046C5.47017 6.1991 5.47017 5.87262 5.67153 5.67126Z" fill="#8EF102"/>
<path fill-rule="evenodd" clip-rule="evenodd" d="M19.0425 18.0332C18.4851 18.0332 18.0332 18.485 18.0332 19.0424C18.0332 19.5998 18.4851 20.0517 19.0425 20.0517C19.5999 20.0517 20.0517 19.5998 20.0517 19.0424C20.0517 18.485 19.5999 18.0332 19.0425 18.0332ZM17.002 19.0424C17.002 17.9155 17.9155 17.0019 19.0425 17.0019C20.1694 17.0019 21.083 17.9155 21.083 19.0424C21.083 20.1694 20.1694 21.083 19.0425 21.083C17.9155 21.083 17.002 20.1694 17.002 19.0424Z" fill="#8EF102"/>
<path fill-rule="evenodd" clip-rule="evenodd" d="M15.4088 15.4093C15.6102 15.2079 15.9367 15.2079 16.138 15.4093L18.3283 17.5995C18.5296 17.8009 18.5296 18.1274 18.3283 18.3287C18.1269 18.5301 17.8004 18.5301 17.5991 18.3287L15.4088 16.1385C15.2075 15.9371 15.2075 15.6107 15.4088 15.4093Z" fill="#8EF102"/>
<path fill-rule="evenodd" clip-rule="evenodd" d="M4.95751 18.0332C4.40011 18.0332 3.94824 18.485 3.94824 19.0424C3.94824 19.5998 4.40011 20.0517 4.95751 20.0517C5.51491 20.0517 5.96678 19.5998 5.96678 19.0424C5.96678 18.485 5.51491 18.0332 4.95751 18.0332ZM2.91699 19.0424C2.91699 17.9155 3.83056 17.0019 4.95751 17.0019C6.08446 17.0019 6.99803 17.9155 6.99803 19.0424C6.99803 20.1694 6.08446 21.083 4.95751 21.083C3.83056 21.083 2.91699 20.1694 2.91699 19.0424Z" fill="#8EF102"/>
<path fill-rule="evenodd" clip-rule="evenodd" d="M8.59097 15.4093C8.79234 15.6107 8.79234 15.9371 8.59097 16.1385L6.40074 18.3287C6.19937 18.5301 5.8729 18.5301 5.67153 18.3287C5.47017 18.1274 5.47017 17.8009 5.67153 17.5995L7.86177 15.4093C8.06313 15.2079 8.38961 15.2079 8.59097 15.4093Z" fill="#8EF102"/>
<path fill-rule="evenodd" clip-rule="evenodd" d="M19.0425 3.94833C18.4851 3.94833 18.0332 4.4002 18.0332 4.9576C18.0332 5.515 18.4851 5.96687 19.0425 5.96687C19.5999 5.96687 20.0517 5.515 20.0517 4.9576C20.0517 4.4002 19.5999 3.94833 19.0425 3.94833ZM17.002 4.9576C17.002 3.83065 17.9155 2.91708 19.0425 2.91708C20.1694 2.91708 21.083 3.83065 21.083 4.9576C21.083 6.08455 20.1694 6.99812 19.0425 6.99812C17.9155 6.99812 17.002 6.08455 17.002 4.9576Z" fill="#8EF102"/>
<path fill-rule="evenodd" clip-rule="evenodd" d="M18.3283 5.67126C18.5296 5.87262 18.5296 6.1991 18.3283 6.40046L16.138 8.5907C15.9367 8.79206 15.6102 8.79206 15.4088 8.5907C15.2075 8.38933 15.2075 8.06286 15.4088 7.86149L17.5991 5.67126C17.8004 5.46989 18.1269 5.46989 18.3283 5.67126Z" fill="#8EF102"/>
</svg>
