<svg width="20" height="20" viewBox="0 0 20 20" fill="none" xmlns="http://www.w3.org/2000/svg">
<path d="M11.4425 6.2924H8.55671C8.41322 6.29236 8.27561 6.23534 8.17415 6.13388C8.07268 6.03241 8.01566 5.89481 8.01562 5.75131V5.02986C8.01562 4.50367 8.22465 3.99904 8.59672 3.62697C8.96879 3.25489 9.47343 3.04587 9.99962 3.04587C10.5258 3.04587 11.0304 3.25489 11.4025 3.62697C11.7746 3.99904 11.9836 4.50367 11.9836 5.02986V5.75131C11.9836 5.89481 11.9266 6.03241 11.8251 6.13388C11.7236 6.23534 11.586 6.29236 11.4425 6.2924ZM9.0978 5.21022H10.9014V5.02986C10.9014 4.79068 10.8064 4.5613 10.6373 4.39218C10.4682 4.22306 10.2388 4.12805 9.99962 4.12805C9.76044 4.12805 9.53106 4.22306 9.36194 4.39218C9.19282 4.5613 9.0978 4.79068 9.0978 5.02986V5.21022Z" fill="#8EF102"/>
<path d="M16.4924 6.29241H10.7208C10.5773 6.29241 10.4396 6.23541 10.3382 6.13393C10.2367 6.03246 10.1797 5.89483 10.1797 5.75133C10.1797 5.60782 10.2367 5.47019 10.3382 5.36872C10.4396 5.26724 10.5773 5.21024 10.7208 5.21024H16.4924C16.5402 5.21014 16.586 5.19111 16.6198 5.15731C16.6536 5.1235 16.6727 5.07768 16.6728 5.02987V1.98378C16.6727 1.84103 16.6387 1.70033 16.5737 1.57326C16.5087 1.44618 16.4144 1.33636 16.2986 1.25283C16.1829 1.1693 16.0489 1.11444 15.9078 1.09276C15.7667 1.07108 15.6225 1.08321 15.487 1.12814L11.8798 2.32586C11.7003 2.38657 11.5443 2.5018 11.4336 2.65545C11.3228 2.80911 11.2628 2.99352 11.2619 3.18294V3.78176C11.2619 3.92527 11.2049 4.0629 11.1034 4.16437C11.0019 4.26584 10.8643 4.32285 10.7208 4.32285C10.5773 4.32285 10.4396 4.26584 10.3382 4.16437C10.2367 4.0629 10.1797 3.92527 10.1797 3.78176V3.18291C10.1808 2.76694 10.3121 2.36175 10.555 2.0241C10.798 1.68645 11.1405 1.43327 11.5345 1.30003L15.146 0.100915C15.4442 0.002013 15.7615 -0.0246893 16.072 0.0230045C16.3825 0.0706982 16.6772 0.191425 16.9319 0.375253C17.1866 0.559081 17.3941 0.800758 17.5371 1.0804C17.6802 1.36004 17.7549 1.66966 17.7549 1.98378V5.02987C17.7545 5.3646 17.6214 5.68549 17.3847 5.92218C17.148 6.15886 16.8271 6.29201 16.4924 6.29241Z" fill="#8EF102"/>
<path d="M9.2783 6.29241H3.50668C3.17196 6.29201 2.85106 6.15886 2.61438 5.92218C2.3777 5.68549 2.24455 5.3646 2.24414 5.02987V1.98378C2.24421 1.66966 2.31885 1.36004 2.46193 1.0804C2.60501 0.800758 2.81244 0.559081 3.06716 0.375253C3.32187 0.191425 3.61659 0.0706982 3.92707 0.0230045C4.23755 -0.0246893 4.55492 0.002013 4.85306 0.100915L8.46032 1.29864C8.85527 1.43143 9.19873 1.68456 9.44248 2.0225C9.68623 2.36045 9.81803 2.76624 9.81939 3.18291V3.78176C9.81939 3.92527 9.76238 4.0629 9.6609 4.16437C9.55943 4.26584 9.4218 4.32285 9.2783 4.32285C9.13479 4.32285 8.99716 4.26584 8.89569 4.16437C8.79422 4.0629 8.73721 3.92527 8.73721 3.78176V3.18291C8.7361 2.99279 8.67551 2.80777 8.56395 2.65382C8.45238 2.49986 8.29543 2.38468 8.1151 2.32443L4.51206 1.12812C4.37656 1.08318 4.23233 1.07106 4.09123 1.09274C3.95014 1.11442 3.8162 1.16928 3.70044 1.25281C3.58468 1.33635 3.4904 1.44617 3.42536 1.57325C3.36032 1.70033 3.32638 1.84103 3.32632 1.98378V5.02987C3.32641 5.07768 3.34544 5.1235 3.37925 5.15731C3.41305 5.19111 3.45887 5.21014 3.50668 5.21024H9.2783C9.4218 5.21024 9.55943 5.26724 9.6609 5.36872C9.76238 5.47019 9.81939 5.60782 9.81939 5.75133C9.81939 5.89483 9.76238 6.03246 9.6609 6.13393C9.55943 6.23541 9.4218 6.29241 9.2783 6.29241Z" fill="#8EF102"/>
<path d="M18.6575 10.6211H1.34262C1.0079 10.6207 0.687001 10.4875 0.450317 10.2509C0.213633 10.0142 0.0804848 9.69327 0.0800781 9.35855V6.47275C0.0804848 6.13802 0.213633 5.81713 0.450317 5.58044C0.687001 5.34376 1.0079 5.21061 1.34262 5.21021H18.6575C18.9922 5.21061 19.3131 5.34376 19.5498 5.58044C19.7864 5.81713 19.9196 6.13802 19.92 6.47275V9.35855C19.9196 9.69327 19.7864 10.0142 19.5498 10.2509C19.3131 10.4875 18.9922 10.6207 18.6575 10.6211ZM1.34262 6.29238C1.29481 6.29247 1.24899 6.31151 1.21518 6.34531C1.18138 6.37912 1.16235 6.42494 1.16226 6.47275V9.35855C1.16235 9.40636 1.18138 9.45218 1.21518 9.48599C1.24899 9.51979 1.29481 9.53882 1.34262 9.53892H18.6575C18.7053 9.53882 18.7511 9.51979 18.7849 9.48599C18.8187 9.45218 18.8377 9.40636 18.8378 9.35855V6.47275C18.8377 6.42494 18.8187 6.37912 18.7849 6.34531C18.7511 6.31151 18.7053 6.29247 18.6575 6.29238H1.34262Z" fill="#8EF102"/>
<path d="M17.214 20H2.785C2.45028 19.9996 2.12938 19.8664 1.8927 19.6298C1.65602 19.3931 1.52287 19.0722 1.52246 18.7375V10.08C1.5225 9.93654 1.57952 9.79893 1.68098 9.69746C1.78245 9.596 1.92006 9.53898 2.06355 9.53894H17.9355C18.079 9.53898 18.2166 9.596 18.3181 9.69746C18.4195 9.79893 18.4765 9.93654 18.4766 10.08V18.7375C18.4762 19.0722 18.343 19.3931 18.1063 19.6298C17.8697 19.8664 17.5488 19.9996 17.214 20ZM2.60464 10.6211V18.7375C2.60473 18.7853 2.62376 18.8311 2.65757 18.8649C2.69137 18.8987 2.73719 18.9177 2.785 18.9178H17.214C17.2618 18.9177 17.3077 18.8987 17.3415 18.8649C17.3753 18.8311 17.3943 18.7853 17.3944 18.7375V10.6211H2.60464Z" fill="#8EF102"/>
<path d="M10.0001 20C9.85658 20 9.71897 19.9429 9.61751 19.8415C9.51604 19.74 9.45902 19.6024 9.45898 19.4589V10.08C9.45898 9.93652 9.51599 9.7989 9.61747 9.69742C9.71894 9.59595 9.85657 9.53894 10.0001 9.53894C10.1436 9.53894 10.2812 9.59595 10.3827 9.69742C10.4842 9.7989 10.5412 9.93652 10.5412 10.08V19.4589C10.5411 19.6024 10.4841 19.74 10.3826 19.8415C10.2812 19.9429 10.1436 20 10.0001 20Z" fill="#8EF102"/>
</svg>
