<svg width="22" height="20" viewBox="0 0 22 20" fill="none" xmlns="http://www.w3.org/2000/svg">
<path fill-rule="evenodd" clip-rule="evenodd" d="M1.46667 7.67387V17.3333C1.46667 17.9171 1.6984 18.4766 2.11127 18.8887C2.5234 19.3016 3.08293 19.5333 3.66667 19.5333H18.3333C18.9171 19.5333 19.4766 19.3016 19.8887 18.8887C20.3016 18.4766 20.5333 17.9171 20.5333 17.3333V7.67387C20.8399 7.56607 21.1215 7.39007 21.3554 7.15541C21.7683 6.74327 22 6.18374 22 5.60001V2.66667C22 2.08294 21.7683 1.52341 21.3554 1.11127C20.9433 0.698408 20.3837 0.466675 19.8 0.466675C16.0204 0.466675 5.9796 0.466675 2.2 0.466675C1.61627 0.466675 1.05673 0.698408 0.6446 1.11127C0.231733 1.52341 0 2.08294 0 2.66667V5.60001C0 6.18374 0.231733 6.74327 0.6446 7.15541C0.878533 7.39007 1.16013 7.56607 1.46667 7.67387ZM2.93333 7.80001H19.0667V17.3333C19.0667 17.5277 18.9897 17.7147 18.8518 17.8518C18.7147 17.9897 18.5277 18.0667 18.3333 18.0667H3.66667C3.47233 18.0667 3.28533 17.9897 3.1482 17.8518C3.01033 17.7147 2.93333 17.5277 2.93333 17.3333V7.80001ZM19.8 6.33334H2.2C2.00567 6.33334 1.81867 6.25634 1.68153 6.11847C1.54367 5.98134 1.46667 5.79434 1.46667 5.60001V2.66667C1.46667 2.47234 1.54367 2.28534 1.68153 2.14821C1.81867 2.01034 2.00567 1.93334 2.2 1.93334H19.8C19.9943 1.93334 20.1813 2.01034 20.3185 2.14821C20.4563 2.28534 20.5333 2.47234 20.5333 2.66667V5.60001C20.5333 5.79434 20.4563 5.98134 20.3185 6.11847C20.1813 6.25634 19.9943 6.33334 19.8 6.33334Z" fill="#8EF102"/>
<path fill-rule="evenodd" clip-rule="evenodd" d="M9.16667 13.3H18.3333C18.8393 13.3 19.25 12.8893 19.25 12.3833C19.25 11.8773 18.8393 11.4667 18.3333 11.4667H9.16667C8.66067 11.4667 8.25 11.8773 8.25 12.3833C8.25 12.8893 8.66067 13.3 9.16667 13.3Z" fill="#8EF102"/>
</svg>
